{
designer = "Bartłomiej Rózga @rozgatype";
designerURL = "https://www.behance.net/rozga";
familyName = Exile;
customParameters = (
{
name = glyphOrder;
value = (
.notdef,
NULL,
CR,
space,
I,
L,
N,
K,
T,
H,
O,
E,
S,
M,
R,
C,
J,
U,
F,
V,
D,
P,
Y,
B,
Z,
G,
uni000D,
X,
question,
ampersand,
A,
period,
acute,
W,
Q,
bracketleft,
at,
five,
three,
one,
two,
four,
six,
nine,
eight,
seven,
ogonek,
Aogonek,
Lslash,
zero,
Eogonek,
quotesingle,
z,
bracketright,
parenleft,
parenright,
dollar,
colon,
exclam,
semicolon,
hyphen,
plus,
asterisk,
asciicircum,
tilde,
slash,
less,
equal,
greater,
quotedbl,
numbersign,
percent,
braceleft,
bar,
braceright,
backslash,
quoteleft,
quoteright,
quotedblleft,
quotedblright,
quotesinglbase,
quotedblbase,
bullet,
underscore,
endash,
emdash,
minus,
plusminus,
multiply,
divide,
brokenbar,
ellipsis,
periodcentered,
comma,
asciitilde,
ampersand.ss01,
questiondown,
exclamdown,
Oacute,
Cacute,
Uacute,
Yacute,
Lacute,
Racute,
Wacute,
Aacute,
Eacute,
Iacute,
approxequal,
Iogonek,
Nacute,
grave,
Agrave,
Egrave,
Igrave,
Ograve,
Ugrave,
Wgrave,
trademark,
dotaccent,
Zdotaccent,
Edotaccent,
Gdotaccent,
Idotaccent,
Atilde,
Ntilde,
Itilde,
Utilde,
dieresis,
Edieresis,
Idieresis,
Odieresis,
Udieresis,
Cdotaccent,
Wdieresis,
Sacute,
Ldot,
Ydieresis,
Uogonek,
Otilde,
copyright,
registered,
Oslash,
ring,
Aring,
Uring,
Eth,
degree,
Dcroat,
hungarumlaut,
Uhungarumlaut,
Ohungarumlaut,
Hbar,
uni0122,
uni0136,
uni013B,
uni0145,
uni0156,
uni0218,
uni021A,
a,
b,
c,
d,
e,
f,
g,
h,
i,
j,
k,
l,
m,
n,
o,
p,
q,
r,
s,
u,
v,
w,
x,
y,
t,
agrave,
aacute,
atilde,
adieresis,
aring,
egrave,
eacute,
edieresis,
igrave,
iacute,
idieresis,
oacute,
otilde,
odieresis,
oslash,
ugrave,
uacute,
udieresis,
yacute,
ydieresis,
aogonek,
cacute,
cdotaccent,
edotaccent,
eogonek,
gdotaccent,
uni0123,
itilde,
iogonek,
dotlessi,
ij,
uni0137,
uni013C,
ldot,
lslash,
nacute,
uni0146,
ohungarumlaut,
racute,
uni0157,
sacute,
utilde,
uring,
uhungarumlaut,
uogonek,
zacute,
zdotaccent,
uni0219,
uni021B,

glyphs = (
{
glyphname = I;
leftMetricsKey = "=30";
rightMetricsKey = "=30";
layers = (
{
anchors = (
{
name = top;
position = "{186, 750}";
},
{
name = bottom;
position = "{342, -54}";
}
);
guideLines = (
{
angle = 90;
position = "{186, 0}";
}
);
layerId = "8cfcb29b-26a6-4086-8457-1c158349f2cd";
paths = (
{
closed = 1;
nodes = (
"336 170 LINE SMOOTH",
"306 170 OFFCURVE",
"286 190 OFFCURVE",
"286 220 CURVE SMOOTH",
"286 480 LINE SMOOTH",
"286 510 OFFCURVE",
"306 530 OFFCURVE",
"336 530 CURVE SMOOTH",
"342 530 LINE",
"342 700 LINE",
"30 700 LINE",
"30 530 LINE",
"36 530 LINE SMOOTH",
"66 530 OFFCURVE",
"86 510 OFFCURVE",
"86 480 CURVE SMOOTH",
"86 220 LINE SMOOTH",
"86 190 OFFCURVE",
"66 170 OFFCURVE",
"36 170 CURVE SMOOTH",
"30 170 LINE",
"30 0 LINE",
"342 0 LINE",
"342 170 LINE"
);
}
);
width = 372;
}
);
leftKerningGroup = F_2nd;
rightKerningGroup = I_1st;
unicode = 0049;
},
{
glyphname = L;
leftMetricsKey = "=I";
layers = (
{
anchors = (
{
name = top;
position = "{237, 750}";
},
{
name = bottom;
position = "{327, -54}";
}
);
layerId = "8cfcb29b-26a6-4086-8457-1c158349f2cd";
paths = (
{
closed = 1;
nodes = (
"30 160 OFFCURVE",
"53 203 OFFCURVE",
"94 227 CURVE",
"98 214 OFFCURVE",
"106 207 OFFCURVE",
"116 207 CURVE SMOOTH",
"129 207 OFFCURVE",
"137 217 OFFCURVE",
"137 236 CURVE SMOOTH",
"137 480 LINE SMOOTH",
"137 510 OFFCURVE",
"117 530 OFFCURVE",
"87 530 CURVE SMOOTH",
"81 530 LINE",
"81 700 LINE",
"393 700 LINE",
"393 530 LINE",
"387 530 LINE SMOOTH",
"357 530 OFFCURVE",
"337 510 OFFCURVE",
"337 480 CURVE SMOOTH",
"337 172 LINE SMOOTH",
"337 47 OFFCURVE",
"280 -18 OFFCURVE",
"180 -18 CURVE SMOOTH",
"89 -18 OFFCURVE",
"30 36 OFFCURVE",
"30 112 CURVE SMOOTH"
);
},
{
closed = 1;
nodes = (
"382 170 LINE",
"448 170 LINE SMOOTH",
"478 170 OFFCURVE",
"498 190 OFFCURVE",
"498 220 CURVE SMOOTH",
"498 285 LINE",
"638 285 LINE",
"638 0 LINE",
"382 0 LINE"
);
}
);
width = 653;
}
);
leftKerningGroup = 2nd;
rightKerningGroup = L1_1st;
unicode = 004C;
},
{
glyphname = N;
leftMetricsKey = "=I";
rightMetricsKey = "=I-10";
layers = (
{
anchors = (
{
name = top;
position = "{368, 750}";
},
{
name = bottom;
position = "{368, -54}";
}
);
guideLines = (
{
angle = 123.18;
position = "{663, 79}";
showMeasurement = 1;
},
{
angle = 90;
position = "{368, 0}";
}
);
layerId = "8cfcb29b-26a6-4086-8457-1c158349f2cd";
paths = (
{
closed = 1;
nodes = (
"30 700 LINE",
"270 700 LINE",
"500 240 LINE SMOOTH",
"507 226 OFFCURVE",
"515 220 OFFCURVE",
"526 220 CURVE SMOOTH",
"538 220 OFFCURVE",
"545 227 OFFCURVE",
"545 237 CURVE SMOOTH",
"545 240 OFFCURVE",
"544 243 OFFCURVE",
"543 245 CURVE",
"558 254 OFFCURVE",
"577 260 OFFCURVE",
"598 260 CURVE SMOOTH",
"664 260 OFFCURVE",
"715 201 OFFCURVE",
"715 127 CURVE SMOOTH",
"715 42 OFFCURVE",
"649 -18 OFFCURVE",
"554 -18 CURVE SMOOTH",
"467 -18 OFFCURVE",
"404 30 OFFCURVE",
"354 133 CURVE SMOOTH",
"226 397 LINE",
"226 220 LINE SMOOTH",
"226 190 OFFCURVE",
"246 170 OFFCURVE",
"276 170 CURVE SMOOTH",
"282 170 LINE",
"282 0 LINE",
"30 0 LINE",
"30 170 LINE",
"36 170 LINE SMOOTH",
"66 170 OFFCURVE",
"86 190 OFFCURVE",
"86 220 CURVE SMOOTH",
"86 480 LINE SMOOTH",
"86 510 OFFCURVE",
"66 530 OFFCURVE",
"36 530 CURVE SMOOTH",
"30 530 LINE"
);
},
{
closed = 1;
nodes = (
"452 700 LINE",
"704 700 LINE",
"704 530 LINE",
"698 530 LINE SMOOTH",
"668 530 OFFCURVE",
"648 510 OFFCURVE",
"648 480 CURVE SMOOTH",
"648 351 LINE",
"508 351 LINE",
"508 480 LINE SMOOTH",
"508 510 OFFCURVE",
"488 530 OFFCURVE",
"458 530 CURVE SMOOTH",
"452 530 LINE"
);
}
);
width = 735;
}
);
leftKerningGroup = N_2nd;
rightKerningGroup = N1_1st;
unicode = 004E;
},
{
glyphname = K;
leftMetricsKey = "=I";
rightMetricsKey = "=V";
layers = (
{
anchors = (
{
name = bottom;
position = "{390, -54}";
}
);
guideLines = (
{
angle = 90;
position = "{390, 0}";
}
);
layerId = "8cfcb29b-26a6-4086-8457-1c158349f2cd";
paths = (
{
closed = 1;
nodes = (
"328 324 LINE",
"460 86 LINE SMOOTH",
"499 17 OFFCURVE",
"563 -18 OFFCURVE",
"627 -18 CURVE SMOOTH",
"705 -18 OFFCURVE",
"771 34 OFFCURVE",
"771 126 CURVE SMOOTH",
"771 211 OFFCURVE",
"715 255 OFFCURVE",
"633 255 CURVE",
"633 240 OFFCURVE",
"623 232 OFFCURVE",
"614 232 CURVE SMOOTH",
"603 232 OFFCURVE",
"594 242 OFFCURVE",
"583 262 CURVE SMOOTH",
"521 374 LINE",
"569 469 LINE SMOOTH",
"586 503 OFFCURVE",
"595 514 OFFCURVE",
"606 514 CURVE SMOOTH",
"613 514 OFFCURVE",
"621 509 OFFCURVE",
"621 497 CURVE",
"672 497 OFFCURVE",
"721 543 OFFCURVE",
"721 607 CURVE SMOOTH",
"721 674 OFFCURVE",
"668 718 OFFCURVE",
"601 718 CURVE SMOOTH",
"535 718 OFFCURVE",
"486 676 OFFCURVE",
"455 606 CURVE SMOOTH"
);
},
{
closed = 1;
nodes = (
"336 170 LINE SMOOTH",
"306 170 OFFCURVE",
"286 190 OFFCURVE",
"286 220 CURVE SMOOTH",
"286 480 LINE SMOOTH",
"286 510 OFFCURVE",
"306 530 OFFCURVE",
"336 530 CURVE SMOOTH",
"342 530 LINE",
"342 700 LINE",
"30 700 LINE",
"30 530 LINE",
"36 530 LINE SMOOTH",
"66 530 OFFCURVE",
"86 510 OFFCURVE",
"86 480 CURVE SMOOTH",
"86 220 LINE SMOOTH",
"86 190 OFFCURVE",
"66 170 OFFCURVE",
"36 170 CURVE SMOOTH",
"30 170 LINE",
"30 0 LINE",
"342 0 LINE",
"342 170 LINE"
);
}
);
width = 781;
}
);
leftKerningGroup = K_2nd;
rightKerningGroup = K1_1st;
unicode = 004B;
},
{
glyphname = T;
layers = (
{
anchors = (
{
name = top;
position = "{300, 750}";
}
);
guideLines = (
{
angle = 90;
position = "{300, 0}";
}
);
layerId = "8cfcb29b-26a6-4086-8457-1c158349f2cd";
paths = (
{
closed = 1;
nodes = (
"10 700 LINE",
"370 700 LINE SMOOTH",
"385 700 OFFCURVE",
"391 704 OFFCURVE",
"391 714 CURVE SMOOTH",
"391 721 OFFCURVE",
"386 727 OFFCURVE",
"381 732 CURVE",
"414 765 OFFCURVE",
"445 781 OFFCURVE",
"480 781 CURVE SMOOTH",
"546 781 OFFCURVE",
"590 722 OFFCURVE",
"590 657 CURVE SMOOTH",
"590 583 OFFCURVE",
"534 530 OFFCURVE",
"456 530 CURVE SMOOTH",
"180 530 LINE SMOOTH",
"150 530 OFFCURVE",
"130 510 OFFCURVE",
"130 480 CURVE SMOOTH",
"130 439 LINE",
"10 439 LINE"
);
},
{
closed = 1;
nodes = (
"142 0 LINE",
"142 170 LINE",
"148 170 LINE SMOOTH",
"178 170 OFFCURVE",
"198 190 OFFCURVE",
"198 220 CURVE SMOOTH",
"198 470 LINE",
"398 470 LINE",
"398 220 LINE SMOOTH",
"398 190 OFFCURVE",
"418 170 OFFCURVE",
"448 170 CURVE SMOOTH",
"454 170 LINE",
"454 0 LINE"
);
}
);
width = 600;
}
);
leftKerningGroup = T_2nd;
rightKerningGroup = T1_1st;
unicode = 0054;
},
{
glyphname = H;
leftMetricsKey = "=I-8";
rightMetricsKey = "=I";
layers = (
{
anchors = (
{
name = top;
position = "{407, 750}";
}
);
guideLines = (
{
angle = 90;
position = "{407, 0}";
}
);
layerId = "8cfcb29b-26a6-4086-8457-1c158349f2cd";
paths = (
{
closed = 1;
nodes = (
"451 700 LINE",
"763 700 LINE",
"763 530 LINE",
"757 530 LINE SMOOTH",
"727 530 OFFCURVE",
"707 510 OFFCURVE",
"707 480 CURVE SMOOTH",
"707 220 LINE SMOOTH",
"707 190 OFFCURVE",
"727 170 OFFCURVE",
"757 170 CURVE SMOOTH",
"763 170 LINE",
"763 0 LINE",
"451 0 LINE",
"451 170 LINE",
"457 170 LINE SMOOTH",
"487 170 OFFCURVE",
"507 190 OFFCURVE",
"507 220 CURVE SMOOTH",
"507 480 LINE SMOOTH",
"507 510 OFFCURVE",
"487 530 OFFCURVE",
"457 530 CURVE SMOOTH",
"451 530 LINE"
);
},
{
closed = 1;
nodes = (
"22 358 OFFCURVE",
"331 381 OFFCURVE",
"451 381 CURVE",
"451 297 LINE",
"287 297 OFFCURVE",
"230 256 OFFCURVE",
"230 216 CURVE SMOOTH",
"230 193 OFFCURVE",
"242 187 OFFCURVE",
"253 187 CURVE SMOOTH",
"265 187 OFFCURVE",
"276 193 OFFCURVE",
"276 213 CURVE",
"337 213 OFFCURVE",
"381 177 OFFCURVE",
"381 114 CURVE SMOOTH",
"381 19 OFFCURVE",
"298 -18 OFFCURVE",
"217 -18 CURVE SMOOTH",
"116 -18 OFFCURVE",
"22 40 OFFCURVE",
"22 149 CURVE SMOOTH"
);
},
{
closed = 1;
nodes = (
"363 700 LINE",
"363 530 LINE",
"357 530 LINE SMOOTH",
"327 530 OFFCURVE",
"307 510 OFFCURVE",
"307 480 CURVE SMOOTH",
"307 411 LINE",
"107 411 LINE",
"107 480 LINE SMOOTH",
"107 510 OFFCURVE",
"87 530 OFFCURVE",
"57 530 CURVE SMOOTH",
"51 530 LINE",
"51 700 LINE"
);
}
);
width = 793;
}
);
leftKerningGroup = H_2nd;
rightKerningGroup = H1_1st;
unicode = 0048;
},
{
glyphname = O;
leftMetricsKey = "=20";
rightMetricsKey = "=20";
layers = (
{
anchors = (
{
name = top;
position = "{338, 750}";
}
);
guideLines = (
{
angle = 90;
position = "{338, 0}";
}
);
layerId = "8cfcb29b-26a6-4086-8457-1c158349f2cd";
paths = (
{
closed = 1;
nodes = (
"264 466 LINE",
"274 520 OFFCURVE",
"305 555 OFFCURVE",
"356 555 CURVE SMOOTH",
"398 555 OFFCURVE",
"441 532 OFFCURVE",
"441 484 CURVE SMOOTH",
"441 462 OFFCURVE",
"432 444 OFFCURVE",
"417 444 CURVE SMOOTH",
"411 444 OFFCURVE",
"406 446 OFFCURVE",
"403 449 CURVE",
"387 429 OFFCURVE",
"380 405 OFFCURVE",
"380 380 CURVE SMOOTH",
"380 315 OFFCURVE",
"430 272 OFFCURVE",
"504 272 CURVE SMOOTH",
"596 272 OFFCURVE",
"656 339 OFFCURVE",
"656 441 CURVE SMOOTH",
"656 581 OFFCURVE",
"542 718 OFFCURVE",
"341 718 CURVE SMOOTH",
"165 718 OFFCURVE",
"49 629 OFFCURVE",
"31 466 CURVE"
);
},
{
closed = 1;
nodes = (
"412 234 LINE",
"402 180 OFFCURVE",
"371 145 OFFCURVE",
"320 145 CURVE SMOOTH",
"278 145 OFFCURVE",
"235 168 OFFCURVE",
"235 216 CURVE SMOOTH",
"235 238 OFFCURVE",
"244 256 OFFCURVE",
"259 256 CURVE SMOOTH",
"265 256 OFFCURVE",
"270 254 OFFCURVE",
"273 251 CURVE",
"289 271 OFFCURVE",
"296 295 OFFCURVE",
"296 320 CURVE SMOOTH",
"296 385 OFFCURVE",
"246 428 OFFCURVE",
"172 428 CURVE SMOOTH",
"80 428 OFFCURVE",
"20 361 OFFCURVE",
"20 259 CURVE SMOOTH",
"20 119 OFFCURVE",
"134 -18 OFFCURVE",
"335 -18 CURVE SMOOTH",
"511 -18 OFFCURVE",
"627 71 OFFCURVE",
"645 234 CURVE"
);
}
);
width = 676;
}
);
leftKerningGroup = O_2nd;
rightKerningGroup = O1_1st;
unicode = 004F;
},
{
glyphname = E;
leftMetricsKey = "=I-5";
rightMetricsKey = "=I-10";
layers = (
{
anchors = (
{
name = top;
position = "{324, 750}";
},
{
name = bottom;
position = "{596, -54}";
}
);
layerId = "8cfcb29b-26a6-4086-8457-1c158349f2cd";
paths = (
{
closed = 1;
nodes = (
"25 62 OFFCURVE",
"121 -18 OFFCURVE",
"313 -18 CURVE SMOOTH",
"506 -18 OFFCURVE",
"628 63 OFFCURVE",
"628 253 CURVE",
"436 253 LINE",
"431 184 OFFCURVE",
"372 164 OFFCURVE",
"330 164 CURVE SMOOTH",
"289 164 OFFCURVE",
"262 183 OFFCURVE",
"262 209 CURVE SMOOTH",
"262 260 OFFCURVE",
"338 306 OFFCURVE",
"551 306 CURVE",
"551 390 LINE",
"210 390 OFFCURVE",
"25 302 OFFCURVE",
"25 162 CURVE SMOOTH"
);
},
{
closed = 1;
nodes = (
"25 440 OFFCURVE",
"84 378 OFFCURVE",
"171 378 CURVE SMOOTH",
"236 378 OFFCURVE",
"292 412 OFFCURVE",
"292 474 CURVE",
"280 474 OFFCURVE",
"268 490 OFFCURVE",
"268 508 CURVE SMOOTH",
"268 535 OFFCURVE",
"295 554 OFFCURVE",
"331 554 CURVE SMOOTH",
"394 554 OFFCURVE",
"436 494 OFFCURVE",
"436 451 CURVE",
"596 451 LINE",
"596 700 LINE",
"436 700 LINE",
"436 583 LINE",
"400 691 OFFCURVE",
"299 718 OFFCURVE",
"233 718 CURVE SMOOTH",
"115 718 OFFCURVE",
"25 631 OFFCURVE",
"25 524 CURVE SMOOTH"
);
}
);
width = 648;
}
);
leftKerningGroup = E_2nd;
rightKerningGroup = E1_1st;
unicode = 0045;
},
{
glyphname = S;
leftMetricsKey = "=I";
rightMetricsKey = "=I-10";
layers = (
{
anchors = (
{
name = top;
position = "{321, 750}";
},
{
name = bottom;
position = "{326, -54}";
}
);
guideLines = (
{
angle = 107.85;
position = "{355, 260}";
},
{
angle = 90;
position = "{321, 0}";
}
);
layerId = "8cfcb29b-26a6-4086-8457-1c158349f2cd";
paths = (
{
closed = 1;
nodes = (
"190 0 LINE",
"190 137 LINE",
"227 16 OFFCURVE",
"324 -18 OFFCURVE",
"400 -18 CURVE SMOOTH",
"531 -18 OFFCURVE",
"622 85 OFFCURVE",
"622 213 CURVE SMOOTH",
"622 322 OFFCURVE",
"557 398 OFFCURVE",
"454 398 CURVE SMOOTH",
"361 398 OFFCURVE",
"315 341 OFFCURVE",
"315 287 CURVE SMOOTH",
"315 279 OFFCURVE",
"316 269 OFFCURVE",
"319 260 CURVE",
"325 263 OFFCURVE",
"328 263 OFFCURVE",
"330 263 CURVE SMOOTH",
"348 263 OFFCURVE",
"357 247 OFFCURVE",
"357 226 CURVE SMOOTH",
"357 190 OFFCURVE",
"331 167 OFFCURVE",
"291 167 CURVE SMOOTH",
"219 167 OFFCURVE",
"190 240 OFFCURVE",
"190 302 CURVE",
"190 303 LINE",
"30 303 LINE",
"30 0 LINE"
);
},
{
closed = 1;
nodes = (
"30 426 OFFCURVE",
"99 356 OFFCURVE",
"189 356 CURVE SMOOTH",
"261 356 OFFCURVE",
"299 401 OFFCURVE",
"299 451 CURVE SMOOTH",
"299 458 OFFCURVE",
"298 465 OFFCURVE",
"297 472 CURVE",
"294 470 OFFCURVE",
"289 469 OFFCURVE",
"285 469 CURVE SMOOTH",
"270 469 OFFCURVE",
"257 481 OFFCURVE",
"257 503 CURVE SMOOTH",
"257 537 OFFCURVE",
"287 556 OFFCURVE",
"322 556 CURVE SMOOTH",
"398 556 OFFCURVE",
"411 467 OFFCURVE",
"411 439 CURVE",
"571 439 LINE",
"571 700 LINE",
"411 700 LINE",
"411 583 LINE",
"379 686 OFFCURVE",
"297 718 OFFCURVE",
"225 718 CURVE SMOOTH",
"111 718 OFFCURVE",
"30 636 OFFCURVE",
"30 526 CURVE SMOOTH"
);
}
);
width = 642;
}
);
leftKerningGroup = S_2nd;
rightKerningGroup = S1_1st;
unicode = 0053;
},
{
glyphname = M;
leftMetricsKey = "=I-10";
rightMetricsKey = "=I";
layers = (
{
layerId = "8cfcb29b-26a6-4086-8457-1c158349f2cd";
paths = (
{
closed = 1;
nodes = (
"988 700 LINE",
"988 530 LINE",
"982 530 LINE SMOOTH",
"952 530 OFFCURVE",
"932 510 OFFCURVE",
"932 480 CURVE SMOOTH",
"932 220 LINE SMOOTH",
"932 190 OFFCURVE",
"952 170 OFFCURVE",
"982 170 CURVE SMOOTH",
"988 170 LINE",
"988 0 LINE",
"676 0 LINE",
"676 170 LINE",
"682 170 LINE SMOOTH",
"712 170 OFFCURVE",
"732 190 OFFCURVE",
"732 220 CURVE SMOOTH",
"732 477 LINE",
"568 196 LINE SMOOTH",
"566 192 OFFCURVE",
"565 189 OFFCURVE",
"565 185 CURVE SMOOTH",
"565 179 OFFCURVE",
"568 173 OFFCURVE",
"572 170 CURVE SMOOTH",
"575 168 OFFCURVE",
"578 167 OFFCURVE",
"582 167 CURVE SMOOTH",
"585 167 OFFCURVE",
"588 168 OFFCURVE",
"592 170 CURVE",
"599 156 OFFCURVE",
"603 142 OFFCURVE",
"603 123 CURVE SMOOTH",
"603 60 OFFCURVE",
"561 17 OFFCURVE",
"498 17 CURVE SMOOTH",
"431 17 OFFCURVE",
"383 65 OFFCURVE",
"383 133 CURVE SMOOTH",
"383 171 OFFCURVE",
"399 208 OFFCURVE",
"419 240 CURVE SMOOTH",
"574 488 LINE SMOOTH",
"579 496 OFFCURVE",
"582 503 OFFCURVE",
"582 509 CURVE SMOOTH",
"582 522 OFFCURVE",
"570 530 OFFCURVE",
"550 530 CURVE SMOOTH",
"544 530 LINE",
"544 700 LINE"
);
},
{
closed = 1;
nodes = (
"364 229 LINE",
"234 462 LINE SMOOTH",
"229 471 OFFCURVE",
"223 475 OFFCURVE",
"214 475 CURVE SMOOTH",
"199 475 OFFCURVE",
"192 464 OFFCURVE",
"192 452 CURVE SMOOTH",
"192 448 OFFCURVE",
"193 444 OFFCURVE",
"194 440 CURVE",
"180 435 OFFCURVE",
"165 433 OFFCURVE",
"151 433 CURVE SMOOTH",
"76 433 OFFCURVE",
"20 492 OFFCURVE",
"20 569 CURVE SMOOTH",
"20 651 OFFCURVE",
"85 718 OFFCURVE",
"180 718 CURVE SMOOTH",
"250 718 OFFCURVE",
"311 682 OFFCURVE",
"348 616 CURVE SMOOTH",
"468 407 LINE"
);
},
{
closed = 1;
nodes = (
"288 0 LINE",
"36 0 LINE",
"36 170 LINE",
"42 170 LINE SMOOTH",
"72 170 OFFCURVE",
"92 190 OFFCURVE",
"92 220 CURVE SMOOTH",
"92 362 LINE",
"232 362 LINE",
"232 220 LINE SMOOTH",
"232 190 OFFCURVE",
"252 170 OFFCURVE",
"282 170 CURVE SMOOTH",
"288 170 LINE"
);
}
);
width = 1018;
}
);
rightKerningGroup = I_1st;
unicode = 004D;
},
{
glyphname = R;
leftMetricsKey = "=I";
rightMetricsKey = "=V";
layers = (
{
anchors = (
{
name = top;
position = "{334, 750}";
},
{
name = bottom;
position = "{334, -54}";
}
);
guideLines = (
{
position = "{0, 749}";
}
);
layerId = "8cfcb29b-26a6-4086-8457-1c158349f2cd";
paths = (
{
closed = 1;
nodes = (
"30 392 OFFCURVE",
"100 330 OFFCURVE",
"181 330 CURVE SMOOTH",
"251 330 OFFCURVE",
"293 376 OFFCURVE",
"293 428 CURVE SMOOTH",
"293 448 OFFCURVE",
"285 466 OFFCURVE",
"274 480 CURVE",
"271 478 OFFCURVE",
"268 477 OFFCURVE",
"264 477 CURVE SMOOTH",
"253 477 OFFCURVE",
"242 489 OFFCURVE",
"242 504 CURVE SMOOTH",
"242 533 OFFCURVE",
"279 556 OFFCURVE",
"325 556 CURVE SMOOTH",
"383 556 OFFCURVE",
"426 518 OFFCURVE",
"426 469 CURVE SMOOTH",
"426 419 OFFCURVE",
"383 374 OFFCURVE",
"323 374 CURVE",
"323 311 LINE SMOOTH",
"323 118 OFFCURVE",
"426 -18 OFFCURVE",
"564 -18 CURVE SMOOTH",
"663 -18 OFFCURVE",
"741 53 OFFCURVE",
"741 147 CURVE SMOOTH",
"741 226 OFFCURVE",
"686 291 OFFCURVE",
"608 291 CURVE SMOOTH",
"572 291 OFFCURVE",
"539 277 OFFCURVE",
"509 249 CURVE",
"518 238 OFFCURVE",
"521 230 OFFCURVE",
"521 223 CURVE SMOOTH",
"521 211 OFFCURVE",
"510 203 OFFCURVE",
"493 203 CURVE SMOOTH",
"452 203 OFFCURVE",
"419 250 OFFCURVE",
"419 318 CURVE",
"557 337 OFFCURVE",
"644 402 OFFCURVE",
"644 499 CURVE SMOOTH",
"644 621 OFFCURVE",
"508 718 OFFCURVE",
"334 718 CURVE SMOOTH",
"160 718 OFFCURVE",
"30 617 OFFCURVE",
"30 487 CURVE SMOOTH"
);
},
{
closed = 1;
nodes = (
"91 220 LINE SMOOTH",
"91 190 OFFCURVE",
"71 170 OFFCURVE",
"41 170 CURVE SMOOTH",
"35 170 LINE",
"35 0 LINE",
"281 0 LINE",
"281 301 LINE",
"91 301 LINE"
);
}
);
width = 751;
}
);
leftKerningGroup = 2nd;
rightKerningGroup = R1_1st;
unicode = 0052;
},
{
glyphname = C;
leftMetricsKey = "=O";
rightMetricsKey = "=O-5";
layers = (
{
anchors = (
{
name = top;
position = "{332, 750}";
},
{
name = bottom;
position = "{342, -54}";
}
);
layerId = "8cfcb29b-26a6-4086-8457-1c158349f2cd";
paths = (
{
closed = 1;
nodes = (
"253 389 LINE",
"260 498 OFFCURVE",
"297 556 OFFCURVE",
"363 556 CURVE SMOOTH",
"409 556 OFFCURVE",
"449 528 OFFCURVE",
"449 491 CURVE SMOOTH",
"449 475 OFFCURVE",
"442 464 OFFCURVE",
"434 464 CURVE SMOOTH",
"431 464 OFFCURVE",
"427 465 OFFCURVE",
"424 468 CURVE",
"416 459 OFFCURVE",
"411 445 OFFCURVE",
"411 428 CURVE SMOOTH",
"411 381 OFFCURVE",
"448 336 OFFCURVE",
"512 336 CURVE SMOOTH",
"588 336 OFFCURVE",
"635 398 OFFCURVE",
"635 479 CURVE SMOOTH",
"635 619 OFFCURVE",
"510 718 OFFCURVE",
"335 718 CURVE SMOOTH",
"144 718 OFFCURVE",
"33 600 OFFCURVE",
"21 389 CURVE"
);
},
{
closed = 1;
nodes = (
"20 329 LINE",
"20 92 OFFCURVE",
"127 -18 OFFCURVE",
"340 -18 CURVE SMOOTH",
"522 -18 OFFCURVE",
"628 81 OFFCURVE",
"642 263 CURVE",
"482 263 LINE",
"472 188 OFFCURVE",
"432 145 OFFCURVE",
"370 145 CURVE SMOOTH",
"291 145 OFFCURVE",
"252 199 OFFCURVE",
"252 329 CURVE"
);
}
);
width = 657;
}
);
leftKerningGroup = C_2nd;
rightKerningGroup = C1_1st;
unicode = 0043;
},
{
glyphname = J;
leftMetricsKey = "=V";
rightMetricsKey = "=I-10";
layers = (
{
anchors = (
{
name = top;
position = "{397, 750}";
}
);
guideLines = (
{
angle = 90;
position = "{397, 0}";
}
);
layerId = "8cfcb29b-26a6-4086-8457-1c158349f2cd";
paths = (
{
closed = 1;
nodes = (
"10 77 OFFCURVE",
"113 -18 OFFCURVE",
"285 -18 CURVE SMOOTH",
"449 -18 OFFCURVE",
"547 67 OFFCURVE",
"547 210 CURVE SMOOTH",
"547 329 LINE",
"347 329 LINE",
"347 244 LINE SMOOTH",
"347 178 OFFCURVE",
"326 145 OFFCURVE",
"285 145 CURVE SMOOTH",
"250 145 OFFCURVE",
"223 168 OFFCURVE",
"223 195 CURVE SMOOTH",
"223 212 OFFCURVE",
"234 226 OFFCURVE",
"246 226 CURVE SMOOTH",
"249 226 OFFCURVE",
"252 225 OFFCURVE",
"254 224 CURVE",
"259 238 OFFCURVE",
"262 251 OFFCURVE",
"262 265 CURVE SMOOTH",
"262 322 OFFCURVE",
"216 374 OFFCURVE",
"149 374 CURVE SMOOTH",
"73 374 OFFCURVE",
"10 307 OFFCURVE",
"10 206 CURVE SMOOTH"
);
},
{
closed = 1;
nodes = (
"191 700 LINE",
"191 530 LINE",
"297 530 LINE SMOOTH",
"327 530 OFFCURVE",
"347 510 OFFCURVE",
"347 480 CURVE SMOOTH",
"347 389 LINE",
"547 389 LINE",
"547 480 LINE SMOOTH",
"547 510 OFFCURVE",
"567 530 OFFCURVE",
"597 530 CURVE SMOOTH",
"603 530 LINE",
"603 700 LINE"
);
}
);
width = 623;
}
);
leftKerningGroup = J_2nd;
rightKerningGroup = J1_1st;
unicode = 004A;
},
{
glyphname = U;
leftMetricsKey = "=I-8";
rightMetricsKey = "=l()";
layers = (
{
anchors = (
{
name = top;
position = "{364, 750}";
},
{
name = bottom;
position = "{558, -54}";
}
);
guideLines = (
{
angle = 90;
position = "{364, 0}";
}
);
layerId = "8cfcb29b-26a6-4086-8457-1c158349f2cd";
paths = (
{
closed = 1;
nodes = (
"22 700 LINE",
"22 530 LINE",
"28 530 LINE SMOOTH",
"58 530 OFFCURVE",
"78 510 OFFCURVE",
"78 480 CURVE SMOOTH",
"78 259 LINE SMOOTH",
"78 84 OFFCURVE",
"189 -18 OFFCURVE",
"362 -18 CURVE SMOOTH",
"537 -18 OFFCURVE",
"646 87 OFFCURVE",
"646 237 CURVE SMOOTH",
"646 333 OFFCURVE",
"602 392 OFFCURVE",
"532 392 CURVE SMOOTH",
"481 392 OFFCURVE",
"445 360 OFFCURVE",
"445 317 CURVE SMOOTH",
"445 301 OFFCURVE",
"450 286 OFFCURVE",
"461 268 CURVE",
"465 271 OFFCURVE",
"469 273 OFFCURVE",
"474 273 CURVE SMOOTH",
"485 273 OFFCURVE",
"489 262 OFFCURVE",
"489 244 CURVE SMOOTH",
"489 186 OFFCURVE",
"447 145 OFFCURVE",
"385 145 CURVE SMOOTH",
"318 145 OFFCURVE",
"278 194 OFFCURVE",
"278 279 CURVE SMOOTH",
"278 480 LINE SMOOTH",
"278 510 OFFCURVE",
"298 530 OFFCURVE",
"328 530 CURVE SMOOTH",
"334 530 LINE",
"334 700 LINE"
);
},
{
closed = 1;
nodes = (
"435 530 LINE",
"441 530 LINE SMOOTH",
"471 530 OFFCURVE",
"491 510 OFFCURVE",
"491 480 CURVE SMOOTH",
"491 431 LINE",
"631 431 LINE",
"631 480 LINE SMOOTH",
"631 510 OFFCURVE",
"651 530 OFFCURVE",
"681 530 CURVE SMOOTH",
"687 530 LINE",
"687 700 LINE",
"435 700 LINE"
);
}
);
width = 709;
}
);
leftKerningGroup = U_2nd;
rightKerningGroup = U1_1st;
unicode = 0055;
},
{
glyphname = F;
leftMetricsKey = "=I";
layers = (
{
layerId = "8cfcb29b-26a6-4086-8457-1c158349f2cd";
paths = (
{
closed = 1;
nodes = (
"342 700 LINE",
"342 530 LINE",
"336 530 LINE SMOOTH",
"306 530 OFFCURVE",
"286 510 OFFCURVE",
"286 480 CURVE SMOOTH",
"286 324 LINE",
"310 396 OFFCURVE",
"374 433 OFFCURVE",
"448 433 CURVE SMOOTH",
"541 433 OFFCURVE",
"613 364 OFFCURVE",
"613 278 CURVE SMOOTH",
"613 212 OFFCURVE",
"569 154 OFFCURVE",
"499 154 CURVE SMOOTH",
"451 154 OFFCURVE",
"419 182 OFFCURVE",
"401 239 CURVE",
"413 242 OFFCURVE",
"421 253 OFFCURVE",
"421 266 CURVE SMOOTH",
"421 287 OFFCURVE",
"399 303 OFFCURVE",
"370 303 CURVE SMOOTH",
"328 303 OFFCURVE",
"286 263 OFFCURVE",
"286 221 CURVE",
"286 220 LINE",
"286 190 OFFCURVE",
"306 170 OFFCURVE",
"336 170 CURVE SMOOTH",
"342 170 LINE",
"342 0 LINE",
"30 0 LINE",
"30 170 LINE",
"36 170 LINE SMOOTH",
"66 170 OFFCURVE",
"86 190 OFFCURVE",
"86 220 CURVE SMOOTH",
"86 480 LINE SMOOTH",
"86 510 OFFCURVE",
"66 530 OFFCURVE",
"36 530 CURVE SMOOTH",
"30 530 LINE",
"30 700 LINE"
);
},
{
closed = 1;
nodes = (
"423 530 LINE",
"423 700 LINE",
"649 700 LINE",
"649 465 LINE",
"529 465 LINE",
"529 480 LINE SMOOTH",
"529 510 OFFCURVE",
"509 530 OFFCURVE",
"479 530 CURVE SMOOTH"
);
}
);
width = 674;
}
);
leftKerningGroup = F_2nd;
unicode = 0046;
},
{
glyphname = V;
layers = (
{
layerId = "8cfcb29b-26a6-4086-8457-1c158349f2cd";
paths = (
{
closed = 1;
nodes = (
"604 0 LINE",
"604 170 LINE",
"598 170 LINE SMOOTH",
"568 170 OFFCURVE",
"553 189 OFFCURVE",
"561 218 CURVE SMOOTH",
"588 322 LINE",
"408 322 LINE",
"378 209 LINE",
"310 481 LINE SMOOTH",
"303 510 OFFCURVE",
"318 530 OFFCURVE",
"348 530 CURVE SMOOTH",
"354 530 LINE",
"354 700 LINE",
"10 700 LINE",
"10 530 LINE",
"36 530 LINE SMOOTH",
"66 530 OFFCURVE",
"91 511 OFFCURVE",
"98 482 CURVE SMOOTH",
"165 218 LINE SMOOTH",
"172 189 OFFCURVE",
"157 170 OFFCURVE",
"127 170 CURVE SMOOTH",
"121 170 LINE",
"121 0 LINE"
);
},
{
closed = 1;
nodes = (
"471 718 OFFCURVE",
"397 678 OFFCURVE",
"397 601 CURVE SMOOTH",
"397 544 OFFCURVE",
"437 510 OFFCURVE",
"492 510 CURVE",
"492 526 OFFCURVE",
"501 536 OFFCURVE",
"515 536 CURVE SMOOTH",
"529 536 OFFCURVE",
"538 526 OFFCURVE",
"538 510 CURVE SMOOTH",
"538 478 OFFCURVE",
"502 448 OFFCURVE",
"441 448 CURVE",
"419 364 LINE",
"630 364 OFFCURVE",
"726 448 OFFCURVE",
"726 563 CURVE SMOOTH",
"726 667 OFFCURVE",
"647 718 OFFCURVE",
"554 718 CURVE SMOOTH"
);
}
);
width = 736;
}
);
unicode = 0056;
},
{
glyphname = D;
leftMetricsKey = "=I";
rightMetricsKey = "=O";
layers = (
{
anchors = (
{
name = top;
position = "{375, 750}";
}
);
guideLines = (
{
position = "{0, 350}";
},
{
position = "{0, 350}";
},
{
angle = 90;
position = "{375, 0}";
}
);
layerId = "8cfcb29b-26a6-4086-8457-1c158349f2cd";
paths = (
{
closed = 1;
nodes = (
"30 170 LINE",
"36 170 LINE SMOOTH",
"66 170 OFFCURVE",
"86 190 OFFCURVE",
"86 220 CURVE SMOOTH",
"86 480 LINE SMOOTH",
"86 510 OFFCURVE",
"66 530 OFFCURVE",
"36 530 CURVE SMOOTH",
"30 530 LINE",
"30 700 LINE",
"286 700 LINE",
"286 271 LINE SMOOTH",
"286 205 OFFCURVE",
"339 145 OFFCURVE",
"398 145 CURVE SMOOTH",
"466 145 OFFCURVE",
"504 221 OFFCURVE",
"504 379 CURVE SMOOTH",
"504 493 OFFCURVE",
"484 556 OFFCURVE",
"444 556 CURVE SMOOTH",
"433 556 OFFCURVE",
"427 551 OFFCURVE",
"427 542 CURVE SMOOTH",
"427 538 OFFCURVE",
"428 534 OFFCURVE",
"431 530 CURVE",
"419 522 OFFCURVE",
"405 518 OFFCURVE",
"391 518 CURVE SMOOTH",
"355 518 OFFCURVE",
"319 542 OFFCURVE",
"319 596 CURVE SMOOTH",
"319 670 OFFCURVE",
"388 718 OFFCURVE",
"483 718 CURVE SMOOTH",
"631 718 OFFCURVE",
"731 600 OFFCURVE",
"731 368 CURVE SMOOTH",
"731 126 OFFCURVE",
"623 -18 OFFCURVE",
"469 -18 CURVE SMOOTH",
"376 -18 OFFCURVE",
"313 34 OFFCURVE",
"286 98 CURVE",
"286 0 LINE",
"30 0 LINE"
);
}
);
width = 751;
}
);
leftKerningGroup = D_2nd;
rightKerningGroup = D1_1st;
unicode = 0044;
},
{
glyphname = P;
leftMetricsKey = "=I";
rightMetricsKey = "=V";
layers = (
{
layerId = "8cfcb29b-26a6-4086-8457-1c158349f2cd";
paths = (
{
closed = 1;
nodes = (
"36 170 LINE SMOOTH",
"66 170 OFFCURVE",
"86 190 OFFCURVE",
"86 220 CURVE SMOOTH",
"86 480 LINE SMOOTH",
"86 510 OFFCURVE",
"66 530 OFFCURVE",
"36 530 CURVE SMOOTH",
"30 530 LINE",
"30 700 LINE",
"286 700 LINE",
"286 431 LINE SMOOTH",
"286 388 OFFCURVE",
"323 360 OFFCURVE",
"368 360 CURVE SMOOTH",
"430 360 OFFCURVE",
"467 415 OFFCURVE",
"467 474 CURVE SMOOTH",
"467 516 OFFCURVE",
"449 534 OFFCURVE",
"425 534 CURVE SMOOTH",
"408 534 OFFCURVE",
"395 525 OFFCURVE",
"389 503 CURVE",
"345 516 OFFCURVE",
"322 554 OFFCURVE",
"322 595 CURVE SMOOTH",
"322 668 OFFCURVE",
"395 718 OFFCURVE",
"482 718 CURVE SMOOTH",
"593 718 OFFCURVE",
"694 636 OFFCURVE",
"694 487 CURVE SMOOTH",
"694 333 OFFCURVE",
"585 222 OFFCURVE",
"446 222 CURVE SMOOTH",
"379 222 OFFCURVE",
"321 247 OFFCURVE",
"286 300 CURVE",
"286 220 LINE SMOOTH",
"286 190 OFFCURVE",
"306 170 OFFCURVE",
"336 170 CURVE SMOOTH",
"342 170 LINE",
"342 0 LINE",
"30 0 LINE",
"30 170 LINE"
);
}
);
width = 704;
}
);
leftKerningGroup = F_2nd;
unicode = 0050;
},
{
glyphname = Y;
leftMetricsKey = "=V";
rightMetricsKey = "=V";
layers = (
{
anchors = (
{
name = top;
position = "{392, 750}";
}
);
guideLines = (
{
angle = 90;
position = "{392, 0}";
}
);
layerId = "8cfcb29b-26a6-4086-8457-1c158349f2cd";
paths = (
{
closed = 1;
nodes = (
"239 350 OFFCURVE",
"275 285 OFFCURVE",
"275 232 CURVE SMOOTH",
"275 223 OFFCURVE",
"274 216 OFFCURVE",
"270 208 CURVE",
"268 209 OFFCURVE",
"265 210 OFFCURVE",
"262 210 CURVE SMOOTH",
"249 210 OFFCURVE",
"238 196 OFFCURVE",
"238 179 CURVE SMOOTH",
"238 158 OFFCURVE",
"255 145 OFFCURVE",
"273 145 CURVE SMOOTH",
"293 145 OFFCURVE",
"311 160 OFFCURVE",
"326 187 CURVE SMOOTH",
"481 474 LINE SMOOTH",
"502 513 OFFCURVE",
"509 527 OFFCURVE",
"509 538 CURVE SMOOTH",
"509 548 OFFCURVE",
"502 554 OFFCURVE",
"497 554 CURVE SMOOTH",
"490 554 OFFCURVE",
"486 551 OFFCURVE",
"481 546 CURVE",
"468 559 OFFCURVE",
"455 580 OFFCURVE",
"455 612 CURVE SMOOTH",
"455 674 OFFCURVE",
"506 718 OFFCURVE",
"576 718 CURVE SMOOTH",
"649 718 OFFCURVE",
"704 670 OFFCURVE",
"704 593 CURVE SMOOTH",
"704 557 OFFCURVE",
"692 515 OFFCURVE",
"663 462 CURVE SMOOTH",
"481 133 LINE SMOOTH",
"424 29 OFFCURVE",
"353 -18 OFFCURVE",
"253 -18 CURVE SMOOTH",
"84 -18 OFFCURVE",
"10 73 OFFCURVE",
"10 182 CURVE SMOOTH",
"10 285 OFFCURVE",
"77 350 OFFCURVE",
"158 350 CURVE SMOOTH"
);
},
{
closed = 1;
nodes = (
"81 530 LINE",
"81 700 LINE",
"413 700 LINE",
"413 530 LINE",
"397 530 LINE SMOOTH",
"378 530 OFFCURVE",
"368 524 OFFCURVE",
"368 513 CURVE SMOOTH",
"368 507 OFFCURVE",
"371 499 OFFCURVE",
"378 491 CURVE SMOOTH",
"410 451 LINE",
"317 282 LINE",
"145 506 LINE SMOOTH",
"134 520 OFFCURVE",
"117 530 OFFCURVE",
"97 530 CURVE SMOOTH"
);
}
);
width = 714;
}
);
leftKerningGroup = Y_2nd;
rightKerningGroup = Y1_1st;
unicode = 0059;
},
{
glyphname = B;
leftMetricsKey = "=I";
rightMetricsKey = "=O";
layers = (
{
layerId = "8cfcb29b-26a6-4086-8457-1c158349f2cd";
paths = (
{
closed = 1;
nodes = (
"30 392 OFFCURVE",
"100 330 OFFCURVE",
"181 330 CURVE SMOOTH",
"251 330 OFFCURVE",
"293 376 OFFCURVE",
"293 426 CURVE SMOOTH",
"293 448 OFFCURVE",
"285 466 OFFCURVE",
"274 480 CURVE",
"271 478 OFFCURVE",
"268 477 OFFCURVE",
"264 477 CURVE SMOOTH",
"253 477 OFFCURVE",
"242 489 OFFCURVE",
"242 504 CURVE SMOOTH",
"242 533 OFFCURVE",
"281 556 OFFCURVE",
"331 556 CURVE SMOOTH",
"391 556 OFFCURVE",
"436 524 OFFCURVE",
"436 479 CURVE SMOOTH",
"436 435 OFFCURVE",
"394 394 OFFCURVE",
"334 394 CURVE",
"334 327 LINE",
"426 327 OFFCURVE",
"471 301 OFFCURVE",
"471 250 CURVE SMOOTH",
"471 202 OFFCURVE",
"431 175 OFFCURVE",
"344 171 CURVE",
"344 0 LINE",
"572 0 OFFCURVE",
"699 63 OFFCURVE",
"699 190 CURVE SMOOTH",
"699 287 OFFCURVE",
"633 348 OFFCURVE",
"514 376 CURVE",
"592 403 OFFCURVE",
"634 451 OFFCURVE",
"634 514 CURVE SMOOTH",
"634 628 OFFCURVE",
"500 718 OFFCURVE",
"329 718 CURVE SMOOTH",
"158 718 OFFCURVE",
"30 617 OFFCURVE",
"30 488 CURVE SMOOTH"
);
},
{
closed = 1;
nodes = (
"88 220 LINE SMOOTH",
"88 190 OFFCURVE",
"68 170 OFFCURVE",
"38 170 CURVE SMOOTH",
"32 170 LINE",
"32 0 LINE",
"288 0 LINE",
"288 295 LINE",
"88 295 LINE"
);
}
);
width = 719;
}
);
unicode = 0042;
},
{
glyphname = Z;
leftMetricsKey = "=I-5";
rightMetricsKey = "=I-5";
layers = (
{
anchors = (
{
name = top;
position = "{323, 750}";
}
);
guideLines = (
{
angle = 41.38;
position = "{113, 294}";
showMeasurement = 1;
},
{
angle = 41.38;
position = "{113, 37}";
showMeasurement = 1;
},
{
angle = 90;
position = "{323, 0}";
}
);
layerId = "8cfcb29b-26a6-4086-8457-1c158349f2cd";
paths = (
{
closed = 1;
nodes = (
"25 191 OFFCURVE",
"53 241 OFFCURVE",
"99 282 CURVE SMOOTH",
"361 512 LINE SMOOTH",
"368 518 OFFCURVE",
"374 529 OFFCURVE",
"374 536 CURVE SMOOTH",
"374 549 OFFCURVE",
"365 558 OFFCURVE",
"353 558 CURVE SMOOTH",
"350 558 OFFCURVE",
"346 557 OFFCURVE",
"343 556 CURVE",
"338 572 OFFCURVE",
"336 586 OFFCURVE",
"336 601 CURVE SMOOTH",
"336 670 OFFCURVE",
"393 718 OFFCURVE",
"476 718 CURVE SMOOTH",
"562 718 OFFCURVE",
"620 659 OFFCURVE",
"620 574 CURVE SMOOTH",
"620 515 OFFCURVE",
"592 459 OFFCURVE",
"550 422 CURVE SMOOTH",
"282 186 LINE SMOOTH",
"275 180 OFFCURVE",
"271 172 OFFCURVE",
"271 164 CURVE SMOOTH",
"271 150 OFFCURVE",
"281 144 OFFCURVE",
"293 144 CURVE SMOOTH",
"296 144 OFFCURVE",
"299 144 OFFCURVE",
"302 145 CURVE",
"307 129 OFFCURVE",
"309 114 OFFCURVE",
"309 100 CURVE SMOOTH",
"309 30 OFFCURVE",
"254 -18 OFFCURVE",
"179 -18 CURVE SMOOTH",
"93 -18 OFFCURVE",
"25 51 OFFCURVE",
"25 136 CURVE SMOOTH"
);
},
{
closed = 1;
nodes = (
"223 530 LINE SMOOTH",
"193 530 OFFCURVE",
"173 510 OFFCURVE",
"173 480 CURVE SMOOTH",
"173 465 LINE",
"53 465 LINE",
"53 700 LINE",
"279 700 LINE",
"279 530 LINE"
);
},
{
closed = 1;
nodes = (
"447 170 LINE SMOOTH",
"477 170 OFFCURVE",
"497 190 OFFCURVE",
"497 220 CURVE SMOOTH",
"497 235 LINE",
"617 235 LINE",
"617 0 LINE",
"380 0 LINE",
"380 170 LINE"
);
}
);
width = 645;
}
);
leftKerningGroup = Z_2nd;
rightKerningGroup = Z1_1st;
unicode = 005A;
},
{
glyphname = G;
leftMetricsKey = "=O";
rightMetricsKey = "=O+10";
layers = (
{
anchors = (
{
name = top;
position = "{348, 750}";
},
{
name = bottom;
position = "{348, -54}";
}
);
guideLines = (
{
angle = 90;
position = "{348, 0}";
}
);
layerId = "8cfcb29b-26a6-4086-8457-1c158349f2cd";
paths = (
{
closed = 1;
nodes = (
"311 145 OFFCURVE",
"266 170 OFFCURVE",
"266 213 CURVE SMOOTH",
"266 234 OFFCURVE",
"277 248 OFFCURVE",
"292 248 CURVE SMOOTH",
"296 248 OFFCURVE",
"299 247 OFFCURVE",
"304 244 CURVE",
"313 254 OFFCURVE",
"320 271 OFFCURVE",
"320 293 CURVE SMOOTH",
"320 342 OFFCURVE",
"286 406 OFFCURVE",
"194 406 CURVE SMOOTH",
"85 406 OFFCURVE",
"20 316 OFFCURVE",
"20 218 CURVE SMOOTH",
"20 86 OFFCURVE",
"138 -18 OFFCURVE",
"276 -18 CURVE SMOOTH",
"369 -18 OFFCURVE",
"468 22 OFFCURVE",
"505 122 CURVE",
"505 0 LINE",
"665 0 LINE",
"665 313 LINE",
"386 313 LINE",
"386 229 LINE",
"449 229 LINE SMOOTH",
"470 229 OFFCURVE",
"483 219 OFFCURVE",
"483 206 CURVE SMOOTH",
"483 166 OFFCURVE",
"416 145 OFFCURVE",
"366 145 CURVE SMOOTH"
);
},
{
closed = 1;
nodes = (
"265 444 LINE",
"270 500 OFFCURVE",
"310 555 OFFCURVE",
"378 555 CURVE SMOOTH",
"427 555 OFFCURVE",
"463 526 OFFCURVE",
"463 493 CURVE SMOOTH",
"463 478 OFFCURVE",
"455 469 OFFCURVE",
"441 469 CURVE",
"441 394 OFFCURVE",
"479 351 OFFCURVE",
"545 351 CURVE SMOOTH",
"614 351 OFFCURVE",
"654 398 OFFCURVE",
"654 477 CURVE SMOOTH",
"654 619 OFFCURVE",
"511 718 OFFCURVE",
"352 718 CURVE SMOOTH",
"145 718 OFFCURVE",
"43 583 OFFCURVE",
"43 444 CURVE"
);
}
);
width = 695;
}
);
leftKerningGroup = G_2nd;
rightKerningGroup = G1_1st;
unicode = 0047;
},
{
glyphname = X;
leftMetricsKey = "=V";
rightMetricsKey = "=V";
layers = (
{
guideLines = (
{
angle = 119.92;
position = "{592, 170}";
},
{
angle = 90;
position = "{352, 0}";
},
{
angle = 119.92;
position = "{337, 170}";
}
);
layerId = "8cfcb29b-26a6-4086-8457-1c158349f2cd";
paths = (
{
closed = 1;
nodes = (
"238 162 OFFCURVE",
"249 149 OFFCURVE",
"262 149 CURVE SMOOTH",
"267 149 OFFCURVE",
"273 151 OFFCURVE",
"278 156 CURVE",
"288 140 OFFCURVE",
"294 120 OFFCURVE",
"294 100 CURVE SMOOTH",
"294 47 OFFCURVE",
"253 -18 OFFCURVE",
"161 -18 CURVE SMOOTH",
"72 -18 OFFCURVE",
"10 42 OFFCURVE",
"10 120 CURVE SMOOTH",
"10 190 OFFCURVE",
"59 252 OFFCURVE",
"197 333 CURVE",
"264 217 LINE",
"246 203 OFFCURVE",
"238 190 OFFCURVE",
"238 177 CURVE SMOOTH"
);
},
{
closed = 1;
nodes = (
"474 550 OFFCURVE",
"463 562 OFFCURVE",
"451 562 CURVE SMOOTH",
"446 562 OFFCURVE",
"441 560 OFFCURVE",
"436 556 CURVE",
"427 570 OFFCURVE",
"423 586 OFFCURVE",
"423 603 CURVE SMOOTH",
"423 657 OFFCURVE",
"466 718 OFFCURVE",
"549 718 CURVE SMOOTH",
"629 718 OFFCURVE",
"687 662 OFFCURVE",
"687 589 CURVE SMOOTH",
"687 524 OFFCURVE",
"641 466 OFFCURVE",
"512 390 CURVE",
"449 499 LINE",
"466 512 OFFCURVE",
"474 524 OFFCURVE",
"474 536 CURVE SMOOTH"
);
},
{
closed = 1;
nodes = (
"155 487 LINE SMOOTH",
"140 513 OFFCURVE",
"110 530 OFFCURVE",
"80 530 CURVE SMOOTH",
"45 530 LINE",
"45 700 LINE",
"287 700 LINE",
"567 213 LINE SMOOTH",
"582 187 OFFCURVE",
"612 170 OFFCURVE",
"642 170 CURVE SMOOTH",
"668.5 170 LINE",
"668.5 0 LINE",
"435 0 LINE"
);
}
);
width = 697;
}
);
unicode = 0058;
},
{
glyphname = question;
leftMetricsKey = "=V";
rightMetricsKey = "=V";
layers = (
{
layerId = "8cfcb29b-26a6-4086-8457-1c158349f2cd";
paths = (
{
closed = 1;
nodes = (
"128 718 OFFCURVE",
"10 613 OFFCURVE",
"10 489 CURVE SMOOTH",
"10 407 OFFCURVE",
"66 348 OFFCURVE",
"140 348 CURVE SMOOTH",
"206 348 OFFCURVE",
"247 396 OFFCURVE",
"247 474 CURVE",
"228 474 OFFCURVE",
"218 491 OFFCURVE",
"218 505 CURVE SMOOTH",
"218 533 OFFCURVE",
"252 555 OFFCURVE",
"296 555 CURVE SMOOTH",
"351 555 OFFCURVE",
"384 522 OFFCURVE",
"384 465 CURVE SMOOTH",
"384 403 OFFCURVE",
"346 352 OFFCURVE",
"280 352 CURVE",
"280 278 LINE",
"492 278 OFFCURVE",
"611 351 OFFCURVE",
"611 483 CURVE SMOOTH",
"611 617 OFFCURVE",
"487 718 OFFCURVE",
"309 718 CURVE SMOOTH"
);
},
{
closed = 1;
nodes = (
"179 30 OFFCURVE",
"231 -18 OFFCURVE",
"309 -18 CURVE SMOOTH",
"386 -18 OFFCURVE",
"438 30 OFFCURVE",
"438 102 CURVE SMOOTH",
"438 173 OFFCURVE",
"386 221 OFFCURVE",
"309 221 CURVE SMOOTH",
"231 221 OFFCURVE",
"179 173 OFFCURVE",
"179 102 CURVE SMOOTH"
);
}
);
width = 621;
}
);
unicode = 003F;
},
{
glyphname = ampersand;
layers = (
{
layerId = "8cfcb29b-26a6-4086-8457-1c158349f2cd";
paths = (
{
closed = 1;
nodes = (
"173 626 OFFCURVE",
"271 718 OFFCURVE",
"413 718 CURVE SMOOTH",
"543 718 OFFCURVE",
"637 640 OFFCURVE",
"637 530 CURVE SMOOTH",
"637 452 OFFCURVE",
"589 392 OFFCURVE",
"523 392 CURVE SMOOTH",
"472 392 OFFCURVE",
"429 429 OFFCURVE",
"429 469 CURVE SMOOTH",
"429 483 OFFCURVE",
"434 494 OFFCURVE",
"439 505 CURVE",
"442 502 OFFCURVE",
"445 501 OFFCURVE",
"448 501 CURVE SMOOTH",
"457 501 OFFCURVE",
"466 514 OFFCURVE",
"466 525 CURVE SMOOTH",
"466 542 OFFCURVE",
"443 562 OFFCURVE",
"415 562 CURVE SMOOTH",
"387 562 OFFCURVE",
"358 541 OFFCURVE",
"358 498 CURVE SMOOTH",
"358 473 OFFCURVE",
"368 447 OFFCURVE",
"423 386 CURVE SMOOTH",
"590 202 LINE SMOOTH",
"627 161 OFFCURVE",
"650 145 OFFCURVE",
"675 145 CURVE SMOOTH",
"695 145 OFFCURVE",
"708 155 OFFCURVE",
"708 169 CURVE SMOOTH",
"708 183 OFFCURVE",
"698 193 OFFCURVE",
"690 196 CURVE",
"699 223 OFFCURVE",
"730 257 OFFCURVE",
"779 257 CURVE SMOOTH",
"837 257 OFFCURVE",
"877 208 OFFCURVE",
"877 142 CURVE SMOOTH",
"877 49 OFFCURVE",
"798 -18 OFFCURVE",
"685 -18 CURVE SMOOTH",
"588 -18 OFFCURVE",
"528 7 OFFCURVE",
"464 78 CURVE SMOOTH",
"260 302 LINE SMOOTH",
"196 373 OFFCURVE",
"173 424 OFFCURVE",
"173 490 CURVE SMOOTH"
);
},
{
closed = 1;
nodes = (
"784 321 LINE SMOOTH",
"754 321 OFFCURVE",
"719 307 OFFCURVE",
"697 287 CURVE SMOOTH",
"636 231 LINE",
"555 320 LINE",
"673 431 LINE",
"814 431 LINE",
"814 321 LINE"
);
},
{
closed = 1;
nodes = (
"244 241 LINE",
"212 212 OFFCURVE",
"195 187 OFFCURVE",
"195 164 CURVE SMOOTH",
"195 139 OFFCURVE",
"216 122 OFFCURVE",
"248 122 CURVE SMOOTH",
"274 122 OFFCURVE",
"299 133 OFFCURVE",
"322 155 CURVE",
"402 67 LINE",
"362 30 OFFCURVE",
"291 -18 OFFCURVE",
"202 -18 CURVE SMOOTH",
"91 -18 OFFCURVE",
"10 57 OFFCURVE",
"10 158 CURVE SMOOTH",
"10 223 OFFCURVE",
"44 290 OFFCURVE",
"128 368 CURVE"
);
}
);
width = 909;
}
);
unicode = 0026;
},
{
glyphname = A;
leftMetricsKey = "=V";
rightMetricsKey = "=V";
layers = (
{
anchors = (
{
name = top;
position = "{384, 750}";
},
{
name = bottom;
position = "{741, -54}";
}
);
guideLines = (
{
angle = 90;
position = "{384, 0}";
}
);
layerId = "8cfcb29b-26a6-4086-8457-1c158349f2cd";
paths = (
{
closed = 1;
nodes = (
"137 700 LINE",
"137 530 LINE",
"153 530 LINE SMOOTH",
"183 530 OFFCURVE",
"198 511 OFFCURVE",
"190 482 CURVE SMOOTH",
"163 378 LINE",
"343 378 LINE",
"373 491 LINE",
"441 219 LINE SMOOTH",
"448 190 OFFCURVE",
"433 170 OFFCURVE",
"403 170 CURVE SMOOTH",
"397 170 LINE",
"397 0 LINE",
"741 0 LINE",
"741 170 LINE",
"715 170 LINE SMOOTH",
"685 170 OFFCURVE",
"660 189 OFFCURVE",
"653 218 CURVE SMOOTH",
"586 482 LINE SMOOTH",
"579 511 OFFCURVE",
"594 530 OFFCURVE",
"624 530 CURVE SMOOTH",
"630 530 LINE",
"630 700 LINE"
);
},
{
closed = 1;
nodes = (
"273 -18 OFFCURVE",
"349 24 OFFCURVE",
"349 101 CURVE SMOOTH",
"349 164 OFFCURVE",
"305 200 OFFCURVE",
"244 200 CURVE",
"244 180 OFFCURVE",
"233 174 OFFCURVE",
"223 174 CURVE SMOOTH",
"210 174 OFFCURVE",
"198 183 OFFCURVE",
"198 201 CURVE SMOOTH",
"198 215 OFFCURVE",
"205 252 OFFCURVE",
"369 252 CURVE",
"369 336 LINE",
"138 336 OFFCURVE",
"10 267 OFFCURVE",
"10 143 CURVE SMOOTH",
"10 44 OFFCURVE",
"91 -18 OFFCURVE",
"191 -18 CURVE SMOOTH"
);
}
);
width = 751;
}
);
leftKerningGroup = A_2nd;
rightKerningGroup = A1_1st;
unicode = 0041;
},
{
glyphname = period;
layers = (
{
layerId = "8cfcb29b-26a6-4086-8457-1c158349f2cd";
paths = (
{
closed = 1;
nodes = (
"25 173 OFFCURVE",
"77 221 OFFCURVE",
"155 221 CURVE SMOOTH",
"232 221 OFFCURVE",
"284 173 OFFCURVE",
"284 102 CURVE SMOOTH",
"284 30 OFFCURVE",
"232 -18 OFFCURVE",
"155 -18 CURVE SMOOTH",
"77 -18 OFFCURVE",
"25 30 OFFCURVE",
"25 102 CURVE SMOOTH"
);
}
);
width = 309;
}
);
leftKerningGroup = period_2nd;
rightKerningGroup = period1_1st;
unicode = 002E;
},
{
glyphname = acute;
layers = (
{
anchors = (
{
name = _top;
position = "{208, 750}";
}
);
guideLines = (
{
angle = 58.22;
position = "{1954, 265}";
},
{
angle = 90;
position = "{208, 0}";
}
);
layerId = "8cfcb29b-26a6-4086-8457-1c158349f2cd";
paths = (
{
closed = 1;
nodes = (
"52 750 LINE",
"258 750 OFFCURVE",
"369 820 OFFCURVE",
"369 945 CURVE SMOOTH",
"369 1030 OFFCURVE",
"318 1085 OFFCURVE",
"244 1085 CURVE SMOOTH",
"178 1085 OFFCURVE",
"125 1041 OFFCURVE",
"125 988 CURVE SMOOTH",
"125 969 OFFCURVE",
"133 951 OFFCURVE",
"147 938 CURVE",
"152 943 OFFCURVE",
"157 945 OFFCURVE",
"163 945 CURVE SMOOTH",
"180 945 OFFCURVE",
"193 928 OFFCURVE",
"193 905 CURVE SMOOTH",
"193 858 OFFCURVE",
"136 825 OFFCURVE",
"52 825 CURVE"
);
}
);
width = 417;
}
);
unicode = 00B4;
},
{
glyphname = W;
leftMetricsKey = "=I-8";
rightMetricsKey = "=I-8";
layers = (
{
anchors = (
{
name = top;
position = "{532, 750}";
}
);
guideLines = (
{
angle = 90;
position = "{532, 0}";
}
);
layerId = "8cfcb29b-26a6-4086-8457-1c158349f2cd";
paths = (
{
closed = 1;
nodes = (
"22 700 LINE",
"22 530 LINE",
"28 530 LINE SMOOTH",
"58 530 OFFCURVE",
"81 510 OFFCURVE",
"84 480 CURVE SMOOTH",
"112 220 LINE SMOOTH",
"115 190 OFFCURVE",
"98 170 OFFCURVE",
"68 170 CURVE SMOOTH",
"62 170 LINE",
"62 0 LINE",
"527 0 LINE",
"527 170 LINE",
"522 170 LINE SMOOTH",
"502 170 OFFCURVE",
"490 178 OFFCURVE",
"490 191 CURVE SMOOTH",
"490 197 OFFCURVE",
"493 205 OFFCURVE",
"498 213 CURVE SMOOTH",
"641 443 LINE SMOOTH",
"658 472 OFFCURVE",
"669 506 OFFCURVE",
"669 540 CURVE SMOOTH",
"669 613 OFFCURVE",
"618 664 OFFCURVE",
"549 664 CURVE SMOOTH",
"481 664 OFFCURVE",
"431 615 OFFCURVE",
"431 559 CURVE SMOOTH",
"431 537 OFFCURVE",
"437 519 OFFCURVE",
"449 501 CURVE",
"454 505 OFFCURVE",
"458 507 OFFCURVE",
"463 507 CURVE SMOOTH",
"471 507 OFFCURVE",
"477 501 OFFCURVE",
"477 490 CURVE SMOOTH",
"477 484 OFFCURVE",
"475 478 OFFCURVE",
"472 472 CURVE SMOOTH",
"320 207 LINE",
"290 480 LINE SMOOTH",
"287 510 OFFCURVE",
"304 530 OFFCURVE",
"334 530 CURVE SMOOTH",
"340 530 LINE",
"340 700 LINE"
);
},
{
closed = 1;
nodes = (
"589 266 LINE",
"643 133 LINE SMOOTH",
"686 26 OFFCURVE",
"750 -18 OFFCURVE",
"839 -18 CURVE SMOOTH",
"937 -18 OFFCURVE",
"1004 42 OFFCURVE",
"1004 127 CURVE SMOOTH",
"1004 201 OFFCURVE",
"953 260 OFFCURVE",
"887 260 CURVE SMOOTH",
"866 260 OFFCURVE",
"847 254 OFFCURVE",
"832 245 CURVE",
"833 243 OFFCURVE",
"834 240 OFFCURVE",
"834 237 CURVE SMOOTH",
"834 227 OFFCURVE",
"827 217 OFFCURVE",
"815 217 CURVE SMOOTH",
"803 217 OFFCURVE",
"795 226 OFFCURVE",
"789 240 CURVE SMOOTH",
"699 450 LINE"
);
},
{
closed = 1;
nodes = (
"770 530 LINE",
"776 530 LINE SMOOTH",
"806 530 OFFCURVE",
"824 510 OFFCURVE",
"820 480 CURVE SMOOTH",
"801 323 LINE",
"961 323 LINE",
"980 480 LINE SMOOTH",
"984 510 OFFCURVE",
"1006 530 OFFCURVE",
"1036 530 CURVE SMOOTH",
"1042 530 LINE",
"1042 700 LINE",
"770 700 LINE"
);
}
);
width = 1064;
}
);
leftKerningGroup = W_2nd;
rightKerningGroup = W1_1st;
unicode = 0057;
},
{
glyphname = Q;
leftMetricsKey = "=O";
rightMetricsKey = "=O-86";
layers = (
{
anchors = (
{
name = top;
position = "{338, 750}";
}
);
guideLines = (
{
position = "{0, 149}";
}
);
layerId = "8cfcb29b-26a6-4086-8457-1c158349f2cd";
paths = (
{
closed = 1;
nodes = (
"264 466 LINE",
"274 520 OFFCURVE",
"305 555 OFFCURVE",
"356 555 CURVE SMOOTH",
"398 555 OFFCURVE",
"441 532 OFFCURVE",
"441 484 CURVE SMOOTH",
"441 462 OFFCURVE",
"432 444 OFFCURVE",
"417 444 CURVE SMOOTH",
"411 444 OFFCURVE",
"406 446 OFFCURVE",
"403 449 CURVE",
"387 429 OFFCURVE",
"380 405 OFFCURVE",
"380 380 CURVE SMOOTH",
"380 315 OFFCURVE",
"430 272 OFFCURVE",
"504 272 CURVE SMOOTH",
"596 272 OFFCURVE",
"656 339 OFFCURVE",
"656 441 CURVE SMOOTH",
"656 581 OFFCURVE",
"542 718 OFFCURVE",
"341 718 CURVE SMOOTH",
"165 718 OFFCURVE",
"49 629 OFFCURVE",
"31 466 CURVE"
);
},
{
closed = 1;
nodes = (
"412 234 LINE",
"402 180 OFFCURVE",
"371 145 OFFCURVE",
"320 145 CURVE SMOOTH",
"278 145 OFFCURVE",
"235 168 OFFCURVE",
"235 216 CURVE SMOOTH",
"235 238 OFFCURVE",
"244 256 OFFCURVE",
"259 256 CURVE SMOOTH",
"265 256 OFFCURVE",
"270 254 OFFCURVE",
"273 251 CURVE",
"289 271 OFFCURVE",
"296 295 OFFCURVE",
"296 320 CURVE SMOOTH",
"296 385 OFFCURVE",
"246 428 OFFCURVE",
"172 428 CURVE SMOOTH",
"80 428 OFFCURVE",
"20 361 OFFCURVE",
"20 259 CURVE SMOOTH",
"20 119 OFFCURVE",
"134 -18 OFFCURVE",
"335 -18 CURVE SMOOTH",
"511 -18 OFFCURVE",
"627 71 OFFCURVE",
"645 234 CURVE"
);
},
{
closed = 1;
nodes = (
"295 -54 LINE",
"295 -196 OFFCURVE",
"391 -290 OFFCURVE",
"531 -290 CURVE SMOOTH",
"642 -290 OFFCURVE",
"727 -230 OFFCURVE",
"727 -126 CURVE SMOOTH",
"727 -52 OFFCURVE",
"685 6 OFFCURVE",
"611 6 CURVE SMOOTH",
"551 6 OFFCURVE",
"512 -32 OFFCURVE",
"512 -77 CURVE SMOOTH",
"512 -91 OFFCURVE",
"516 -105 OFFCURVE",
"524 -119 CURVE",
"527 -116 OFFCURVE",
"531 -115 OFFCURVE",
"535 -115 CURVE SMOOTH",
"545 -115 OFFCURVE",
"551 -123 OFFCURVE",
"551 -134 CURVE SMOOTH",
"551 -154 OFFCURVE",
"533 -174 OFFCURVE",
"494 -174 CURVE SMOOTH",
"436 -174 OFFCURVE",
"395 -130 OFFCURVE",
"395 -54 CURVE"
);
}
);
width = 661;
}
);
leftKerningGroup = O_2nd;
unicode = 0051;
},
{
glyphname = bracketleft;
leftMetricsKey = "=I-8";
rightMetricsKey = "=I";
layers = (
{
guideLines = (
{
angle = 123.18;
position = "{653, 79}";
showMeasurement = 1;
}
);
layerId = "8cfcb29b-26a6-4086-8457-1c158349f2cd";
paths = (
{
closed = 1;
nodes = (
"22 -31 LINE",
"22 750 LINE",
"278 750 LINE",
"278 580 LINE",
"272 580 LINE SMOOTH",
"242 580 OFFCURVE",
"222 560 OFFCURVE",
"222 530 CURVE SMOOTH",
"222 190 LINE SMOOTH",
"222 160 OFFCURVE",
"242 140 OFFCURVE",
"272 140 CURVE SMOOTH",
"278 140 LINE",
"278 -31 LINE"
);
}
);
width = 308;
}
);
unicode = 005B;
},
{
glyphname = at;
leftMetricsKey = "=O";
rightMetricsKey = "=O";
layers = (
{
guideLines = (
{
position = "{0, 350}";
},
{
position = "{0, 350}";
}
);
layerId = "8cfcb29b-26a6-4086-8457-1c158349f2cd";
paths = (
{
closed = 1;
nodes = (
"523 -63 OFFCURVE",
"596 -25 OFFCURVE",
"596 45 CURVE SMOOTH",
"596 94 OFFCURVE",
"561 130 OFFCURVE",
"515 130 CURVE SMOOTH",
"488 130 OFFCURVE",
"452 117 OFFCURVE",
"441 89 CURVE",
"448 86 OFFCURVE",
"452 81 OFFCURVE",
"452 74 CURVE SMOOTH",
"452 61 OFFCURVE",
"430 53 OFFCURVE",
"397 53 CURVE SMOOTH",
"264 53 OFFCURVE",
"170 184 OFFCURVE",
"170 350 CURVE SMOOTH",
"170 534 OFFCURVE",
"280 649 OFFCURVE",
"456 649 CURVE SMOOTH",
"629 649 OFFCURVE",
"724 538 OFFCURVE",
"724 350 CURVE SMOOTH",
"724 274 OFFCURVE",
"708 227 OFFCURVE",
"669 227 CURVE SMOOTH",
"643 227 OFFCURVE",
"627 247 OFFCURVE",
"627 282 CURVE SMOOTH",
"627 563 LINE",
"505 563 LINE",
"505 503 LINE",
"489 542 OFFCURVE",
"450 574 OFFCURVE",
"394 574 CURVE SMOOTH",
"300 574 OFFCURVE",
"235 486 OFFCURVE",
"235 339 CURVE SMOOTH",
"235 198 OFFCURVE",
"295 126 OFFCURVE",
"386 126 CURVE SMOOTH",
"443 126 OFFCURVE",
"485 155 OFFCURVE",
"485 200 CURVE SMOOTH",
"485 233 OFFCURVE",
"463 248 OFFCURVE",
"441 248 CURVE SMOOTH",
"432 248 OFFCURVE",
"424 245 OFFCURVE",
"417 241 CURVE",
"419 238 OFFCURVE",
"420 236 OFFCURVE",
"420 233 CURVE SMOOTH",
"420 228 OFFCURVE",
"416 225 OFFCURVE",
"409 225 CURVE SMOOTH",
"385 225 OFFCURVE",
"373 263 OFFCURVE",
"373 332 CURVE SMOOTH",
"373 426 OFFCURVE",
"395 474 OFFCURVE",
"437 474 CURVE SMOOTH",
"473 474 OFFCURVE",
"505 438 OFFCURVE",
"505 398 CURVE SMOOTH",
"505 256 LINE SMOOTH",
"505 166 OFFCURVE",
"572 126 OFFCURVE",
"661 126 CURVE SMOOTH",
"795 126 OFFCURVE",
"872 220 OFFCURVE",
"872 367 CURVE SMOOTH",
"872 606 OFFCURVE",
"707 771 OFFCURVE",
"456 771 CURVE SMOOTH",
"197 771 OFFCURVE",
"20 601 OFFCURVE",
"20 351 CURVE SMOOTH",
"20 103 OFFCURVE",
"177 -63 OFFCURVE",
"411 -63 CURVE SMOOTH"
);
}
);
width = 892;
}
);
unicode = 0040;
},
{
glyphname = five;
leftMetricsKey = "=O";
rightMetricsKey = "=O";
layers = (
{
layerId = "8cfcb29b-26a6-4086-8457-1c158349f2cd";
paths = (
{
closed = 1;
nodes = (
"498 -18 OFFCURVE",
"621 74 OFFCURVE",
"621 197 CURVE SMOOTH",
"621 317 OFFCURVE",
"502 383 OFFCURVE",
"290 383 CURVE",
"290 309 LINE",
"351 309 OFFCURVE",
"394 267 OFFCURVE",
"394 215 CURVE SMOOTH",
"394 170 OFFCURVE",
"361 145 OFFCURVE",
"310 145 CURVE SMOOTH",
"262 145 OFFCURVE",
"228 167 OFFCURVE",
"228 195 CURVE SMOOTH",
"228 209 OFFCURVE",
"238 226 OFFCURVE",
"257 226 CURVE",
"257 304 OFFCURVE",
"216 352 OFFCURVE",
"150 352 CURVE SMOOTH",
"76 352 OFFCURVE",
"20 293 OFFCURVE",
"20 211 CURVE SMOOTH",
"20 87 OFFCURVE",
"139 -18 OFFCURVE",
"324 -18 CURVE SMOOTH"
);
},
{
closed = 1;
nodes = (
"244 403 LINE",
"244 551 LINE",
"279 451 OFFCURVE",
"374 413 OFFCURVE",
"439 413 CURVE SMOOTH",
"532 413 OFFCURVE",
"606 491 OFFCURVE",
"606 593 CURVE SMOOTH",
"606 663 OFFCURVE",
"563 718 OFFCURVE",
"485 718 CURVE SMOOTH",
"428 718 OFFCURVE",
"380 683 OFFCURVE",
"380 624 CURVE",
"392 624 OFFCURVE",
"403 607 OFFCURVE",
"403 590 CURVE SMOOTH",
"403 567 OFFCURVE",
"380 550 OFFCURVE",
"349 550 CURVE SMOOTH",
"278 550 OFFCURVE",
"244 638 OFFCURVE",
"244 700 CURVE",
"84 700 LINE",
"84 403 LINE"
);
}
);
width = 641;
}
);
unicode = 0035;
},
{
glyphname = three;
leftMetricsKey = "=O";
rightMetricsKey = "=O";
layers = (
{
layerId = "8cfcb29b-26a6-4086-8457-1c158349f2cd";
paths = (
{
closed = 1;
nodes = (
"498 -18 OFFCURVE",
"621 74 OFFCURVE",
"621 197 CURVE SMOOTH",
"621 317 OFFCURVE",
"502 383 OFFCURVE",
"290 383 CURVE",
"290 309 LINE",
"351 309 OFFCURVE",
"394 267 OFFCURVE",
"394 215 CURVE SMOOTH",
"394 170 OFFCURVE",
"361 145 OFFCURVE",
"310 145 CURVE SMOOTH",
"262 145 OFFCURVE",
"228 167 OFFCURVE",
"228 195 CURVE SMOOTH",
"228 209 OFFCURVE",
"238 226 OFFCURVE",
"257 226 CURVE",
"257 304 OFFCURVE",
"216 352 OFFCURVE",
"150 352 CURVE SMOOTH",
"76 352 OFFCURVE",
"20 293 OFFCURVE",
"20 211 CURVE SMOOTH",
"20 87 OFFCURVE",
"139 -18 OFFCURVE",
"324 -18 CURVE SMOOTH"
);
},
{
closed = 1;
nodes = (
"64 700 LINE",
"64 451 LINE",
"224 451 LINE",
"224 520 OFFCURVE",
"262 569 OFFCURVE",
"319 569 CURVE SMOOTH",
"353 569 OFFCURVE",
"376 551 OFFCURVE",
"376 528 CURVE SMOOTH",
"376 512 OFFCURVE",
"365 497 OFFCURVE",
"354 497 CURVE",
"354 439 OFFCURVE",
"398 400 OFFCURVE",
"462 400 CURVE SMOOTH",
"542 400 OFFCURVE",
"586 458 OFFCURVE",
"586 533 CURVE SMOOTH",
"586 636 OFFCURVE",
"509 718 OFFCURVE",
"408 718 CURVE SMOOTH",
"348 718 OFFCURVE",
"257 693 OFFCURVE",
"224 596 CURVE",
"224 700 LINE"
);
}
);
width = 641;
}
);
unicode = 0033;
},
{
glyphname = one;
leftMetricsKey = "=V";
rightMetricsKey = "=I";
layers = (
{
layerId = "8cfcb29b-26a6-4086-8457-1c158349f2cd";
paths = (
{
closed = 1;
nodes = (
"88 0 LINE",
"524 0 LINE",
"524 170 LINE",
"478 170 LINE SMOOTH",
"448 170 OFFCURVE",
"428 190 OFFCURVE",
"428 220 CURVE SMOOTH",
"428 406 LINE",
"228 306 LINE",
"228 220 LINE SMOOTH",
"228 190 OFFCURVE",
"208 170 OFFCURVE",
"178 170 CURVE SMOOTH",
"88 170 LINE"
);
},
{
closed = 1;
nodes = (
"356 375 OFFCURVE",
"429 505 OFFCURVE",
"429 700 CURVE",
"309 700 LINE",
"309 597 OFFCURVE",
"276 523 OFFCURVE",
"232 523 CURVE SMOOTH",
"214 523 OFFCURVE",
"202 535 OFFCURVE",
"202 548 CURVE SMOOTH",
"202 558 OFFCURVE",
"208 569 OFFCURVE",
"228 569 CURVE",
"228 630 OFFCURVE",
"192 674 OFFCURVE",
"129 674 CURVE SMOOTH",
"52 674 OFFCURVE",
"10 608 OFFCURVE",
"10 535 CURVE SMOOTH",
"10 447 OFFCURVE",
"72 375 OFFCURVE",
"193 375 CURVE SMOOTH"
);
}
);
width = 554;
}
);
unicode = 0031;
},
{
glyphname = two;
leftMetricsKey = "=V";
rightMetricsKey = "=I";
layers = (
{
layerId = "8cfcb29b-26a6-4086-8457-1c158349f2cd";
paths = (
{
closed = 1;
nodes = (
"424 220 LINE SMOOTH",
"424 190 OFFCURVE",
"403 170 OFFCURVE",
"374 170 CURVE SMOOTH",
"290 170 LINE SMOOTH",
"272 170 OFFCURVE",
"263 175 OFFCURVE",
"263 183 CURVE SMOOTH",
"263 188 OFFCURVE",
"268 196 OFFCURVE",
"277 204 CURVE SMOOTH",
"448 362 LINE",
"218 362 LINE",
"10 170 LINE",
"10 0 LINE",
"564 0 LINE",
"564 285 LINE",
"424 285 LINE"
);
},
{
closed = 1;
nodes = (
"38 700 LINE",
"38 451 LINE",
"198 451 LINE",
"198 520 OFFCURVE",
"236 569 OFFCURVE",
"293 569 CURVE SMOOTH",
"327 569 OFFCURVE",
"350 551 OFFCURVE",
"350 528 CURVE SMOOTH",
"350 512 OFFCURVE",
"339 497 OFFCURVE",
"328 497 CURVE",
"328 439 OFFCURVE",
"372 400 OFFCURVE",
"436 400 CURVE SMOOTH",
"516 400 OFFCURVE",
"560 458 OFFCURVE",
"560 533 CURVE SMOOTH",
"560 636 OFFCURVE",
"483 718 OFFCURVE",
"382 718 CURVE SMOOTH",
"322 718 OFFCURVE",
"231 693 OFFCURVE",
"198 596 CURVE",
"198 700 LINE"
);
}
);
width = 594;
}
);
unicode = 0032;
},
{
glyphname = four;
leftMetricsKey = "=V";
rightMetricsKey = "=I";
layers = (
{
layerId = "8cfcb29b-26a6-4086-8457-1c158349f2cd";
paths = (
{
closed = 1;
nodes = (
"279 0 LINE",
"279 170 LINE",
"329 170 LINE SMOOTH",
"359 170 OFFCURVE",
"379 190 OFFCURVE",
"379 220 CURVE SMOOTH",
"379 700 LINE",
"635 700 LINE",
"635 530 LINE",
"629 530 LINE SMOOTH",
"599 530 OFFCURVE",
"579 510 OFFCURVE",
"579 480 CURVE SMOOTH",
"579 220 LINE SMOOTH",
"579 190 OFFCURVE",
"599 170 OFFCURVE",
"629 170 CURVE SMOOTH",
"635 170 LINE",
"635 0 LINE"
);
},
{
closed = 1;
nodes = (
"10 247 LINE",
"10 377 LINE",
"109 377 OFFCURVE",
"189 430 OFFCURVE",
"189 491 CURVE SMOOTH",
"189 522 OFFCURVE",
"168 541 OFFCURVE",
"148 541 CURVE SMOOTH",
"133 541 OFFCURVE",
"120 529 OFFCURVE",
"120 517 CURVE",
"60 517 OFFCURVE",
"20 555 OFFCURVE",
"20 612 CURVE SMOOTH",
"20 675 OFFCURVE",
"71 718 OFFCURVE",
"150 718 CURVE SMOOTH",
"255 718 OFFCURVE",
"338 641 OFFCURVE",
"338 538 CURVE SMOOTH",
"338 487 OFFCURVE",
"318 413 OFFCURVE",
"244 377 CURVE",
"319 377 LINE",
"319 247 LINE"
);
}
);
width = 665;
}
);
unicode = 0034;
},
{
glyphname = six;
leftMetricsKey = "=O";
rightMetricsKey = "=O";
layers = (
{
layerId = "8cfcb29b-26a6-4086-8457-1c158349f2cd";
paths = (
{
closed = 1;
nodes = (
"496 -18 OFFCURVE",
"621 76 OFFCURVE",
"621 206 CURVE SMOOTH",
"621 329 OFFCURVE",
"508 393 OFFCURVE",
"290 393 CURVE",
"290 319 LINE",
"352 319 OFFCURVE",
"394 281 OFFCURVE",
"394 225 CURVE SMOOTH",
"394 175 OFFCURVE",
"361 145 OFFCURVE",
"308 145 CURVE SMOOTH",
"263 145 OFFCURVE",
"228 167 OFFCURVE",
"228 195 CURVE SMOOTH",
"228 212 OFFCURVE",
"241 226 OFFCURVE",
"257 226 CURVE",
"257 302 OFFCURVE",
"212 352 OFFCURVE",
"144 352 CURVE SMOOTH",
"71 352 OFFCURVE",
"20 295 OFFCURVE",
"20 211 CURVE SMOOTH",
"20 80 OFFCURVE",
"148 -18 OFFCURVE",
"324 -18 CURVE SMOOTH"
);
},
{
closed = 1;
nodes = (
"291 579 OFFCURVE",
"239 501 OFFCURVE",
"239 403 CURVE",
"39 403 LINE",
"39 591 OFFCURVE",
"164 718 OFFCURVE",
"351 718 CURVE SMOOTH",
"496 718 OFFCURVE",
"600 638 OFFCURVE",
"600 526 CURVE SMOOTH",
"600 457 OFFCURVE",
"560 410 OFFCURVE",
"496 410 CURVE SMOOTH",
"436 410 OFFCURVE",
"395 452 OFFCURVE",
"395 516 CURVE",
"411 516 OFFCURVE",
"420 523 OFFCURVE",
"420 535 CURVE SMOOTH",
"420 558 OFFCURVE",
"390 579 OFFCURVE",
"356 579 CURVE SMOOTH"
);
}
);
width = 641;
}
);
unicode = 0036;
},
{
glyphname = nine;
leftMetricsKey = "=O";
rightMetricsKey = "=O";
layers = (
{
layerId = "8cfcb29b-26a6-4086-8457-1c158349f2cd";
paths = (
{
closed = 1;
nodes = (
"146 718 OFFCURVE",
"20 632 OFFCURVE",
"20 514 CURVE SMOOTH",
"20 397 OFFCURVE",
"142 328 OFFCURVE",
"330 328 CURVE",
"330 398 LINE",
"268 398 OFFCURVE",
"221 436 OFFCURVE",
"221 485 CURVE SMOOTH",
"221 530 OFFCURVE",
"259 563 OFFCURVE",
"313 563 CURVE SMOOTH",
"356 563 OFFCURVE",
"389 542 OFFCURVE",
"389 513 CURVE SMOOTH",
"389 498 OFFCURVE",
"380 486 OFFCURVE",
"362 486 CURVE",
"362 414 OFFCURVE",
"406 366 OFFCURVE",
"471 366 CURVE SMOOTH",
"539 366 OFFCURVE",
"587 420 OFFCURVE",
"587 500 CURVE SMOOTH",
"587 624 OFFCURVE",
"466 718 OFFCURVE",
"302 718 CURVE SMOOTH"
);
},
{
closed = 1;
nodes = (
"347 145 OFFCURVE",
"371 193 OFFCURVE",
"371 287 CURVE",
"371 317 LINE",
"571 317 LINE",
"571 287 LINE",
"571 116 OFFCURVE",
"478 -18 OFFCURVE",
"298 -18 CURVE SMOOTH",
"153 -18 OFFCURVE",
"37 62 OFFCURVE",
"37 178 CURVE SMOOTH",
"37 254 OFFCURVE",
"86 307 OFFCURVE",
"154 307 CURVE SMOOTH",
"214 307 OFFCURVE",
"255 266 OFFCURVE",
"255 194 CURVE",
"239 194 OFFCURVE",
"228 186 OFFCURVE",
"228 174 CURVE SMOOTH",
"228 158 OFFCURVE",
"247 145 OFFCURVE",
"281 145 CURVE SMOOTH"
);
}
);
width = 607;
}
);
unicode = 0039;
},
{
glyphname = eight;
leftMetricsKey = "=O";
rightMetricsKey = "=O";
layers = (
{
layerId = "8cfcb29b-26a6-4086-8457-1c158349f2cd";
paths = (
{
closed = 1;
nodes = (
"496 -17 OFFCURVE",
"621 78 OFFCURVE",
"621 192 CURVE SMOOTH",
"621 318 OFFCURVE",
"470 366 OFFCURVE",
"287 366 CURVE",
"287 291 LINE",
"356 291 OFFCURVE",
"392 252 OFFCURVE",
"392 212 CURVE SMOOTH",
"392 175 OFFCURVE",
"361 144 OFFCURVE",
"307 144 CURVE SMOOTH",
"261 144 OFFCURVE",
"227 167 OFFCURVE",
"227 194 CURVE SMOOTH",
"227 209 OFFCURVE",
"238 226 OFFCURVE",
"256 226 CURVE",
"256 304 OFFCURVE",
"217 353 OFFCURVE",
"142 353 CURVE SMOOTH",
"60 353 OFFCURVE",
"20 293 OFFCURVE",
"20 217 CURVE SMOOTH",
"20 87 OFFCURVE",
"138 -17 OFFCURVE",
"321 -17 CURVE SMOOTH"
);
},
{
closed = 1;
nodes = (
"168 717 OFFCURVE",
"63 636 OFFCURVE",
"63 539 CURVE SMOOTH",
"63 433 OFFCURVE",
"190 393 OFFCURVE",
"345 393 CURVE",
"345 456 LINE",
"287 456 OFFCURVE",
"256 489 OFFCURVE",
"256 523 CURVE SMOOTH",
"256 554 OFFCURVE",
"283 580 OFFCURVE",
"328 580 CURVE SMOOTH",
"367 580 OFFCURVE",
"396 561 OFFCURVE",
"396 537 CURVE SMOOTH",
"396 525 OFFCURVE",
"387 511 OFFCURVE",
"371 511 CURVE",
"371 445 OFFCURVE",
"404 404 OFFCURVE",
"467 404 CURVE SMOOTH",
"537 404 OFFCURVE",
"571 454 OFFCURVE",
"571 518 CURVE SMOOTH",
"571 629 OFFCURVE",
"471 717 OFFCURVE",
"316 717 CURVE SMOOTH"
);
}
);
width = 641;
}
);
unicode = 0038;
},
{
glyphname = seven;
leftMetricsKey = "=V";
rightMetricsKey = "=V";
layers = (
{
layerId = "8cfcb29b-26a6-4086-8457-1c158349f2cd";
paths = (
{
closed = 1;
nodes = (
"10 700 LINE",
"10 423 LINE",
"170 423 LINE",
"170 551 LINE",
"198 470 OFFCURVE",
"279 413 OFFCURVE",
"365 413 CURVE SMOOTH",
"458 413 OFFCURVE",
"532 491 OFFCURVE",
"532 589 CURVE SMOOTH",
"532 663 OFFCURVE",
"489 718 OFFCURVE",
"411 718 CURVE SMOOTH",
"354 718 OFFCURVE",
"306 683 OFFCURVE",
"306 624 CURVE",
"318 624 OFFCURVE",
"329 607 OFFCURVE",
"329 590 CURVE SMOOTH",
"329 567 OFFCURVE",
"306 550 OFFCURVE",
"280 550 CURVE SMOOTH",
"225 550 OFFCURVE",
"170 624 OFFCURVE",
"170 700 CURVE"
);
},
{
closed = 1;
nodes = (
"66 170 LINE",
"66 0 LINE",
"422 0 LINE",
"422 170 LINE",
"416 170 LINE SMOOTH",
"386 170 OFFCURVE",
"372 189 OFFCURVE",
"381 218 CURVE SMOOTH",
"426 361 LINE",
"233 361 LINE",
"183 217 LINE SMOOTH",
"173 189 OFFCURVE",
"146 170 OFFCURVE",
"116 170 CURVE SMOOTH"
);
}
);
width = 542;
}
);
unicode = 0037;
},
{
glyphname = ogonek;
layers = (
{
anchors = (
{
name = _bottom;
position = "{384, -33}";
}
);
layerId = "8cfcb29b-26a6-4086-8457-1c158349f2cd";
paths = (
{
closed = 1;
nodes = (
"193 -167 OFFCURVE",
"204 -177 OFFCURVE",
"218 -177 CURVE SMOOTH",
"228 -177 OFFCURVE",
"239 -171 OFFCURVE",
"239 -151 CURVE",
"307 -151 OFFCURVE",
"344 -183 OFFCURVE",
"344 -237 CURVE SMOOTH",
"344 -307 OFFCURVE",
"283 -339 OFFCURVE",
"201 -339 CURVE SMOOTH",
"86 -339 OFFCURVE",
"25 -277 OFFCURVE",
"25 -203 CURVE SMOOTH",
"25 -91 OFFCURVE",
"163 -33 OFFCURVE",
"384 -33 CURVE",
"384 -89 LINE",
"220 -89 OFFCURVE",
"193 -136 OFFCURVE",
"193 -155 CURVE SMOOTH"
);
}
);
width = 409;
}
);
unicode = 02DB;
},
{
glyphname = Lslash;
leftMetricsKey = "=V";
rightMetricsKey = "=L";
layers = (
{
layerId = "8cfcb29b-26a6-4086-8457-1c158349f2cd";
paths = (
{
closed = 1;
nodes = (
"161 170 LINE",
"167 170 LINE SMOOTH",
"197 170 OFFCURVE",
"217 190 OFFCURVE",
"217 220 CURVE SMOOTH",
"217 480 LINE SMOOTH",
"217 510 OFFCURVE",
"197 530 OFFCURVE",
"167 530 CURVE SMOOTH",
"161 530 LINE",
"161 700 LINE",
"473 700 LINE",
"473 530 LINE",
"467 530 LINE SMOOTH",
"437 530 OFFCURVE",
"417 510 OFFCURVE",
"417 480 CURVE SMOOTH",
"417 0 LINE",
"161 0 LINE"
);
},
{
closed = 1;
nodes = (
"462 0 LINE",
"462 170 LINE",
"538 170 LINE SMOOTH",
"568 170 OFFCURVE",
"588 190 OFFCURVE",
"588 220 CURVE SMOOTH",
"588 285 LINE",
"728 285 LINE",
"728 0 LINE"
);
},
{
closed = 1;
nodes = (
"463 386 LINE",
"488 386 OFFCURVE",
"514 404 OFFCURVE",
"514 423 CURVE SMOOTH",
"514 432 OFFCURVE",
"507 439 OFFCURVE",
"499 439 CURVE SMOOTH",
"496 439 OFFCURVE",
"495 439 OFFCURVE",
"492 438 CURVE",
"490 446 OFFCURVE",
"488 454 OFFCURVE",
"488 461 CURVE SMOOTH",
"488 510 OFFCURVE",
"530 542 OFFCURVE",
"583 542 CURVE SMOOTH",
"643 542 OFFCURVE",
"683 501 OFFCURVE",
"683 440 CURVE SMOOTH",
"683 353 OFFCURVE",
"603 303 OFFCURVE",
"463 303 CURVE"
);
},
{
closed = 1;
nodes = (
"10 339 OFFCURVE",
"110 356 OFFCURVE",
"176 356 CURVE",
"176 294 LINE",
"161 294 OFFCURVE",
"138 282 OFFCURVE",
"138 266 CURVE SMOOTH",
"138 258 OFFCURVE",
"143 254 OFFCURVE",
"150 254 CURVE SMOOTH",
"154 254 LINE",
"155 248 OFFCURVE",
"156 242 OFFCURVE",
"156 236 CURVE SMOOTH",
"156 200 OFFCURVE",
"126 176 OFFCURVE",
"86 176 CURVE SMOOTH",
"40 176 OFFCURVE",
"10 207 OFFCURVE",
"10 253 CURVE SMOOTH"
);
}
);
width = 743;
}
);
unicode = 0141;
},
{
glyphname = zero;
leftMetricsKey = "=O";
rightMetricsKey = "=O";
layers = (
{
anchors = (
{
name = top;
position = "{315, 750}";
}
);
layerId = "8cfcb29b-26a6-4086-8457-1c158349f2cd";
paths = (
{
closed = 1;
nodes = (
"372 234 LINE",
"363 180 OFFCURVE",
"340 145 OFFCURVE",
"300 145 CURVE SMOOTH",
"268 145 OFFCURVE",
"235 168 OFFCURVE",
"235 216 CURVE SMOOTH",
"235 238 OFFCURVE",
"244 256 OFFCURVE",
"259 256 CURVE SMOOTH",
"265 256 OFFCURVE",
"270 254 OFFCURVE",
"273 251 CURVE",
"289 268 OFFCURVE",
"296 286 OFFCURVE",
"296 310 CURVE SMOOTH",
"296 383 OFFCURVE",
"231 428 OFFCURVE",
"162 428 CURVE SMOOTH",
"83 428 OFFCURVE",
"20 368 OFFCURVE",
"20 260 CURVE SMOOTH",
"20 115 OFFCURVE",
"126 -18 OFFCURVE",
"315 -18 CURVE SMOOTH",
"479 -18 OFFCURVE",
"588 71 OFFCURVE",
"605 234 CURVE"
);
},
{
closed = 1;
nodes = (
"264 466 LINE",
"273 520 OFFCURVE",
"296 555 OFFCURVE",
"336 555 CURVE SMOOTH",
"368 555 OFFCURVE",
"401 532 OFFCURVE",
"401 484 CURVE SMOOTH",
"401 462 OFFCURVE",
"392 444 OFFCURVE",
"377 444 CURVE SMOOTH",
"371 444 OFFCURVE",
"366 446 OFFCURVE",
"363 449 CURVE",
"347 432 OFFCURVE",
"340 414 OFFCURVE",
"340 390 CURVE SMOOTH",
"340 317 OFFCURVE",
"405 272 OFFCURVE",
"474 272 CURVE SMOOTH",
"553 272 OFFCURVE",
"616 332 OFFCURVE",
"616 440 CURVE SMOOTH",
"616 585 OFFCURVE",
"510 718 OFFCURVE",
"321 718 CURVE SMOOTH",
"157 718 OFFCURVE",
"48 629 OFFCURVE",
"31 466 CURVE"
);
}
);
width = 636;
}
);
unicode = 0030;
},
{
glyphname = quotesingle;
layers = (
{
layerId = "8cfcb29b-26a6-4086-8457-1c158349f2cd";
paths = (
{
closed = 1;
nodes = (
"25 750 LINE",
"225 750 LINE",
"225 422 LINE",
"25 422 LINE"
);
}
);
width = 250;
}
);
leftKerningGroup = quotedbl_2nd;
rightKerningGroup = quotedbl1_1st;
unicode = 0027;
},
{
glyphname = z;
leftMetricsKey = "=Z";
rightMetricsKey = "=Z";
layers = (
{
anchors = (
{
name = top;
position = "{323, 750}";
}
);
guideLines = (
{
angle = 41.38;
position = "{113, 294}";
showMeasurement = 1;
},
{
angle = 41.38;
position = "{113, 37}";
showMeasurement = 1;
},
{
angle = 90;
position = "{323, 0}";
}
);
layerId = "8cfcb29b-26a6-4086-8457-1c158349f2cd";
paths = (
{
closed = 1;
nodes = (
"25 191 OFFCURVE",
"53 241 OFFCURVE",
"99 282 CURVE SMOOTH",
"361 512 LINE SMOOTH",
"368 518 OFFCURVE",
"374 529 OFFCURVE",
"374 536 CURVE SMOOTH",
"374 549 OFFCURVE",
"365 558 OFFCURVE",
"353 558 CURVE SMOOTH",
"350 558 OFFCURVE",
"346 557 OFFCURVE",
"343 556 CURVE",
"338 572 OFFCURVE",
"336 586 OFFCURVE",
"336 601 CURVE SMOOTH",
"336 670 OFFCURVE",
"393 718 OFFCURVE",
"476 718 CURVE SMOOTH",
"562 718 OFFCURVE",
"620 659 OFFCURVE",
"620 574 CURVE SMOOTH",
"620 515 OFFCURVE",
"592 459 OFFCURVE",
"550 422 CURVE SMOOTH",
"282 186 LINE SMOOTH",
"275 180 OFFCURVE",
"271 172 OFFCURVE",
"271 164 CURVE SMOOTH",
"271 150 OFFCURVE",
"281 144 OFFCURVE",
"293 144 CURVE SMOOTH",
"296 144 OFFCURVE",
"299 144 OFFCURVE",
"302 145 CURVE",
"307 129 OFFCURVE",
"309 114 OFFCURVE",
"309 100 CURVE SMOOTH",
"309 30 OFFCURVE",
"254 -18 OFFCURVE",
"179 -18 CURVE SMOOTH",
"93 -18 OFFCURVE",
"25 51 OFFCURVE",
"25 136 CURVE SMOOTH"
);
},
{
closed = 1;
nodes = (
"223 530 LINE SMOOTH",
"193 530 OFFCURVE",
"173 510 OFFCURVE",
"173 480 CURVE SMOOTH",
"173 465 LINE",
"53 465 LINE",
"53 700 LINE",
"279 700 LINE",
"279 530 LINE"
);
},
{
closed = 1;
nodes = (
"447 170 LINE SMOOTH",
"477 170 OFFCURVE",
"497 190 OFFCURVE",
"497 220 CURVE SMOOTH",
"497 235 LINE",
"617 235 LINE",
"617 0 LINE",
"380 0 LINE",
"380 170 LINE"
);
}
);
width = 645;
}
);
unicode = 007A;
},
{
glyphname = parenleft;
layers = (
{
layerId = "8cfcb29b-26a6-4086-8457-1c158349f2cd";
paths = (
{
closed = 1;
nodes = (
"397 -6 OFFCURVE",
"335 -54 OFFCURVE",
"249 -54 CURVE SMOOTH",
"115 -54 OFFCURVE",
"25 92 OFFCURVE",
"25 359 CURVE SMOOTH",
"25 619 OFFCURVE",
"115 771 OFFCURVE",
"249 771 CURVE SMOOTH",
"335 771 OFFCURVE",
"397 723 OFFCURVE",
"397 649 CURVE SMOOTH",
"397 595 OFFCURVE",
"361 571 OFFCURVE",
"325 571 CURVE SMOOTH",
"311 571 OFFCURVE",
"297 575 OFFCURVE",
"285 583 CURVE",
"288 587 OFFCURVE",
"289 591 OFFCURVE",
"289 595 CURVE SMOOTH",
"289 604 OFFCURVE",
"282 609 OFFCURVE",
"270 609 CURVE SMOOTH",
"224 609 OFFCURVE",
"202 509 OFFCURVE",
"202 359 CURVE SMOOTH",
"202 208 OFFCURVE",
"224 108 OFFCURVE",
"270 108 CURVE SMOOTH",
"282 108 OFFCURVE",
"289 113 OFFCURVE",
"289 122 CURVE SMOOTH",
"289 126 OFFCURVE",
"288 130 OFFCURVE",
"285 134 CURVE",
"297 142 OFFCURVE",
"311 146 OFFCURVE",
"325 146 CURVE SMOOTH",
"361 146 OFFCURVE",
"397 122 OFFCURVE",
"397 68 CURVE SMOOTH"
);
}
);
width = 422;
}
);
unicode = 0028;
},
{
glyphname = dollar;
leftMetricsKey = "=S";
rightMetricsKey = "=S";
layers = (
{
components = (
{
name = S;
alignment = -1;
}
);
layerId = "8cfcb29b-26a6-4086-8457-1c158349f2cd";
paths = (
{
closed = 1;
nodes = (
"207 857 LINE",
"367 857 LINE",
"367 640 LINE",
"207 640 LINE"
);
},
{
closed = 1;
nodes = (
"226 73 LINE",
"386 73 LINE",
"386 -144 LINE",
"226 -144 LINE"
);
}
);
width = 642;
}
);
unicode = 0024;
},
{
glyphname = exclam;
layers = (
{
layerId = "8cfcb29b-26a6-4086-8457-1c158349f2cd";
paths = (
{
closed = 1;
nodes = (
"25 530 LINE",
"31 530 LINE SMOOTH",
"61 530 OFFCURVE",
"81 510 OFFCURVE",
"81 480 CURVE SMOOTH",
"81 278 LINE",
"281 278 LINE",
"281 480 LINE SMOOTH",
"281 510 OFFCURVE",
"301 530 OFFCURVE",
"331 530 CURVE SMOOTH",
"337 530 LINE",
"337 700 LINE",
"25 700 LINE"
);
},
{
closed = 1;
nodes = (
"257 -18 OFFCURVE",
"309 30 OFFCURVE",
"309 102 CURVE SMOOTH",
"309 173 OFFCURVE",
"257 221 OFFCURVE",
"180 221 CURVE SMOOTH",
"102 221 OFFCURVE",
"50 173 OFFCURVE",
"50 102 CURVE SMOOTH",
"50 30 OFFCURVE",
"102 -18 OFFCURVE",
"180 -18 CURVE SMOOTH"
);
}
);
width = 362;
}
);
unicode = 0021;
},
{
glyphname = semicolon;
layers = (
{
layerId = "8cfcb29b-26a6-4086-8457-1c158349f2cd";
paths = (
{
closed = 1;
nodes = (
"28 373 OFFCURVE",
"80 325 OFFCURVE",
"158 325 CURVE SMOOTH",
"235 325 OFFCURVE",
"287 373 OFFCURVE",
"287 445 CURVE SMOOTH",
"287 516 OFFCURVE",
"235 564 OFFCURVE",
"158 564 CURVE SMOOTH",
"80 564 OFFCURVE",
"28 516 OFFCURVE",
"28 445 CURVE SMOOTH"
);
},
{
closed = 1;
nodes = (
"218 -128 LINE",
"271 -58 OFFCURVE",
"298 -15 OFFCURVE",
"298 54 CURVE SMOOTH",
"298 143 OFFCURVE",
"253 221 OFFCURVE",
"151 221 CURVE SMOOTH",
"75 221 OFFCURVE",
"25 174 OFFCURVE",
"25 114 CURVE SMOOTH",
"25 78 OFFCURVE",
"43 43 OFFCURVE",
"83 28 CURVE",
"92 45 OFFCURVE",
"104 54 OFFCURVE",
"118 54 CURVE SMOOTH",
"140 54 OFFCURVE",
"152 33 OFFCURVE",
"152 -6 CURVE SMOOTH",
"152 -68 OFFCURVE",
"122 -113 OFFCURVE",
"112 -128 CURVE"
);
}
);
width = 323;
}
);
unicode = 003B;
},
{
glyphname = hyphen;
leftMetricsKey = "=minus";
rightMetricsKey = "=minus";
layers = (
{
layerId = "8cfcb29b-26a6-4086-8457-1c158349f2cd";
paths = (
{
closed = 1;
nodes = (
"25 268 LINE",
"254 268 LINE",
"254 433 LINE",
"25 433 LINE"
);
}
);
width = 279;
}
);
leftKerningGroup = minus_2nd;
rightKerningGroup = minus1_1st;
unicode = 002D;
},
{
glyphname = plus;
layers = (
{
layerId = "8cfcb29b-26a6-4086-8457-1c158349f2cd";
paths = (
{
closed = 1;
nodes = (
"25 433 LINE",
"25 268 LINE",
"165 268 LINE",
"165 128 LINE",
"342 128 LINE",
"342 268 LINE",
"482 268 LINE",
"482 433 LINE",
"342 433 LINE",
"342 573 LINE",
"165 573 LINE",
"165 433 LINE"
);
}
);
width = 507;
}
);
unicode = 002B;
},
{
glyphname = asterisk;
layers = (
{
layerId = "8cfcb29b-26a6-4086-8457-1c158349f2cd";
paths = (
{
closed = 1;
nodes = (
"125 433 OFFCURVE",
"144 441 OFFCURVE",
"159 459 CURVE",
"151 467 OFFCURVE",
"147 476 OFFCURVE",
"147 484 CURVE SMOOTH",
"147 500 OFFCURVE",
"159 507 OFFCURVE",
"174 507 CURVE SMOOTH",
"203 507 OFFCURVE",
"240 485 OFFCURVE",
"260 465 CURVE",
"185 442 OFFCURVE",
"105 394 OFFCURVE",
"105 314 CURVE SMOOTH",
"105 248 OFFCURVE",
"160 198 OFFCURVE",
"214 198 CURVE SMOOTH",
"258 198 OFFCURVE",
"293 231 OFFCURVE",
"293 273 CURVE SMOOTH",
"293 285 OFFCURVE",
"290 298 OFFCURVE",
"282 310 CURVE",
"275 306 OFFCURVE",
"268 305 OFFCURVE",
"263 305 CURVE SMOOTH",
"250 305 OFFCURVE",
"240 313 OFFCURVE",
"240 327 CURVE SMOOTH",
"240 358 OFFCURVE",
"283 395 OFFCURVE",
"308 408 CURVE",
"308 346 OFFCURVE",
"310 308 OFFCURVE",
"340 267 CURVE SMOOTH",
"366 231 OFFCURVE",
"402 207 OFFCURVE",
"440 207 CURVE SMOOTH",
"494 207 OFFCURVE",
"552 254 OFFCURVE",
"552 308 CURVE SMOOTH",
"552 346 OFFCURVE",
"521 383 OFFCURVE",
"482 383 CURVE SMOOTH",
"476 383 OFFCURVE",
"469 382 OFFCURVE",
"462 380 CURVE",
"462 365 OFFCURVE",
"461 344 OFFCURVE",
"440 344 CURVE SMOOTH",
"409 344 OFFCURVE",
"383 391 OFFCURVE",
"377 435 CURVE",
"414 422 OFFCURVE",
"442 415 OFFCURVE",
"469 415 CURVE SMOOTH",
"535 415 OFFCURVE",
"614 458 OFFCURVE",
"614 533 CURVE SMOOTH",
"614 589 OFFCURVE",
"571 641 OFFCURVE",
"521 641 CURVE SMOOTH",
"485 641 OFFCURVE",
"452 613 OFFCURVE",
"450 574 CURVE",
"466 571 OFFCURVE",
"478 564 OFFCURVE",
"478 551 CURVE SMOOTH",
"478 527 OFFCURVE",
"437 508 OFFCURVE",
"396 508 CURVE SMOOTH",
"386 508 OFFCURVE",
"378 509 OFFCURVE",
"371 510 CURVE",
"409 559 OFFCURVE",
"428 591 OFFCURVE",
"428 642 CURVE SMOOTH",
"428 711 OFFCURVE",
"393 771 OFFCURVE",
"317 771 CURVE SMOOTH",
"257 771 OFFCURVE",
"218 734 OFFCURVE",
"218 688 CURVE SMOOTH",
"218 661 OFFCURVE",
"232 634 OFFCURVE",
"263 622 CURVE",
"270 635 OFFCURVE",
"279 642 OFFCURVE",
"290 642 CURVE SMOOTH",
"307 642 OFFCURVE",
"316 626 OFFCURVE",
"316 596 CURVE SMOOTH",
"316 568 OFFCURVE",
"308 545 OFFCURVE",
"300 528 CURVE",
"258 588 OFFCURVE",
"215 631 OFFCURVE",
"146 631 CURVE SMOOTH",
"72 631 OFFCURVE",
"28 582 OFFCURVE",
"28 521 CURVE SMOOTH",
"28 474 OFFCURVE",
"54 433 OFFCURVE",
"103 433 CURVE SMOOTH"
);
}
);
width = 642;
}
);
unicode = 002A;
},
{
glyphname = asciicircum;
leftMetricsKey = "=25";
rightMetricsKey = "=25";
layers = (
{
layerId = "8cfcb29b-26a6-4086-8457-1c158349f2cd";
paths = (
{
closed = 1;
nodes = (
"25 259 OFFCURVE",
"81 201 OFFCURVE",
"152 201 CURVE SMOOTH",
"206 201 OFFCURVE",
"252 234 OFFCURVE",
"252 289 CURVE SMOOTH",
"252 314 OFFCURVE",
"242 330 OFFCURVE",
"234 337 CURVE",
"229 332 OFFCURVE",
"223 330 OFFCURVE",
"217 330 CURVE SMOOTH",
"203 330 OFFCURVE",
"190 340 OFFCURVE",
"190 367 CURVE SMOOTH",
"190 416 OFFCURVE",
"235 511 OFFCURVE",
"303 587 CURVE",
"371 511 OFFCURVE",
"416 416 OFFCURVE",
"416 367 CURVE SMOOTH",
"416 340 OFFCURVE",
"403 330 OFFCURVE",
"389 330 CURVE SMOOTH",
"383 330 OFFCURVE",
"377 332 OFFCURVE",
"372 337 CURVE",
"364 330 OFFCURVE",
"354 314 OFFCURVE",
"354 289 CURVE SMOOTH",
"354 234 OFFCURVE",
"400 201 OFFCURVE",
"454 201 CURVE SMOOTH",
"525 201 OFFCURVE",
"581 259 OFFCURVE",
"581 345 CURVE SMOOTH",
"581 496 OFFCURVE",
"411 687 OFFCURVE",
"303 771 CURVE",
"195 687 OFFCURVE",
"25 496 OFFCURVE",
"25 345 CURVE SMOOTH"
);
}
);
width = 606;
}
);
unicode = 005E;
},
{
glyphname = tilde;
layers = (
{
anchors = (
{
name = _top;
position = "{316, 220}";
}
);
guideLines = (
{
angle = 90;
position = "{316, 0}";
showMeasurement = 1;
}
);
layerId = "8cfcb29b-26a6-4086-8457-1c158349f2cd";
paths = (
{
closed = 1;
nodes = (
"224 474 OFFCURVE",
"257 459 OFFCURVE",
"321 418 CURVE SMOOTH",
"364 390 OFFCURVE",
"387 378 OFFCURVE",
"411 378 CURVE SMOOTH",
"432 378 OFFCURVE",
"448 387 OFFCURVE",
"448 403 CURVE SMOOTH",
"448 412 OFFCURVE",
"443 421 OFFCURVE",
"426 427 CURVE",
"440 467 OFFCURVE",
"472 485 OFFCURVE",
"506 485 CURVE SMOOTH",
"561 485 OFFCURVE",
"606 438 OFFCURVE",
"606 373 CURVE SMOOTH",
"606 291 OFFCURVE",
"536 227 OFFCURVE",
"446 227 CURVE SMOOTH",
"398 227 OFFCURVE",
"351 245 OFFCURVE",
"300 285 CURVE SMOOTH",
"278 302 OFFCURVE",
"253 318 OFFCURVE",
"224 318 CURVE SMOOTH",
"201 318 OFFCURVE",
"184 308 OFFCURVE",
"184 292 CURVE SMOOTH",
"184 284 OFFCURVE",
"189 275 OFFCURVE",
"206 269 CURVE",
"192 229 OFFCURVE",
"160 211 OFFCURVE",
"126 211 CURVE SMOOTH",
"70 211 OFFCURVE",
"25 259 OFFCURVE",
"25 325 CURVE SMOOTH",
"25 408 OFFCURVE",
"95 474 OFFCURVE",
"182 474 CURVE SMOOTH"
);
}
);
width = 631;
}
);
unicode = 02DC;
},
{
glyphname = slash;
leftMetricsKey = "=V";
rightMetricsKey = "=V";
layers = (
{
layerId = "8cfcb29b-26a6-4086-8457-1c158349f2cd";
paths = (
{
closed = 1;
nodes = (
"10 -54 LINE",
"204 -54 LINE",
"389 747 LINE",
"195 747 LINE"
);
}
);
width = 399;
}
);
unicode = 002F;
},
{
glyphname = less;
layers = (
{
layerId = "8cfcb29b-26a6-4086-8457-1c158349f2cd";
paths = (
{
closed = 1;
nodes = (
"25 248 OFFCURVE",
"69 208 OFFCURVE",
"123 208 CURVE SMOOTH",
"173 208 OFFCURVE",
"214 242 OFFCURVE",
"214 294 CURVE",
"204 294 OFFCURVE",
"197 299 OFFCURVE",
"197 308 CURVE SMOOTH",
"197 316 OFFCURVE",
"203 323 OFFCURVE",
"211 326 CURVE SMOOTH",
"427 425 LINE SMOOTH",
"473 446 OFFCURVE",
"507 485 OFFCURVE",
"507 539 CURVE SMOOTH",
"507 593 OFFCURVE",
"472 641 OFFCURVE",
"414 641 CURVE SMOOTH",
"365 641 OFFCURVE",
"321 607 OFFCURVE",
"321 554 CURVE",
"329 554 OFFCURVE",
"339 549 OFFCURVE",
"339 540 CURVE SMOOTH",
"339 533 OFFCURVE",
"332 526 OFFCURVE",
"325 523 CURVE SMOOTH",
"104 422 LINE SMOOTH",
"60 402 OFFCURVE",
"25 354 OFFCURVE",
"25 305 CURVE SMOOTH"
);
},
{
closed = 1;
nodes = (
"195 153 LINE",
"331 75 LINE SMOOTH",
"351 64 OFFCURVE",
"375 57 OFFCURVE",
"400 57 CURVE SMOOTH",
"461 57 OFFCURVE",
"507 99 OFFCURVE",
"507 157 CURVE SMOOTH",
"507 211 OFFCURVE",
"467 254 OFFCURVE",
"416 254 CURVE SMOOTH",
"401 254 OFFCURVE",
"385 250 OFFCURVE",
"371 239 CURVE",
"374 235 OFFCURVE",
"376 231 OFFCURVE",
"376 227 CURVE SMOOTH",
"376 219 OFFCURVE",
"368 215 OFFCURVE",
"360 215 CURVE",
"359 215 OFFCURVE",
"352 215 OFFCURVE",
"346 218 CURVE SMOOTH",
"260 268 LINE"
);
}
);
width = 532;
}
);
unicode = 003C;
},
{
glyphname = equal;
leftMetricsKey = "=minus";
rightMetricsKey = "=minus";
layers = (
{
layerId = "8cfcb29b-26a6-4086-8457-1c158349f2cd";
paths = (
{
closed = 1;
nodes = (
"25 156 LINE",
"482 156 LINE",
"482 321 LINE",
"25 321 LINE"
);
},
{
closed = 1;
nodes = (
"25 536 LINE",
"25 371 LINE",
"482 371 LINE",
"482 536 LINE"
);
}
);
width = 507;
}
);
unicode = 003D;
},
{
glyphname = numbersign;
layers = (
{
guideLines = (
{
angle = 257.08;
position = "{377, 383}";
showMeasurement = 1;
},
{
angle = 257.08;
position = "{430, 383}";
showMeasurement = 1;
},
{
position = "{0, 526}";
},
{
angle = 257.08;
position = "{502, 383}";
showMeasurement = 1;
}
);
layerId = "8cfcb29b-26a6-4086-8457-1c158349f2cd";
paths = (
{
closed = 1;
nodes = (
"387 190 LINE",
"458 190 LINE",
"452 169 OFFCURVE",
"445 131 OFFCURVE",
"445 101 CURVE SMOOTH",
"445 18 OFFCURVE",
"497 -54 OFFCURVE",
"591 -54 CURVE SMOOTH",
"668 -54 OFFCURVE",
"731 -5 OFFCURVE",
"731 80 CURVE SMOOTH",
"731 125 OFFCURVE",
"713 150 OFFCURVE",
"688 164 CURVE",
"684 156 OFFCURVE",
"674 148 OFFCURVE",
"663 148 CURVE SMOOTH",
"652 148 OFFCURVE",
"644 156 OFFCURVE",
"644 168 CURVE SMOOTH",
"644 173 OFFCURVE",
"646 182 OFFCURVE",
"649 190 CURVE",
"764 190 LINE",
"796 327 LINE",
"682 327 LINE",
"697 390 LINE",
"811 390 LINE",
"843 526 LINE",
"729 526 LINE",
"780 747 LINE",
"586 747 LINE",
"490 327 LINE",
"417 327 LINE"
);
},
{
closed = 1;
nodes = (
"139 190 LINE",
"88 -31 LINE",
"282 -31 LINE",
"378 389 LINE",
"451 389 LINE",
"481 526 LINE",
"409 526 LINE",
"415 547 OFFCURVE",
"422 585 OFFCURVE",
"422 615 CURVE SMOOTH",
"422 698 OFFCURVE",
"370 770 OFFCURVE",
"276 770 CURVE SMOOTH",
"199 770 OFFCURVE",
"136 721 OFFCURVE",
"136 636 CURVE SMOOTH",
"136 591 OFFCURVE",
"154 566 OFFCURVE",
"179 552 CURVE",
"183 560 OFFCURVE",
"193 568 OFFCURVE",
"204 568 CURVE SMOOTH",
"215 568 OFFCURVE",
"223 560 OFFCURVE",
"223 548 CURVE SMOOTH",
"223 543 OFFCURVE",
"221 534 OFFCURVE",
"218 526 CURVE",
"104 526 LINE",
"72 389 LINE",
"186 389 LINE",
"171 326 LINE",
"57 326 LINE",
"25 190 LINE"
);
}
);
width = 868;
}
);
unicode = 0023;
},
{
glyphname = percent;
layers = (
{
components = (
{
name = zero;
transform = "{0.543, 0, 0, 0.543, 29.196, 328.165}";
alignment = -1;
},
{
name = zero;
transform = "{0.543, 0, 0, 0.543, 532.174, -8.227}";
alignment = -1;
}
);
layerId = "8cfcb29b-26a6-4086-8457-1c158349f2cd";
paths = (
{
closed = 1;
nodes = (
"168 0 LINE",
"362 0 LINE",
"751 699 LINE",
"557 699 LINE"
);
}
);
width = 931;
}
);
unicode = 0025;
},
{
glyphname = braceleft;
leftMetricsKey = "=V";
rightMetricsKey = "=K";
layers = (
{
guideLines = (
{
position = "{0, 358}";
}
);
layerId = "8cfcb29b-26a6-4086-8457-1c158349f2cd";
paths = (
{
closed = 1;
nodes = (
"10 418 LINE",
"10 286 LINE",
"100 286 LINE SMOOTH",
"207 286 OFFCURVE",
"277 352 OFFCURVE",
"277 434 CURVE SMOOTH",
"277 576 OFFCURVE",
"292 619 OFFCURVE",
"334 619 CURVE SMOOTH",
"352 619 OFFCURVE",
"364 611 OFFCURVE",
"364 598 CURVE SMOOTH",
"364 594 OFFCURVE",
"362 587 OFFCURVE",
"359 583 CURVE",
"371 575 OFFCURVE",
"385 571 OFFCURVE",
"399 571 CURVE SMOOTH",
"435 571 OFFCURVE",
"471 595 OFFCURVE",
"471 650 CURVE SMOOTH",
"471 723 OFFCURVE",
"409 771 OFFCURVE",
"323 771 CURVE SMOOTH",
"189 771 OFFCURVE",
"103 681 OFFCURVE",
"103 478 CURVE SMOOTH",
"103 440 OFFCURVE",
"84 418 OFFCURVE",
"25 418 CURVE SMOOTH"
);
},
{
closed = 1;
nodes = (
"103 261 LINE",
"103 43 OFFCURVE",
"182 -54 OFFCURVE",
"323 -54 CURVE SMOOTH",
"409 -54 OFFCURVE",
"471 -6 OFFCURVE",
"471 67 CURVE SMOOTH",
"471 122 OFFCURVE",
"435 146 OFFCURVE",
"399 146 CURVE SMOOTH",
"385 146 OFFCURVE",
"371 142 OFFCURVE",
"359 134 CURVE",
"362 130 OFFCURVE",
"364 123 OFFCURVE",
"364 119 CURVE SMOOTH",
"364 106 OFFCURVE",
"352 98 OFFCURVE",
"334 98 CURVE SMOOTH",
"292 98 OFFCURVE",
"277 140 OFFCURVE",
"277 261 CURVE"
);
}
);
width = 481;
}
);
unicode = 007B;
},
{
glyphname = bar;
leftMetricsKey = "=I-8";
rightMetricsKey = "=I-8";
layers = (
{
layerId = "8cfcb29b-26a6-4086-8457-1c158349f2cd";
paths = (
{
closed = 1;
nodes = (
"22 751 LINE",
"22 -34 LINE",
"222 -34 LINE",
"222 751 LINE"
);
}
);
width = 244;
}
);
unicode = 007C;
},
{
glyphname = quoteleft;
layers = (
{
layerId = "8cfcb29b-26a6-4086-8457-1c158349f2cd";
paths = (
{
closed = 1;
nodes = (
"105 750 LINE",
"52 680 OFFCURVE",
"25 627 OFFCURVE",
"25 548 CURVE SMOOTH",
"25 458 OFFCURVE",
"81 401 OFFCURVE",
"170 401 CURVE SMOOTH",
"248 401 OFFCURVE",
"298 448 OFFCURVE",
"298 508 CURVE SMOOTH",
"298 544 OFFCURVE",
"280 579 OFFCURVE",
"240 594 CURVE",
"231 577 OFFCURVE",
"219 568 OFFCURVE",
"205 568 CURVE SMOOTH",
"183 568 OFFCURVE",
"171 589 OFFCURVE",
"171 628 CURVE SMOOTH",
"171 690 OFFCURVE",
"201 735 OFFCURVE",
"211 750 CURVE"
);
}
);
width = 318;
}
);
unicode = 2018;
},
{
glyphname = quoteright;
layers = (
{
anchors = (
{
name = top;
position = "{107, 422}";
}
);
layerId = "8cfcb29b-26a6-4086-8457-1c158349f2cd";
paths = (
{
closed = 1;
nodes = (
"213 422 LINE",
"266 492 OFFCURVE",
"293 545 OFFCURVE",
"293 624 CURVE SMOOTH",
"293 714 OFFCURVE",
"237 771 OFFCURVE",
"148 771 CURVE SMOOTH",
"70 771 OFFCURVE",
"20 724 OFFCURVE",
"20 664 CURVE SMOOTH",
"20 628 OFFCURVE",
"38 593 OFFCURVE",
"78 578 CURVE",
"87 595 OFFCURVE",
"99 604 OFFCURVE",
"113 604 CURVE SMOOTH",
"135 604 OFFCURVE",
"147 583 OFFCURVE",
"147 544 CURVE SMOOTH",
"147 482 OFFCURVE",
"117 437 OFFCURVE",
"107 422 CURVE"
);
}
);
width = 318;
}
);
leftKerningGroup = quoteright_2nd;
unicode = 2019;
},
{
glyphname = quotesinglbase;
layers = (
{
layerId = "8cfcb29b-26a6-4086-8457-1c158349f2cd";
paths = (
{
closed = 1;
nodes = (
"213 -128 LINE",
"266 -58 OFFCURVE",
"293 -15 OFFCURVE",
"293 54 CURVE SMOOTH",
"293 143 OFFCURVE",
"248 221 OFFCURVE",
"148 221 CURVE SMOOTH",
"70 221 OFFCURVE",
"20 174 OFFCURVE",
"20 114 CURVE SMOOTH",
"20 78 OFFCURVE",
"38 43 OFFCURVE",
"78 28 CURVE",
"87 45 OFFCURVE",
"99 54 OFFCURVE",
"113 54 CURVE SMOOTH",
"135 54 OFFCURVE",
"147 33 OFFCURVE",
"147 -6 CURVE SMOOTH",
"147 -68 OFFCURVE",
"117 -113 OFFCURVE",
"107 -128 CURVE"
);
}
);
width = 318;
}
);
leftKerningGroup = quotedblbase_2nd;
rightKerningGroup = quotedblbase1_1st;
unicode = 201A;
},
{
glyphname = bullet;
layers = (
{
layerId = "8cfcb29b-26a6-4086-8457-1c158349f2cd";
paths = (
{
closed = 1;
nodes = (
"207 277 OFFCURVE",
"211 248 OFFCURVE",
"257 248 CURVE SMOOTH",
"281 248 OFFCURVE",
"316 255 OFFCURVE",
"367 277 CURVE",
"389 209 LINE",
"330 181 OFFCURVE",
"276 168 OFFCURVE",
"229 168 CURVE SMOOTH",
"101 168 OFFCURVE",
"25 260 OFFCURVE",
"25 351 CURVE SMOOTH",
"25 462 OFFCURVE",
"109 532 OFFCURVE",
"212 532 CURVE SMOOTH",
"298 532 OFFCURVE",
"376 484 OFFCURVE",
"376 399 CURVE SMOOTH",
"376 328 OFFCURVE",
"327 288 OFFCURVE",
"259 288 CURVE",
"259 311 OFFCURVE",
"246 316 OFFCURVE",
"235 316 CURVE SMOOTH",
"221 316 OFFCURVE",
"207 307 OFFCURVE",
"207 287 CURVE SMOOTH"
);
}
);
width = 414;
}
);
unicode = 2022;
},
{
glyphname = emdash;
leftMetricsKey = "=endash";
rightMetricsKey = "=endash";
layers = (
{
layerId = "8cfcb29b-26a6-4086-8457-1c158349f2cd";
paths = (
{
closed = 1;
nodes = (
"25 268 LINE",
"939 268 LINE",
"939 433 LINE",
"25 433 LINE"
);
}
);
width = 964;
}
);
leftKerningGroup = minus_2nd;
rightKerningGroup = minus1_1st;
unicode = 2014;
},
{
glyphname = minus;
leftMetricsKey = "=25";
rightMetricsKey = "=25";
layers = (
{
layerId = "8cfcb29b-26a6-4086-8457-1c158349f2cd";
paths = (
{
closed = 1;
nodes = (
"25 268 LINE",
"482 268 LINE",
"482 433 LINE",
"25 433 LINE"
);
}
);
width = 507;
}
);
leftKerningGroup = minus_2nd;
rightKerningGroup = minus1_1st;
unicode = 2212;
},
{
glyphname = plusminus;
leftMetricsKey = "=I-8";
rightMetricsKey = "=I-8";
layers = (
{
layerId = "8cfcb29b-26a6-4086-8457-1c158349f2cd";
paths = (
{
closed = 1;
nodes = (
"22 368 LINE",
"162 368 LINE",
"162 228 LINE",
"339 228 LINE",
"339 368 LINE",
"479 368 LINE",
"479 533 LINE",
"339 533 LINE",
"339 673 LINE",
"162 673 LINE",
"162 533 LINE",
"22 533 LINE"
);
},
{
closed = 1;
nodes = (
"22 27 LINE",
"479 27 LINE",
"479 192 LINE",
"22 192 LINE"
);
}
);
width = 501;
}
);
unicode = 00B1;
},
{
glyphname = multiply;
leftMetricsKey = "=V";
rightMetricsKey = "=V";
layers = (
{
layerId = "8cfcb29b-26a6-4086-8457-1c158349f2cd";
paths = (
{
closed = 1;
nodes = (
"113 573 LINE",
"233 453 LINE",
"353 573 LINE",
"455 471 LINE",
"335 351 LINE",
"455 231 LINE",
"353 128 LINE",
"233 248 LINE",
"113 128 LINE",
"10 231 LINE",
"130 351 LINE",
"10 471 LINE"
);
}
);
width = 465;
}
);
unicode = 00D7;
},
{
glyphname = divide;
leftMetricsKey = "=minus";
rightMetricsKey = "=minus";
layers = (
{
layerId = "8cfcb29b-26a6-4086-8457-1c158349f2cd";
paths = (
{
closed = 1;
nodes = (
"25 268 LINE",
"522 268 LINE",
"522 433 LINE",
"25 433 LINE"
);
},
{
closed = 1;
nodes = (
"390 624 OFFCURVE",
"346 665 OFFCURVE",
"279 665 CURVE SMOOTH",
"212 665 OFFCURVE",
"168 624 OFFCURVE",
"168 562 CURVE SMOOTH",
"168 501 OFFCURVE",
"212 459 OFFCURVE",
"279 459 CURVE SMOOTH",
"346 459 OFFCURVE",
"390 501 OFFCURVE",
"390 562 CURVE SMOOTH"
);
},
{
closed = 1;
nodes = (
"390 199 OFFCURVE",
"346 240 OFFCURVE",
"279 240 CURVE SMOOTH",
"212 240 OFFCURVE",
"168 199 OFFCURVE",
"168 137 CURVE SMOOTH",
"168 76 OFFCURVE",
"212 35 OFFCURVE",
"279 35 CURVE SMOOTH",
"346 35 OFFCURVE",
"390 76 OFFCURVE",
"390 137 CURVE SMOOTH"
);
}
);
width = 547;
}
);
unicode = 00F7;
},
{
glyphname = brokenbar;
leftMetricsKey = "=I-8";
rightMetricsKey = "=I-8";
layers = (
{
layerId = "8cfcb29b-26a6-4086-8457-1c158349f2cd";
paths = (
{
closed = 1;
nodes = (
"22 -43 LINE",
"222 -43 LINE",
"222 320 LINE",
"22 320 LINE"
);
},
{
closed = 1;
nodes = (
"22 380 LINE",
"222 380 LINE",
"222 743 LINE",
"22 743 LINE"
);
}
);
width = 244;
}
);
unicode = 00A6;
},
{
glyphname = comma;
layers = (
{
layerId = "8cfcb29b-26a6-4086-8457-1c158349f2cd";
paths = (
{
closed = 1;
nodes = (
"218 -128 LINE",
"271 -58 OFFCURVE",
"298 -15 OFFCURVE",
"298 54 CURVE SMOOTH",
"298 143 OFFCURVE",
"253 221 OFFCURVE",
"153 221 CURVE SMOOTH",
"75 221 OFFCURVE",
"25 174 OFFCURVE",
"25 114 CURVE SMOOTH",
"25 78 OFFCURVE",
"43 43 OFFCURVE",
"83 28 CURVE",
"92 45 OFFCURVE",
"104 54 OFFCURVE",
"118 54 CURVE SMOOTH",
"140 54 OFFCURVE",
"159 33 OFFCURVE",
"159 -4 CURVE SMOOTH",
"159 -39 OFFCURVE",
"142 -83 OFFCURVE",
"112 -128 CURVE"
);
}
);
width = 323;
}
);
unicode = 002C;
},
{
glyphname = asciitilde;
leftMetricsKey = "=V";
rightMetricsKey = "=V";
layers = (
{
layerId = "8cfcb29b-26a6-4086-8457-1c158349f2cd";
paths = (
{
closed = 1;
nodes = (
"209 476 OFFCURVE",
"242 461 OFFCURVE",
"306 420 CURVE SMOOTH",
"349 392 OFFCURVE",
"372 380 OFFCURVE",
"396 380 CURVE SMOOTH",
"417 380 OFFCURVE",
"433 389 OFFCURVE",
"433 405 CURVE SMOOTH",
"433 414 OFFCURVE",
"428 423 OFFCURVE",
"411 429 CURVE",
"425 469 OFFCURVE",
"457 487 OFFCURVE",
"491 487 CURVE SMOOTH",
"546 487 OFFCURVE",
"591 440 OFFCURVE",
"591 375 CURVE SMOOTH",
"591 293 OFFCURVE",
"521 229 OFFCURVE",
"431 229 CURVE SMOOTH",
"383 229 OFFCURVE",
"336 247 OFFCURVE",
"285 287 CURVE SMOOTH",
"263 304 OFFCURVE",
"238 320 OFFCURVE",
"209 320 CURVE SMOOTH",
"186 320 OFFCURVE",
"169 310 OFFCURVE",
"169 294 CURVE SMOOTH",
"169 286 OFFCURVE",
"174 277 OFFCURVE",
"191 271 CURVE",
"177 231 OFFCURVE",
"145 213 OFFCURVE",
"111 213 CURVE SMOOTH",
"55 213 OFFCURVE",
"10 261 OFFCURVE",
"10 327 CURVE SMOOTH",
"10 410 OFFCURVE",
"80 476 OFFCURVE",
"167 476 CURVE SMOOTH"
);
}
);
width = 601;
}
);
unicode = 007E;
},
{
glyphname = ampersand.ss01;
leftMetricsKey = "=E";
rightMetricsKey = "=E";
layers = (
{
layerId = "8cfcb29b-26a6-4086-8457-1c158349f2cd";
paths = (
{
closed = 1;
nodes = (
"715 402 OFFCURVE",
"808 432 OFFCURVE",
"808 486 CURVE SMOOTH",
"808 503 OFFCURVE",
"799 513 OFFCURVE",
"785 513 CURVE SMOOTH",
"774 513 OFFCURVE",
"762 506 OFFCURVE",
"762 487 CURVE",
"701 487 OFFCURVE",
"657 523 OFFCURVE",
"657 590 CURVE SMOOTH",
"657 681 OFFCURVE",
"740 718 OFFCURVE",
"820 718 CURVE SMOOTH",
"923 718 OFFCURVE",
"1016 655 OFFCURVE",
"1016 544 CURVE SMOOTH",
"1016 327 OFFCURVE",
"661 316 OFFCURVE",
"541 309 CURVE SMOOTH",
"338 296 OFFCURVE",
"262 260 OFFCURVE",
"262 212 CURVE SMOOTH",
"262 183 OFFCURVE",
"289 164 OFFCURVE",
"330 164 CURVE SMOOTH",
"372 164 OFFCURVE",
"431 184 OFFCURVE",
"436 253 CURVE",
"628 253 LINE",
"628 63 OFFCURVE",
"492 -18 OFFCURVE",
"299 -18 CURVE SMOOTH",
"107 -18 OFFCURVE",
"25 62 OFFCURVE",
"25 158 CURVE SMOOTH",
"25 302 OFFCURVE",
"210 380 OFFCURVE",
"524 394 CURVE SMOOTH"
);
},
{
closed = 1;
nodes = (
"299 718 OFFCURVE",
"400 691 OFFCURVE",
"436 583 CURVE",
"436 700 LINE",
"596 700 LINE",
"596 451 LINE",
"436 451 LINE",
"436 494 OFFCURVE",
"394 554 OFFCURVE",
"331 554 CURVE SMOOTH",
"295 554 OFFCURVE",
"268 535 OFFCURVE",
"268 508 CURVE SMOOTH",
"268 490 OFFCURVE",
"280 474 OFFCURVE",
"292 474 CURVE",
"292 412 OFFCURVE",
"236 378 OFFCURVE",
"171 378 CURVE SMOOTH",
"84 378 OFFCURVE",
"25 440 OFFCURVE",
"25 525 CURVE SMOOTH",
"25 631 OFFCURVE",
"115 718 OFFCURVE",
"233 718 CURVE SMOOTH"
);
},
{
closed = 1;
nodes = (
"714 0 LINE",
"714 253 LINE",
"914 253 LINE",
"914 220 LINE SMOOTH",
"914 190 OFFCURVE",
"934 170 OFFCURVE",
"964 170 CURVE SMOOTH",
"970 170 LINE",
"970 0 LINE"
);
}
);
width = 1036;
}
);
},
{
glyphname = grave;
layers = (
{
anchors = (
{
name = _top;
position = "{209, 750}";
}
);
guideLines = (
{
angle = 90;
position = "{209, 0}";
}
);
layerId = "8cfcb29b-26a6-4086-8457-1c158349f2cd";
paths = (
{
closed = 1;
nodes = (
"364 750 LINE",
"158 750 OFFCURVE",
"45 821 OFFCURVE",
"45 946 CURVE SMOOTH",
"45 1031 OFFCURVE",
"98 1085 OFFCURVE",
"172 1085 CURVE SMOOTH",
"238 1085 OFFCURVE",
"291 1041 OFFCURVE",
"291 988 CURVE SMOOTH",
"291 969 OFFCURVE",
"283 951 OFFCURVE",
"269 938 CURVE",
"264 943 OFFCURVE",
"259 945 OFFCURVE",
"253 945 CURVE SMOOTH",
"236 945 OFFCURVE",
"223 928 OFFCURVE",
"223 905 CURVE SMOOTH",
"223 858 OFFCURVE",
"280 825 OFFCURVE",
"364 825 CURVE"
);
}
);
width = 417;
}
);
unicode = 0060;
},
{
glyphname = trademark;
leftMetricsKey = "=T";
rightMetricsKey = "=M";
layers = (
{
layerId = "8cfcb29b-26a6-4086-8457-1c158349f2cd";
paths = (
{
closed = 1;
nodes = (
"10 713 LINE",
"267 713 LINE SMOOTH",
"278 713 OFFCURVE",
"282 716 OFFCURVE",
"282 723 CURVE SMOOTH",
"282 728 OFFCURVE",
"278 733 OFFCURVE",
"275 736 CURVE",
"298 760 OFFCURVE",
"320 771 OFFCURVE",
"345 771 CURVE SMOOTH",
"392 771 OFFCURVE",
"424 729 OFFCURVE",
"424 683 CURVE SMOOTH",
"424 630 OFFCURVE",
"384 592 OFFCURVE",
"328 592 CURVE SMOOTH",
"131 592 LINE SMOOTH",
"110 592 OFFCURVE",
"96 578 OFFCURVE",
"96 556 CURVE SMOOTH",
"96 527 LINE",
"10 527 LINE"
);
},
{
closed = 1;
nodes = (
"104 214 LINE",
"104 335 LINE",
"108 335 LINE SMOOTH",
"130 335 OFFCURVE",
"144 350 OFFCURVE",
"144 370 CURVE SMOOTH",
"144 539 LINE",
"287 539 LINE",
"287 370 LINE SMOOTH",
"287 350 OFFCURVE",
"301 335 OFFCURVE",
"322 335 CURVE SMOOTH",
"327 335 LINE",
"327 214 LINE"
);
},
{
closed = 1;
nodes = (
"1133 714 LINE",
"1133 593 LINE",
"1129 593 LINE SMOOTH",
"1107 593 OFFCURVE",
"1093 579 OFFCURVE",
"1093 557 CURVE SMOOTH",
"1093 372 LINE SMOOTH",
"1093 350 OFFCURVE",
"1107 336 OFFCURVE",
"1129 336 CURVE SMOOTH",
"1133 336 LINE",
"1133 215 LINE",
"910 215 LINE",
"910 336 LINE",
"915 336 LINE SMOOTH",
"936 336 OFFCURVE",
"950 350 OFFCURVE",
"950 372 CURVE SMOOTH",
"950 555 LINE",
"833 355 LINE SMOOTH",
"832 352 OFFCURVE",
"831 350 OFFCURVE",
"831 347 CURVE SMOOTH",
"831 342 OFFCURVE",
"833 338 OFFCURVE",
"836 336 CURVE SMOOTH",
"838 335 OFFCURVE",
"840 334 OFFCURVE",
"843 334 CURVE SMOOTH",
"845 334 OFFCURVE",
"848 335 OFFCURVE",
"850 336 CURVE",
"855 326 OFFCURVE",
"858 316 OFFCURVE",
"858 302 CURVE SMOOTH",
"858 258 OFFCURVE",
"828 227 OFFCURVE",
"783 227 CURVE SMOOTH",
"736 227 OFFCURVE",
"702 261 OFFCURVE",
"702 310 CURVE SMOOTH",
"702 337 OFFCURVE",
"713 363 OFFCURVE",
"728 386 CURVE SMOOTH",
"838 563 LINE SMOOTH",
"841 569 OFFCURVE",
"843 574 OFFCURVE",
"843 578 CURVE SMOOTH",
"843 587 OFFCURVE",
"835 593 OFFCURVE",
"820 593 CURVE SMOOTH",
"816 593 LINE",
"816 714 LINE"
);
},
{
closed = 1;
nodes = (
"680 394 LINE",
"596 544 LINE SMOOTH",
"592 551 OFFCURVE",
"588 554 OFFCURVE",
"581 554 CURVE SMOOTH",
"571 554 OFFCURVE",
"566 546 OFFCURVE",
"566 537 CURVE SMOOTH",
"566 534 OFFCURVE",
"566 533 OFFCURVE",
"567 529 CURVE",
"557 525 OFFCURVE",
"547 524 OFFCURVE",
"537 524 CURVE SMOOTH",
"483 524 OFFCURVE",
"443 566 OFFCURVE",
"443 621 CURVE SMOOTH",
"443 679 OFFCURVE",
"489 727 OFFCURVE",
"557 727 CURVE SMOOTH",
"607 727 OFFCURVE",
"650 701 OFFCURVE",
"677 654 CURVE SMOOTH",
"753 521 LINE"
);
},
{
closed = 1;
nodes = (
"634 215 LINE",
"454 215 LINE",
"454 336 LINE",
"459 336 LINE SMOOTH",
"480 336 OFFCURVE",
"494 350 OFFCURVE",
"494 372 CURVE SMOOTH",
"494 473 LINE",
"594 473 LINE",
"594 372 LINE SMOOTH",
"594 350 OFFCURVE",
"609 336 OFFCURVE",
"630 336 CURVE SMOOTH",
"634 336 LINE"
);
}
);
width = 1163;
}
);
unicode = 2122;
},
{
glyphname = dotaccent;
layers = (
{
anchors = (
{
name = _top;
position = "{150, 718}";
}
);
layerId = "8cfcb29b-26a6-4086-8457-1c158349f2cd";
paths = (
{
closed = 1;
nodes = (
"20 798 OFFCURVE",
"72 750 OFFCURVE",
"150 750 CURVE SMOOTH",
"227 750 OFFCURVE",
"279 798 OFFCURVE",
"279 870 CURVE SMOOTH",
"279 941 OFFCURVE",
"227 989 OFFCURVE",
"150 989 CURVE SMOOTH",
"72 989 OFFCURVE",
"20 941 OFFCURVE",
"20 870 CURVE SMOOTH"
);
}
);
width = 299;
}
);
unicode = 02D9;
},
{
glyphname = dieresis;
layers = (
{
anchors = (
{
name = _top;
position = "{296, 750}";
}
);
layerId = "8cfcb29b-26a6-4086-8457-1c158349f2cd";
paths = (
{
closed = 1;
nodes = (
"20 798 OFFCURVE",
"72 750 OFFCURVE",
"150 750 CURVE SMOOTH",
"227 750 OFFCURVE",
"279 798 OFFCURVE",
"279 870 CURVE SMOOTH",
"279 941 OFFCURVE",
"227 989 OFFCURVE",
"150 989 CURVE SMOOTH",
"72 989 OFFCURVE",
"20 941 OFFCURVE",
"20 870 CURVE SMOOTH"
);
},
{
closed = 1;
nodes = (
"316 798 OFFCURVE",
"368 750 OFFCURVE",
"446 750 CURVE SMOOTH",
"523 750 OFFCURVE",
"575 798 OFFCURVE",
"575 870 CURVE SMOOTH",
"575 941 OFFCURVE",
"523 989 OFFCURVE",
"446 989 CURVE SMOOTH",
"368 989 OFFCURVE",
"316 941 OFFCURVE",
"316 870 CURVE SMOOTH"
);
}
);
width = 591;
}
);
unicode = 00A8;
},
{
glyphname = Ldot;
leftMetricsKey = "=L";
rightMetricsKey = "=L";
layers = (
{
layerId = "8cfcb29b-26a6-4086-8457-1c158349f2cd";
paths = (
{
closed = 1;
nodes = (
"30 160 OFFCURVE",
"53 203 OFFCURVE",
"94 227 CURVE",
"98 214 OFFCURVE",
"106 207 OFFCURVE",
"116 207 CURVE SMOOTH",
"129 207 OFFCURVE",
"137 217 OFFCURVE",
"137 236 CURVE SMOOTH",
"137 480 LINE SMOOTH",
"137 510 OFFCURVE",
"117 530 OFFCURVE",
"87 530 CURVE SMOOTH",
"81 530 LINE",
"81 700 LINE",
"393 700 LINE",
"393 530 LINE",
"387 530 LINE SMOOTH",
"357 530 OFFCURVE",
"337 510 OFFCURVE",
"337 480 CURVE SMOOTH",
"337 172 LINE SMOOTH",
"337 47 OFFCURVE",
"280 -18 OFFCURVE",
"180 -18 CURVE SMOOTH",
"89 -18 OFFCURVE",
"30 36 OFFCURVE",
"30 112 CURVE SMOOTH"
);
},
{
closed = 1;
nodes = (
"382 422 OFFCURVE",
"434 470 OFFCURVE",
"512 470 CURVE SMOOTH",
"589 470 OFFCURVE",
"641 422 OFFCURVE",
"641 351 CURVE SMOOTH",
"641 279 OFFCURVE",
"589 231 OFFCURVE",
"512 231 CURVE SMOOTH",
"434 231 OFFCURVE",
"382 279 OFFCURVE",
"382 351 CURVE SMOOTH"
);
},
{
closed = 1;
nodes = (
"382 0 LINE",
"382 170 LINE",
"638 170 LINE",
"638 0 LINE"
);
}
);
width = 656;
}
);
leftKerningGroup = 2nd;
unicode = 013F;
},
{
glyphname = copyright;
leftMetricsKey = "=O";
rightMetricsKey = "=O";
layers = (
{
anchors = (
{
name = top;
position = "{451, 593}";
}
);
layerId = "8cfcb29b-26a6-4086-8457-1c158349f2cd";
paths = (
{
closed = 1;
nodes = (
"192 479 LINE",
"225 594 OFFCURVE",
"311 649 OFFCURVE",
"450 649 CURVE SMOOTH",
"567 649 OFFCURVE",
"714 570 OFFCURVE",
"714 440 CURVE SMOOTH",
"714 418 OFFCURVE",
"710 411 OFFCURVE",
"700 411 CURVE SMOOTH",
"694 411 OFFCURVE",
"688 414 OFFCURVE",
"685 420 CURVE",
"667 411 OFFCURVE",
"659 389 OFFCURVE",
"659 366 CURVE SMOOTH",
"659 315 OFFCURVE",
"700 276 OFFCURVE",
"758 276 CURVE SMOOTH",
"826 276 OFFCURVE",
"864 331 OFFCURVE",
"864 417 CURVE SMOOTH",
"864 608 OFFCURVE",
"679 771 OFFCURVE",
"448 771 CURVE SMOOTH",
"222 771 OFFCURVE",
"77 670 OFFCURVE",
"37 479 CURVE"
);
},
{
closed = 1;
nodes = (
"558 127 OFFCURVE",
"622 187 OFFCURVE",
"631 298 CURVE",
"533 298 LINE",
"527 252 OFFCURVE",
"503 226 OFFCURVE",
"465 226 CURVE SMOOTH",
"415 226 OFFCURVE",
"393 263 OFFCURVE",
"393 351 CURVE SMOOTH",
"393 432 OFFCURVE",
"417 476 OFFCURVE",
"461 476 CURVE SMOOTH",
"489 476 OFFCURVE",
"513 459 OFFCURVE",
"513 437 CURVE SMOOTH",
"513 427 OFFCURVE",
"509 420 OFFCURVE",
"504 420 CURVE SMOOTH",
"502 420 OFFCURVE",
"500 421 OFFCURVE",
"498 423 CURVE",
"493 417 OFFCURVE",
"490 409 OFFCURVE",
"490 398 CURVE SMOOTH",
"490 370 OFFCURVE",
"513 342 OFFCURVE",
"552 342 CURVE SMOOTH",
"598 342 OFFCURVE",
"627 380 OFFCURVE",
"627 429 CURVE SMOOTH",
"627 515 OFFCURVE",
"551 575 OFFCURVE",
"444 575 CURVE SMOOTH",
"321 575 OFFCURVE",
"252 494 OFFCURVE",
"252 351 CURVE SMOOTH",
"252 198 OFFCURVE",
"314 127 OFFCURVE",
"447 127 CURVE SMOOTH"
);
},
{
closed = 1;
nodes = (
"692 229 LINE",
"659 114 OFFCURVE",
"573 59 OFFCURVE",
"434 59 CURVE SMOOTH",
"317 59 OFFCURVE",
"170 138 OFFCURVE",
"170 268 CURVE SMOOTH",
"170 290 OFFCURVE",
"174 297 OFFCURVE",
"184 297 CURVE SMOOTH",
"190 297 OFFCURVE",
"196 294 OFFCURVE",
"199 288 CURVE",
"217 297 OFFCURVE",
"225 319 OFFCURVE",
"225 342 CURVE SMOOTH",
"225 393 OFFCURVE",
"184 432 OFFCURVE",
"126 432 CURVE SMOOTH",
"58 432 OFFCURVE",
"20 377 OFFCURVE",
"20 291 CURVE SMOOTH",
"20 100 OFFCURVE",
"205 -63 OFFCURVE",
"436 -63 CURVE SMOOTH",
"662 -63 OFFCURVE",
"807 38 OFFCURVE",
"847 229 CURVE"
);
}
);
width = 884;
}
);
unicode = 00A9;
},
{
glyphname = registered;
leftMetricsKey = "=O";
rightMetricsKey = "=O";
layers = (
{
layerId = "8cfcb29b-26a6-4086-8457-1c158349f2cd";
paths = (
{
closed = 1;
nodes = (
"255 391 OFFCURVE",
"297 353 OFFCURVE",
"346 353 CURVE SMOOTH",
"389 353 OFFCURVE",
"415 381 OFFCURVE",
"415 412 CURVE SMOOTH",
"415 425 OFFCURVE",
"410 436 OFFCURVE",
"403 444 CURVE",
"400 442 OFFCURVE",
"397 441 OFFCURVE",
"395 441 CURVE SMOOTH",
"389 441 OFFCURVE",
"384 449 OFFCURVE",
"384 458 CURVE SMOOTH",
"384 476 OFFCURVE",
"406 490 OFFCURVE",
"434 490 CURVE SMOOTH",
"469 490 OFFCURVE",
"496 467 OFFCURVE",
"496 437 CURVE SMOOTH",
"496 407 OFFCURVE",
"469 380 OFFCURVE",
"433 380 CURVE",
"433 350 LINE SMOOTH",
"433 234 OFFCURVE",
"483 145 OFFCURVE",
"558 145 CURVE SMOOTH",
"611 145 OFFCURVE",
"648 184 OFFCURVE",
"648 237 CURVE SMOOTH",
"648 290 OFFCURVE",
"611 319 OFFCURVE",
"575 319 CURVE SMOOTH",
"555 319 OFFCURVE",
"535 311 OFFCURVE",
"517 294 CURVE",
"522 287 OFFCURVE",
"524 282 OFFCURVE",
"524 278 CURVE SMOOTH",
"524 271 OFFCURVE",
"518 266 OFFCURVE",
"511 266 CURVE SMOOTH",
"493 266 OFFCURVE",
"482 295 OFFCURVE",
"482 344 CURVE",
"571 355 OFFCURVE",
"628 394 OFFCURVE",
"628 456 CURVE SMOOTH",
"628 530 OFFCURVE",
"545 589 OFFCURVE",
"440 589 CURVE SMOOTH",
"334 589 OFFCURVE",
"255 528 OFFCURVE",
"255 448 CURVE SMOOTH"
);
},
{
closed = 1;
nodes = (
"292 286 LINE SMOOTH",
"292 268 OFFCURVE",
"279 256 OFFCURVE",
"261 256 CURVE SMOOTH",
"258 256 LINE",
"258 152 LINE",
"407 152 LINE",
"407 326 LINE",
"292 326 LINE"
);
},
{
closed = 1;
nodes = (
"192 479 LINE",
"225 594 OFFCURVE",
"311 649 OFFCURVE",
"450 649 CURVE SMOOTH",
"567 649 OFFCURVE",
"714 570 OFFCURVE",
"714 440 CURVE SMOOTH",
"714 418 OFFCURVE",
"710 411 OFFCURVE",
"700 411 CURVE SMOOTH",
"694 411 OFFCURVE",
"688 414 OFFCURVE",
"685 420 CURVE",
"667 411 OFFCURVE",
"659 389 OFFCURVE",
"659 366 CURVE SMOOTH",
"659 315 OFFCURVE",
"700 276 OFFCURVE",
"758 276 CURVE SMOOTH",
"826 276 OFFCURVE",
"864 331 OFFCURVE",
"864 417 CURVE SMOOTH",
"864 608 OFFCURVE",
"679 771 OFFCURVE",
"448 771 CURVE SMOOTH",
"222 771 OFFCURVE",
"77 670 OFFCURVE",
"37 479 CURVE"
);
},
{
closed = 1;
nodes = (
"692 229 LINE",
"659 114 OFFCURVE",
"573 59 OFFCURVE",
"434 59 CURVE SMOOTH",
"317 59 OFFCURVE",
"170 138 OFFCURVE",
"170 268 CURVE SMOOTH",
"170 290 OFFCURVE",
"174 297 OFFCURVE",
"184 297 CURVE SMOOTH",
"190 297 OFFCURVE",
"196 294 OFFCURVE",
"199 288 CURVE",
"217 297 OFFCURVE",
"225 319 OFFCURVE",
"225 342 CURVE SMOOTH",
"225 393 OFFCURVE",
"184 432 OFFCURVE",
"126 432 CURVE SMOOTH",
"58 432 OFFCURVE",
"20 377 OFFCURVE",
"20 291 CURVE SMOOTH",
"20 100 OFFCURVE",
"205 -63 OFFCURVE",
"436 -63 CURVE SMOOTH",
"662 -63 OFFCURVE",
"807 38 OFFCURVE",
"847 229 CURVE"
);
}
);
width = 884;
}
);
unicode = 00AE;
},
{
glyphname = Oslash;
leftMetricsKey = "=O";
rightMetricsKey = "=O";
layers = (
{
layerId = "8cfcb29b-26a6-4086-8457-1c158349f2cd";
paths = (
{
closed = 1;
nodes = (
"264 466 LINE",
"274 520 OFFCURVE",
"305 555 OFFCURVE",
"356 555 CURVE SMOOTH",
"398 555 OFFCURVE",
"441 532 OFFCURVE",
"441 484 CURVE SMOOTH",
"441 462 OFFCURVE",
"432 444 OFFCURVE",
"417 444 CURVE SMOOTH",
"411 444 OFFCURVE",
"406 446 OFFCURVE",
"403 449 CURVE",
"387 429 OFFCURVE",
"380 405 OFFCURVE",
"380 380 CURVE SMOOTH",
"380 315 OFFCURVE",
"430 272 OFFCURVE",
"504 272 CURVE SMOOTH",
"596 272 OFFCURVE",
"656 339 OFFCURVE",
"656 441 CURVE SMOOTH",
"656 505 OFFCURVE",
"632 568 OFFCURVE",
"588 618 CURVE",
"634 702 LINE",
"481 776 LINE",
"442 705 LINE",
"411 713 OFFCURVE",
"378 718 OFFCURVE",
"341 718 CURVE SMOOTH",
"165 718 OFFCURVE",
"49 629 OFFCURVE",
"31 466 CURVE"
);
},
{
closed = 1;
nodes = (
"20 193 OFFCURVE",
"46 127 OFFCURVE",
"94 76 CURVE",
"50 -4 LINE",
"201 -80 LINE",
"241 -7 LINE",
"270 -14 OFFCURVE",
"301 -18 OFFCURVE",
"335 -18 CURVE SMOOTH",
"511 -18 OFFCURVE",
"627 71 OFFCURVE",
"645 234 CURVE",
"412 234 LINE",
"402 180 OFFCURVE",
"371 145 OFFCURVE",
"320 145 CURVE SMOOTH",
"278 145 OFFCURVE",
"235 168 OFFCURVE",
"235 216 CURVE SMOOTH",
"235 238 OFFCURVE",
"244 256 OFFCURVE",
"259 256 CURVE SMOOTH",
"265 256 OFFCURVE",
"270 254 OFFCURVE",
"273 251 CURVE",
"289 271 OFFCURVE",
"296 295 OFFCURVE",
"296 320 CURVE SMOOTH",
"296 385 OFFCURVE",
"246 428 OFFCURVE",
"172 428 CURVE SMOOTH",
"80 428 OFFCURVE",
"20 361 OFFCURVE",
"20 259 CURVE SMOOTH"
);
}
);
width = 676;
}
);
unicode = 00D8;
},
{
glyphname = ring;
layers = (
{
anchors = (
{
name = _top;
position = "{150, 750}";
}
);
layerId = "8cfcb29b-26a6-4086-8457-1c158349f2cd";
paths = (
{
closed = 1;
nodes = (
"175 975 LINE",
"199 966 OFFCURVE",
"214 944 OFFCURVE",
"214 916 CURVE SMOOTH",
"214 888 OFFCURVE",
"199 865 OFFCURVE",
"175 857 CURVE",
"175 752 LINE",
"264 761 OFFCURVE",
"324 826 OFFCURVE",
"324 918 CURVE SMOOTH",
"324 1010 OFFCURVE",
"264 1074 OFFCURVE",
"175 1084 CURVE"
);
},
{
closed = 1;
nodes = (
"-22 826 OFFCURVE",
"35 763 OFFCURVE",
"125 752 CURVE",
"125 857 LINE",
"100 865 OFFCURVE",
"85 888 OFFCURVE",
"85 916 CURVE SMOOTH",
"85 944 OFFCURVE",
"100 966 OFFCURVE",
"125 975 CURVE",
"125 1084 LINE",
"35 1073 OFFCURVE",
"-22 1010 OFFCURVE",
"-22 918 CURVE SMOOTH"
);
}
);
width = 300;
}
);
unicode = 02DA;
},
{
glyphname = Eth;
leftMetricsKey = "=D";
rightMetricsKey = "=D";
layers = (
{
guideLines = (
{
position = "{0, 350}";
},
{
position = "{0, 350}";
},
{
position = "{0, 350}";
},
{
position = "{0, 350}";
}
);
layerId = "8cfcb29b-26a6-4086-8457-1c158349f2cd";
paths = (
{
closed = 1;
nodes = (
"86 296 LINE",
"86 220 LINE SMOOTH",
"86 190 OFFCURVE",
"66 170 OFFCURVE",
"36 170 CURVE SMOOTH",
"30 170 LINE",
"30 0 LINE",
"286 0 LINE",
"286 98 LINE",
"313 34 OFFCURVE",
"376 -18 OFFCURVE",
"469 -18 CURVE SMOOTH",
"623 -18 OFFCURVE",
"731 126 OFFCURVE",
"731 368 CURVE SMOOTH",
"731 600 OFFCURVE",
"631 718 OFFCURVE",
"483 718 CURVE SMOOTH",
"388 718 OFFCURVE",
"319 670 OFFCURVE",
"319 596 CURVE SMOOTH",
"319 542 OFFCURVE",
"355 518 OFFCURVE",
"391 518 CURVE SMOOTH",
"405 518 OFFCURVE",
"419 522 OFFCURVE",
"431 530 CURVE",
"428 534 OFFCURVE",
"427 538 OFFCURVE",
"427 542 CURVE SMOOTH",
"427 551 OFFCURVE",
"433 556 OFFCURVE",
"444 556 CURVE SMOOTH",
"484 556 OFFCURVE",
"504 493 OFFCURVE",
"504 379 CURVE SMOOTH",
"504 221 OFFCURVE",
"466 145 OFFCURVE",
"398 145 CURVE SMOOTH",
"339 145 OFFCURVE",
"286 205 OFFCURVE",
"286 271 CURVE SMOOTH",
"286 296 LINE",
"397 296 LINE",
"397 381 LINE",
"30 381 LINE",
"30 296 LINE"
);
},
{
closed = 1;
nodes = (
"30 530 LINE",
"36 530 LINE SMOOTH",
"66 530 OFFCURVE",
"86 510 OFFCURVE",
"86 480 CURVE SMOOTH",
"86 441 LINE",
"286 441 LINE",
"286 700 LINE",
"30 700 LINE"
);
}
);
width = 751;
}
);
leftKerningGroup = Eth_2nd;
rightKerningGroup = D1_1st;
unicode = 00D0;
},
{
glyphname = degree;
layers = (
{
layerId = "8cfcb29b-26a6-4086-8457-1c158349f2cd";
paths = (
{
closed = 1;
nodes = (
"42 582 LINE",
"52 494 OFFCURVE",
"121 436 OFFCURVE",
"216 436 CURVE SMOOTH",
"310 436 OFFCURVE",
"377 494 OFFCURVE",
"387 582 CURVE",
"284 582 LINE",
"275 551 OFFCURVE",
"250 532 OFFCURVE",
"214 532 CURVE SMOOTH",
"179 532 OFFCURVE",
"154 551 OFFCURVE",
"145 582 CURVE"
);
},
{
closed = 1;
nodes = (
"148 633 LINE",
"159 658 OFFCURVE",
"183 673 OFFCURVE",
"214 673 CURVE SMOOTH",
"245 673 OFFCURVE",
"269 658 OFFCURVE",
"281 633 CURVE",
"387 633 LINE",
"374 717 OFFCURVE",
"308 771 OFFCURVE",
"216 771 CURVE SMOOTH",
"123 771 OFFCURVE",
"55 717 OFFCURVE",
"42 633 CURVE"
);
}
);
width = 428;
}
);
unicode = 00B0;
},
{
glyphname = Dcroat;
leftMetricsKey = "=D";
rightMetricsKey = "=D";
layers = (
{
layerId = "8cfcb29b-26a6-4086-8457-1c158349f2cd";
paths = (
{
closed = 1;
nodes = (
"86 296 LINE",
"86 220 LINE SMOOTH",
"86 190 OFFCURVE",
"66 170 OFFCURVE",
"36 170 CURVE SMOOTH",
"30 170 LINE",
"30 0 LINE",
"286 0 LINE",
"286 98 LINE",
"313 34 OFFCURVE",
"376 -18 OFFCURVE",
"469 -18 CURVE SMOOTH",
"623 -18 OFFCURVE",
"731 126 OFFCURVE",
"731 368 CURVE SMOOTH",
"731 600 OFFCURVE",
"631 718 OFFCURVE",
"483 718 CURVE SMOOTH",
"388 718 OFFCURVE",
"319 670 OFFCURVE",
"319 596 CURVE SMOOTH",
"319 542 OFFCURVE",
"355 518 OFFCURVE",
"391 518 CURVE SMOOTH",
"405 518 OFFCURVE",
"419 522 OFFCURVE",
"431 530 CURVE",
"428 534 OFFCURVE",
"427 538 OFFCURVE",
"427 542 CURVE SMOOTH",
"427 551 OFFCURVE",
"433 556 OFFCURVE",
"444 556 CURVE SMOOTH",
"484 556 OFFCURVE",
"504 493 OFFCURVE",
"504 379 CURVE SMOOTH",
"504 221 OFFCURVE",
"466 145 OFFCURVE",
"398 145 CURVE SMOOTH",
"339 145 OFFCURVE",
"286 205 OFFCURVE",
"286 271 CURVE SMOOTH",
"286 296 LINE",
"397 296 LINE",
"397 381 LINE",
"30 381 LINE",
"30 296 LINE"
);
},
{
closed = 1;
nodes = (
"30 530 LINE",
"36 530 LINE SMOOTH",
"66 530 OFFCURVE",
"86 510 OFFCURVE",
"86 480 CURVE SMOOTH",
"86 441 LINE",
"286 441 LINE",
"286 700 LINE",
"30 700 LINE"
);
}
);
width = 751;
}
);
leftKerningGroup = Eth_2nd;
rightKerningGroup = D1_1st;
unicode = 0110;
},
{
glyphname = hungarumlaut;
layers = (
{
anchors = (
{
name = _top;
position = "{278, 750}";
}
);
guideLines = (
{
angle = 58.22;
position = "{1863, 265}";
},
{
angle = 58.22;
position = "{2280, 265}";
},
{
angle = 58.22;
position = "{1863, 265}";
},
{
angle = 58.22;
position = "{2140, 265}";
}
);
layerId = "8cfcb29b-26a6-4086-8457-1c158349f2cd";
paths = (
{
closed = 1;
nodes = (
"287 750 LINE",
"453 750 OFFCURVE",
"565 820 OFFCURVE",
"565 946 CURVE SMOOTH",
"565 1030 OFFCURVE",
"513 1085 OFFCURVE",
"439 1085 CURVE SMOOTH",
"373 1085 OFFCURVE",
"320 1041 OFFCURVE",
"320 988 CURVE SMOOTH",
"320 969 OFFCURVE",
"328 951 OFFCURVE",
"342 938 CURVE",
"347 943 OFFCURVE",
"352 945 OFFCURVE",
"358 945 CURVE SMOOTH",
"375 945 OFFCURVE",
"388 929 OFFCURVE",
"388 906 CURVE SMOOTH",
"388 859 OFFCURVE",
"331 825 OFFCURVE",
"287 825 CURVE"
);
},
{
closed = 1;
nodes = (
"10 750 LINE",
"176 750 OFFCURVE",
"288 820 OFFCURVE",
"288 946 CURVE SMOOTH",
"288 1030 OFFCURVE",
"236 1085 OFFCURVE",
"162 1085 CURVE SMOOTH",
"96 1085 OFFCURVE",
"43 1041 OFFCURVE",
"43 988 CURVE SMOOTH",
"43 969 OFFCURVE",
"51 951 OFFCURVE",
"65 938 CURVE",
"70 943 OFFCURVE",
"75 945 OFFCURVE",
"81 945 CURVE SMOOTH",
"98 945 OFFCURVE",
"111 929 OFFCURVE",
"111 906 CURVE SMOOTH",
"111 859 OFFCURVE",
"54 825 OFFCURVE",
"10 825 CURVE"
);
}
);
width = 575;
}
);
rightKerningGroup = breve_1st;
unicode = 02DD;
},
{
glyphname = Hbar;
leftMetricsKey = "=H";
rightMetricsKey = "=H";
layers = (
{
layerId = "8cfcb29b-26a6-4086-8457-1c158349f2cd";
paths = (
{
closed = 1;
nodes = (
"457 170 LINE SMOOTH",
"487 170 OFFCURVE",
"507 190 OFFCURVE",
"507 220 CURVE SMOOTH",
"507 480 LINE SMOOTH",
"507 510 OFFCURVE",
"487 530 OFFCURVE",
"457 530 CURVE SMOOTH",
"451 530 LINE",
"451 700 LINE",
"763 700 LINE",
"763 530 LINE",
"757 530 LINE SMOOTH",
"727 530 OFFCURVE",
"707 510 OFFCURVE",
"707 480 CURVE SMOOTH",
"707 455 LINE",
"763 455 LINE",
"763 370 LINE",
"707 370 LINE",
"707 220 LINE SMOOTH",
"707 190 OFFCURVE",
"727 170 OFFCURVE",
"757 170 CURVE SMOOTH",
"763 170 LINE",
"763 0 LINE",
"451 0 LINE",
"451 170 LINE"
);
},
{
closed = 1;
nodes = (
"451 252 LINE",
"323 252 OFFCURVE",
"230 225 OFFCURVE",
"230 188 CURVE SMOOTH",
"230 176 OFFCURVE",
"239 167 OFFCURVE",
"253 167 CURVE SMOOTH",
"265 167 OFFCURVE",
"276 173 OFFCURVE",
"276 193 CURVE",
"337 193 OFFCURVE",
"381 159 OFFCURVE",
"381 103 CURVE SMOOTH",
"381 17 OFFCURVE",
"298 -18 OFFCURVE",
"216 -18 CURVE SMOOTH",
"116 -18 OFFCURVE",
"22 33 OFFCURVE",
"22 130 CURVE SMOOTH",
"22 251 OFFCURVE",
"198 336 OFFCURVE",
"451 336 CURVE"
);
},
{
closed = 1;
nodes = (
"363 700 LINE",
"363 530 LINE",
"357 530 LINE SMOOTH",
"327 530 OFFCURVE",
"307 510 OFFCURVE",
"307 480 CURVE SMOOTH",
"307 455 LINE",
"451 455 LINE",
"451 370 LINE",
"51 370 LINE",
"51 455 LINE",
"107 455 LINE",
"107 480 LINE SMOOTH",
"107 510 OFFCURVE",
"87 530 OFFCURVE",
"57 530 CURVE SMOOTH",
"51 530 LINE",
"51 700 LINE"
);
}
);
width = 793;
}
);
unicode = 0126;
},
{
glyphname = a;
leftMetricsKey = "=A";
rightMetricsKey = "=A";
layers = (
{
anchors = (
{
name = top;
position = "{384, 750}";
},
{
name = bottom;
position = "{741, -54}";
}
);
guideLines = (
{
angle = 90;
position = "{384, 0}";
},
{
angle = 90;
position = "{384, 0}";
}
);
layerId = "8cfcb29b-26a6-4086-8457-1c158349f2cd";
paths = (
{
closed = 1;
nodes = (
"137 700 LINE",
"137 530 LINE",
"153 530 LINE SMOOTH",
"183 530 OFFCURVE",
"198 511 OFFCURVE",
"190 482 CURVE SMOOTH",
"163 378 LINE",
"343 378 LINE",
"373 491 LINE",
"441 219 LINE SMOOTH",
"448 190 OFFCURVE",
"433 170 OFFCURVE",
"403 170 CURVE SMOOTH",
"397 170 LINE",
"397 0 LINE",
"741 0 LINE",
"741 170 LINE",
"715 170 LINE SMOOTH",
"685 170 OFFCURVE",
"660 189 OFFCURVE",
"653 218 CURVE SMOOTH",
"586 482 LINE SMOOTH",
"579 511 OFFCURVE",
"594 530 OFFCURVE",
"624 530 CURVE SMOOTH",
"630 530 LINE",
"630 700 LINE"
);
},
{
closed = 1;
nodes = (
"273 -18 OFFCURVE",
"349 24 OFFCURVE",
"349 101 CURVE SMOOTH",
"349 164 OFFCURVE",
"305 200 OFFCURVE",
"244 200 CURVE",
"244 180 OFFCURVE",
"233 174 OFFCURVE",
"223 174 CURVE SMOOTH",
"210 174 OFFCURVE",
"198 183 OFFCURVE",
"198 201 CURVE SMOOTH",
"198 215 OFFCURVE",
"205 252 OFFCURVE",
"369 252 CURVE",
"369 336 LINE",
"138 336 OFFCURVE",
"10 267 OFFCURVE",
"10 143 CURVE SMOOTH",
"10 44 OFFCURVE",
"91 -18 OFFCURVE",
"191 -18 CURVE SMOOTH"
);
}
);
width = 751;
}
);
leftKerningGroup = a_2nd;
rightKerningGroup = a1_1st;
unicode = 0061;
},
{
glyphname = b;
leftMetricsKey = "=B";
rightMetricsKey = "=B";
layers = (
{
layerId = "8cfcb29b-26a6-4086-8457-1c158349f2cd";
paths = (
{
closed = 1;
nodes = (
"30 392 OFFCURVE",
"100 330 OFFCURVE",
"181 330 CURVE SMOOTH",
"251 330 OFFCURVE",
"293 376 OFFCURVE",
"293 426 CURVE SMOOTH",
"293 448 OFFCURVE",
"285 466 OFFCURVE",
"274 480 CURVE",
"271 478 OFFCURVE",
"268 477 OFFCURVE",
"264 477 CURVE SMOOTH",
"253 477 OFFCURVE",
"242 489 OFFCURVE",
"242 504 CURVE SMOOTH",
"242 533 OFFCURVE",
"281 556 OFFCURVE",
"331 556 CURVE SMOOTH",
"391 556 OFFCURVE",
"436 524 OFFCURVE",
"436 479 CURVE SMOOTH",
"436 435 OFFCURVE",
"394 394 OFFCURVE",
"334 394 CURVE",
"334 327 LINE",
"426 327 OFFCURVE",
"471 301 OFFCURVE",
"471 250 CURVE SMOOTH",
"471 202 OFFCURVE",
"431 175 OFFCURVE",
"344 171 CURVE",
"344 0 LINE",
"572 0 OFFCURVE",
"699 63 OFFCURVE",
"699 190 CURVE SMOOTH",
"699 287 OFFCURVE",
"633 348 OFFCURVE",
"514 376 CURVE",
"592 403 OFFCURVE",
"634 451 OFFCURVE",
"634 514 CURVE SMOOTH",
"634 628 OFFCURVE",
"500 718 OFFCURVE",
"329 718 CURVE SMOOTH",
"158 718 OFFCURVE",
"30 617 OFFCURVE",
"30 488 CURVE SMOOTH"
);
},
{
closed = 1;
nodes = (
"88 220 LINE SMOOTH",
"88 190 OFFCURVE",
"68 170 OFFCURVE",
"38 170 CURVE SMOOTH",
"32 170 LINE",
"32 0 LINE",
"288 0 LINE",
"288 295 LINE",
"88 295 LINE"
);
}
);
width = 719;
}
);
unicode = 0062;
},
{
glyphname = c;
leftMetricsKey = "=C";
rightMetricsKey = "=C";
layers = (
{
anchors = (
{
name = top;
position = "{332, 750}";
},
{
name = bottom;
position = "{342, -54}";
}
);
layerId = "8cfcb29b-26a6-4086-8457-1c158349f2cd";
paths = (
{
closed = 1;
nodes = (
"253 389 LINE",
"260 498 OFFCURVE",
"297 556 OFFCURVE",
"363 556 CURVE SMOOTH",
"409 556 OFFCURVE",
"449 528 OFFCURVE",
"449 491 CURVE SMOOTH",
"449 475 OFFCURVE",
"442 464 OFFCURVE",
"434 464 CURVE SMOOTH",
"431 464 OFFCURVE",
"427 465 OFFCURVE",
"424 468 CURVE",
"416 459 OFFCURVE",
"411 445 OFFCURVE",
"411 428 CURVE SMOOTH",
"411 381 OFFCURVE",
"448 336 OFFCURVE",
"512 336 CURVE SMOOTH",
"588 336 OFFCURVE",
"635 398 OFFCURVE",
"635 479 CURVE SMOOTH",
"635 619 OFFCURVE",
"510 718 OFFCURVE",
"335 718 CURVE SMOOTH",
"144 718 OFFCURVE",
"33 600 OFFCURVE",
"21 389 CURVE"
);
},
{
closed = 1;
nodes = (
"20 329 LINE",
"20 92 OFFCURVE",
"127 -18 OFFCURVE",
"340 -18 CURVE SMOOTH",
"522 -18 OFFCURVE",
"628 81 OFFCURVE",
"642 263 CURVE",
"482 263 LINE",
"472 188 OFFCURVE",
"432 145 OFFCURVE",
"370 145 CURVE SMOOTH",
"291 145 OFFCURVE",
"252 199 OFFCURVE",
"252 329 CURVE"
);
}
);
width = 657;
}
);
leftKerningGroup = c_2nd;
rightKerningGroup = c1_1st;
unicode = 0063;
},
{
glyphname = d;
leftMetricsKey = "=D";
rightMetricsKey = "=D";
layers = (
{
anchors = (
{
name = top;
position = "{375, 750}";
}
);
guideLines = (
{
position = "{0, 350}";
},
{
position = "{0, 350}";
},
{
angle = 90;
position = "{375, 0}";
},
{
position = "{0, 350}";
},
{
position = "{0, 350}";
},
{
angle = 90;
position = "{375, 0}";
}
);
layerId = "8cfcb29b-26a6-4086-8457-1c158349f2cd";
paths = (
{
closed = 1;
nodes = (
"30 170 LINE",
"36 170 LINE SMOOTH",
"66 170 OFFCURVE",
"86 190 OFFCURVE",
"86 220 CURVE SMOOTH",
"86 480 LINE SMOOTH",
"86 510 OFFCURVE",
"66 530 OFFCURVE",
"36 530 CURVE SMOOTH",
"30 530 LINE",
"30 700 LINE",
"286 700 LINE",
"286 271 LINE SMOOTH",
"286 205 OFFCURVE",
"339 145 OFFCURVE",
"398 145 CURVE SMOOTH",
"466 145 OFFCURVE",
"504 221 OFFCURVE",
"504 379 CURVE SMOOTH",
"504 493 OFFCURVE",
"484 556 OFFCURVE",
"444 556 CURVE SMOOTH",
"433 556 OFFCURVE",
"427 551 OFFCURVE",
"427 542 CURVE SMOOTH",
"427 538 OFFCURVE",
"428 534 OFFCURVE",
"431 530 CURVE",
"419 522 OFFCURVE",
"405 518 OFFCURVE",
"391 518 CURVE SMOOTH",
"355 518 OFFCURVE",
"319 542 OFFCURVE",
"319 596 CURVE SMOOTH",
"319 670 OFFCURVE",
"388 718 OFFCURVE",
"483 718 CURVE SMOOTH",
"631 718 OFFCURVE",
"731 600 OFFCURVE",
"731 368 CURVE SMOOTH",
"731 126 OFFCURVE",
"623 -18 OFFCURVE",
"469 -18 CURVE SMOOTH",
"376 -18 OFFCURVE",
"313 34 OFFCURVE",
"286 98 CURVE",
"286 0 LINE",
"30 0 LINE"
);
}
);
width = 751;
}
);
leftKerningGroup = d_2nd;
rightKerningGroup = d1_1st;
unicode = 0064;
},
{
glyphname = e;
leftMetricsKey = "=E";
rightMetricsKey = "=E";
layers = (
{
anchors = (
{
name = top;
position = "{324, 750}";
},
{
name = bottom;
position = "{596, -54}";
}
);
layerId = "8cfcb29b-26a6-4086-8457-1c158349f2cd";
paths = (
{
closed = 1;
nodes = (
"25 62 OFFCURVE",
"121 -18 OFFCURVE",
"313 -18 CURVE SMOOTH",
"506 -18 OFFCURVE",
"628 63 OFFCURVE",
"628 253 CURVE",
"436 253 LINE",
"431 184 OFFCURVE",
"372 164 OFFCURVE",
"330 164 CURVE SMOOTH",
"289 164 OFFCURVE",
"262 183 OFFCURVE",
"262 209 CURVE SMOOTH",
"262 260 OFFCURVE",
"338 306 OFFCURVE",
"551 306 CURVE",
"551 390 LINE",
"210 390 OFFCURVE",
"25 302 OFFCURVE",
"25 162 CURVE SMOOTH"
);
},
{
closed = 1;
nodes = (
"25 440 OFFCURVE",
"84 378 OFFCURVE",
"171 378 CURVE SMOOTH",
"236 378 OFFCURVE",
"292 412 OFFCURVE",
"292 474 CURVE",
"280 474 OFFCURVE",
"268 490 OFFCURVE",
"268 508 CURVE SMOOTH",
"268 535 OFFCURVE",
"295 554 OFFCURVE",
"331 554 CURVE SMOOTH",
"394 554 OFFCURVE",
"436 494 OFFCURVE",
"436 451 CURVE",
"596 451 LINE",
"596 700 LINE",
"436 700 LINE",
"436 583 LINE",
"400 691 OFFCURVE",
"299 718 OFFCURVE",
"233 718 CURVE SMOOTH",
"115 718 OFFCURVE",
"25 631 OFFCURVE",
"25 524 CURVE SMOOTH"
);
}
);
width = 648;
}
);
leftKerningGroup = e_2nd;
rightKerningGroup = e1_1st;
unicode = 0065;
},
{
glyphname = f;
leftMetricsKey = "=F";
rightMetricsKey = "=F";
layers = (
{
layerId = "8cfcb29b-26a6-4086-8457-1c158349f2cd";
paths = (
{
closed = 1;
nodes = (
"342 700 LINE",
"342 530 LINE",
"336 530 LINE SMOOTH",
"306 530 OFFCURVE",
"286 510 OFFCURVE",
"286 480 CURVE SMOOTH",
"286 324 LINE",
"310 396 OFFCURVE",
"374 433 OFFCURVE",
"448 433 CURVE SMOOTH",
"541 433 OFFCURVE",
"613 364 OFFCURVE",
"613 278 CURVE SMOOTH",
"613 212 OFFCURVE",
"569 154 OFFCURVE",
"499 154 CURVE SMOOTH",
"451 154 OFFCURVE",
"419 182 OFFCURVE",
"401 239 CURVE",
"413 242 OFFCURVE",
"421 253 OFFCURVE",
"421 266 CURVE SMOOTH",
"421 287 OFFCURVE",
"399 303 OFFCURVE",
"370 303 CURVE SMOOTH",
"328 303 OFFCURVE",
"286 263 OFFCURVE",
"286 221 CURVE",
"286 220 LINE",
"286 190 OFFCURVE",
"306 170 OFFCURVE",
"336 170 CURVE SMOOTH",
"342 170 LINE",
"342 0 LINE",
"30 0 LINE",
"30 170 LINE",
"36 170 LINE SMOOTH",
"66 170 OFFCURVE",
"86 190 OFFCURVE",
"86 220 CURVE SMOOTH",
"86 480 LINE SMOOTH",
"86 510 OFFCURVE",
"66 530 OFFCURVE",
"36 530 CURVE SMOOTH",
"30 530 LINE",
"30 700 LINE"
);
},
{
closed = 1;
nodes = (
"423 530 LINE",
"423 700 LINE",
"649 700 LINE",
"649 465 LINE",
"529 465 LINE",
"529 480 LINE SMOOTH",
"529 510 OFFCURVE",
"509 530 OFFCURVE",
"479 530 CURVE SMOOTH"
);
}
);
width = 674;
}
);
leftKerningGroup = d_2nd;
unicode = 0066;
},
{
glyphname = g;
leftMetricsKey = "=G";
rightMetricsKey = "=G";
layers = (
{
anchors = (
{
name = top;
position = "{348, 750}";
},
{
name = bottom;
position = "{348, -54}";
}
);
guideLines = (
{
angle = 90;
position = "{348, 0}";
},
{
angle = 90;
position = "{348, 0}";
}
);
layerId = "8cfcb29b-26a6-4086-8457-1c158349f2cd";
paths = (
{
closed = 1;
nodes = (
"311 145 OFFCURVE",
"266 170 OFFCURVE",
"266 213 CURVE SMOOTH",
"266 234 OFFCURVE",
"277 248 OFFCURVE",
"292 248 CURVE SMOOTH",
"296 248 OFFCURVE",
"299 247 OFFCURVE",
"304 244 CURVE",
"313 254 OFFCURVE",
"320 271 OFFCURVE",
"320 293 CURVE SMOOTH",
"320 342 OFFCURVE",
"286 406 OFFCURVE",
"194 406 CURVE SMOOTH",
"85 406 OFFCURVE",
"20 316 OFFCURVE",
"20 218 CURVE SMOOTH",
"20 86 OFFCURVE",
"138 -18 OFFCURVE",
"276 -18 CURVE SMOOTH",
"369 -18 OFFCURVE",
"468 22 OFFCURVE",
"505 122 CURVE",
"505 0 LINE",
"665 0 LINE",
"665 313 LINE",
"386 313 LINE",
"386 229 LINE",
"449 229 LINE SMOOTH",
"470 229 OFFCURVE",
"483 219 OFFCURVE",
"483 206 CURVE SMOOTH",
"483 166 OFFCURVE",
"416 145 OFFCURVE",
"366 145 CURVE SMOOTH"
);
},
{
closed = 1;
nodes = (
"265 444 LINE",
"270 500 OFFCURVE",
"310 555 OFFCURVE",
"378 555 CURVE SMOOTH",
"427 555 OFFCURVE",
"463 526 OFFCURVE",
"463 493 CURVE SMOOTH",
"463 478 OFFCURVE",
"455 469 OFFCURVE",
"441 469 CURVE",
"441 394 OFFCURVE",
"479 351 OFFCURVE",
"545 351 CURVE SMOOTH",
"614 351 OFFCURVE",
"654 398 OFFCURVE",
"654 477 CURVE SMOOTH",
"654 619 OFFCURVE",
"511 718 OFFCURVE",
"352 718 CURVE SMOOTH",
"145 718 OFFCURVE",
"43 583 OFFCURVE",
"43 444 CURVE"
);
}
);
width = 695;
}
);
leftKerningGroup = g_2nd;
rightKerningGroup = g1_1st;
unicode = 0067;
},
{
glyphname = h;
leftMetricsKey = "=H";
rightMetricsKey = "=H";
layers = (
{
anchors = (
{
name = top;
position = "{407, 750}";
}
);
guideLines = (
{
angle = 90;
position = "{407, 0}";
},
{
angle = 90;
position = "{407, 0}";
}
);
layerId = "8cfcb29b-26a6-4086-8457-1c158349f2cd";
paths = (
{
closed = 1;
nodes = (
"451 700 LINE",
"763 700 LINE",
"763 530 LINE",
"757 530 LINE SMOOTH",
"727 530 OFFCURVE",
"707 510 OFFCURVE",
"707 480 CURVE SMOOTH",
"707 220 LINE SMOOTH",
"707 190 OFFCURVE",
"727 170 OFFCURVE",
"757 170 CURVE SMOOTH",
"763 170 LINE",
"763 0 LINE",
"451 0 LINE",
"451 170 LINE",
"457 170 LINE SMOOTH",
"487 170 OFFCURVE",
"507 190 OFFCURVE",
"507 220 CURVE SMOOTH",
"507 480 LINE SMOOTH",
"507 510 OFFCURVE",
"487 530 OFFCURVE",
"457 530 CURVE SMOOTH",
"451 530 LINE"
);
},
{
closed = 1;
nodes = (
"22 358 OFFCURVE",
"331 381 OFFCURVE",
"451 381 CURVE",
"451 297 LINE",
"287 297 OFFCURVE",
"230 256 OFFCURVE",
"230 216 CURVE SMOOTH",
"230 193 OFFCURVE",
"242 187 OFFCURVE",
"253 187 CURVE SMOOTH",
"265 187 OFFCURVE",
"276 193 OFFCURVE",
"276 213 CURVE",
"337 213 OFFCURVE",
"381 177 OFFCURVE",
"381 114 CURVE SMOOTH",
"381 19 OFFCURVE",
"298 -18 OFFCURVE",
"217 -18 CURVE SMOOTH",
"116 -18 OFFCURVE",
"22 40 OFFCURVE",
"22 149 CURVE SMOOTH"
);
},
{
closed = 1;
nodes = (
"363 700 LINE",
"363 530 LINE",
"357 530 LINE SMOOTH",
"327 530 OFFCURVE",
"307 510 OFFCURVE",
"307 480 CURVE SMOOTH",
"307 411 LINE",
"107 411 LINE",
"107 480 LINE SMOOTH",
"107 510 OFFCURVE",
"87 530 OFFCURVE",
"57 530 CURVE SMOOTH",
"51 530 LINE",
"51 700 LINE"
);
}
);
width = 793;
}
);
leftKerningGroup = h_2nd;
rightKerningGroup = h1_1st;
unicode = 0068;
},
{
glyphname = i;
leftMetricsKey = "=I";
rightMetricsKey = "=I";
layers = (
{
anchors = (
{
name = top;
position = "{186, 750}";
},
{
name = bottom;
position = "{342, -54}";
}
);
guideLines = (
{
angle = 90;
position = "{186, 0}";
},
{
angle = 90;
position = "{186, 0}";
}
);
layerId = "8cfcb29b-26a6-4086-8457-1c158349f2cd";
paths = (
{
closed = 1;
nodes = (
"336 170 LINE SMOOTH",
"306 170 OFFCURVE",
"286 190 OFFCURVE",
"286 220 CURVE SMOOTH",
"286 480 LINE SMOOTH",
"286 510 OFFCURVE",
"306 530 OFFCURVE",
"336 530 CURVE SMOOTH",
"342 530 LINE",
"342 700 LINE",
"30 700 LINE",
"30 530 LINE",
"36 530 LINE SMOOTH",
"66 530 OFFCURVE",
"86 510 OFFCURVE",
"86 480 CURVE SMOOTH",
"86 220 LINE SMOOTH",
"86 190 OFFCURVE",
"66 170 OFFCURVE",
"36 170 CURVE SMOOTH",
"30 170 LINE",
"30 0 LINE",
"342 0 LINE",
"342 170 LINE"
);
}
);
width = 372;
}
);
leftKerningGroup = i_2nd;
rightKerningGroup = i1_1st;
unicode = 0069;
},
{
glyphname = j;
leftMetricsKey = "=J";
rightMetricsKey = "=J";
layers = (
{
anchors = (
{
name = top;
position = "{387, 750}";
}
);
guideLines = (
{
angle = 90;
position = "{387, 0}";
},
{
angle = 90;
position = "{397, 0}";
}
);
layerId = "8cfcb29b-26a6-4086-8457-1c158349f2cd";
paths = (
{
closed = 1;
nodes = (
"10 77 OFFCURVE",
"113 -18 OFFCURVE",
"285 -18 CURVE SMOOTH",
"449 -18 OFFCURVE",
"547 67 OFFCURVE",
"547 210 CURVE SMOOTH",
"547 329 LINE",
"347 329 LINE",
"347 244 LINE SMOOTH",
"347 178 OFFCURVE",
"326 145 OFFCURVE",
"285 145 CURVE SMOOTH",
"250 145 OFFCURVE",
"223 168 OFFCURVE",
"223 195 CURVE SMOOTH",
"223 212 OFFCURVE",
"234 226 OFFCURVE",
"246 226 CURVE SMOOTH",
"249 226 OFFCURVE",
"252 225 OFFCURVE",
"254 224 CURVE",
"259 238 OFFCURVE",
"262 251 OFFCURVE",
"262 265 CURVE SMOOTH",
"262 322 OFFCURVE",
"216 374 OFFCURVE",
"149 374 CURVE SMOOTH",
"73 374 OFFCURVE",
"10 307 OFFCURVE",
"10 206 CURVE SMOOTH"
);
},
{
closed = 1;
nodes = (
"191 700 LINE",
"191 530 LINE",
"297 530 LINE SMOOTH",
"327 530 OFFCURVE",
"347 510 OFFCURVE",
"347 480 CURVE SMOOTH",
"347 389 LINE",
"547 389 LINE",
"547 480 LINE SMOOTH",
"547 510 OFFCURVE",
"567 530 OFFCURVE",
"597 530 CURVE SMOOTH",
"603 530 LINE",
"603 700 LINE"
);
}
);
width = 623;
}
);
leftKerningGroup = j_2nd;
rightKerningGroup = j1_1st;
unicode = 006A;
},
{
glyphname = k;
leftMetricsKey = "=K";
rightMetricsKey = "=K";
layers = (
{
anchors = (
{
name = bottom;
position = "{390, -54}";
}
);
guideLines = (
{
angle = 90;
position = "{390, 0}";
},
{
angle = 90;
position = "{390, 0}";
}
);
layerId = "8cfcb29b-26a6-4086-8457-1c158349f2cd";
paths = (
{
closed = 1;
nodes = (
"328 324 LINE",
"460 86 LINE SMOOTH",
"499 17 OFFCURVE",
"563 -18 OFFCURVE",
"627 -18 CURVE SMOOTH",
"705 -18 OFFCURVE",
"771 34 OFFCURVE",
"771 126 CURVE SMOOTH",
"771 211 OFFCURVE",
"715 255 OFFCURVE",
"633 255 CURVE",
"633 240 OFFCURVE",
"623 232 OFFCURVE",
"614 232 CURVE SMOOTH",
"603 232 OFFCURVE",
"594 242 OFFCURVE",
"583 262 CURVE SMOOTH",
"521 374 LINE",
"569 469 LINE SMOOTH",
"586 503 OFFCURVE",
"595 514 OFFCURVE",
"606 514 CURVE SMOOTH",
"613 514 OFFCURVE",
"621 509 OFFCURVE",
"621 497 CURVE",
"672 497 OFFCURVE",
"721 543 OFFCURVE",
"721 607 CURVE SMOOTH",
"721 674 OFFCURVE",
"668 718 OFFCURVE",
"601 718 CURVE SMOOTH",
"535 718 OFFCURVE",
"486 676 OFFCURVE",
"455 606 CURVE SMOOTH"
);
},
{
closed = 1;
nodes = (
"336 170 LINE SMOOTH",
"306 170 OFFCURVE",
"286 190 OFFCURVE",
"286 220 CURVE SMOOTH",
"286 480 LINE SMOOTH",
"286 510 OFFCURVE",
"306 530 OFFCURVE",
"336 530 CURVE SMOOTH",
"342 530 LINE",
"342 700 LINE",
"30 700 LINE",
"30 530 LINE",
"36 530 LINE SMOOTH",
"66 530 OFFCURVE",
"86 510 OFFCURVE",
"86 480 CURVE SMOOTH",
"86 220 LINE SMOOTH",
"86 190 OFFCURVE",
"66 170 OFFCURVE",
"36 170 CURVE SMOOTH",
"30 170 LINE",
"30 0 LINE",
"342 0 LINE",
"342 170 LINE"
);
}
);
width = 781;
}
);
leftKerningGroup = d_2nd;
rightKerningGroup = k_1st;
unicode = 006B;
},
{
glyphname = l;
leftMetricsKey = "=L";
rightMetricsKey = "=L";
layers = (
{
anchors = (
{
name = top;
position = "{237, 750}";
},
{
name = bottom;
position = "{327, -54}";
}
);
layerId = "8cfcb29b-26a6-4086-8457-1c158349f2cd";
paths = (
{
closed = 1;
nodes = (
"30 160 OFFCURVE",
"53 203 OFFCURVE",
"94 227 CURVE",
"98 214 OFFCURVE",
"106 207 OFFCURVE",
"116 207 CURVE SMOOTH",
"129 207 OFFCURVE",
"137 217 OFFCURVE",
"137 236 CURVE SMOOTH",
"137 480 LINE SMOOTH",
"137 510 OFFCURVE",
"117 530 OFFCURVE",
"87 530 CURVE SMOOTH",
"81 530 LINE",
"81 700 LINE",
"393 700 LINE",
"393 530 LINE",
"387 530 LINE SMOOTH",
"357 530 OFFCURVE",
"337 510 OFFCURVE",
"337 480 CURVE SMOOTH",
"337 172 LINE SMOOTH",
"337 47 OFFCURVE",
"280 -18 OFFCURVE",
"180 -18 CURVE SMOOTH",
"89 -18 OFFCURVE",
"30 36 OFFCURVE",
"30 112 CURVE SMOOTH"
);
},
{
closed = 1;
nodes = (
"382 170 LINE",
"448 170 LINE SMOOTH",
"478 170 OFFCURVE",
"498 190 OFFCURVE",
"498 220 CURVE SMOOTH",
"498 285 LINE",
"638 285 LINE",
"638 0 LINE",
"382 0 LINE"
);
}
);
width = 653;
}
);
leftKerningGroup = l_2nd;
rightKerningGroup = l1_1st;
unicode = 006C;
},
{
glyphname = m;
leftMetricsKey = "=M";
rightMetricsKey = "=M";
layers = (
{
layerId = "8cfcb29b-26a6-4086-8457-1c158349f2cd";
paths = (
{
closed = 1;
nodes = (
"988 700 LINE",
"988 530 LINE",
"982 530 LINE SMOOTH",
"952 530 OFFCURVE",
"932 510 OFFCURVE",
"932 480 CURVE SMOOTH",
"932 220 LINE SMOOTH",
"932 190 OFFCURVE",
"952 170 OFFCURVE",
"982 170 CURVE SMOOTH",
"988 170 LINE",
"988 0 LINE",
"676 0 LINE",
"676 170 LINE",
"682 170 LINE SMOOTH",
"712 170 OFFCURVE",
"732 190 OFFCURVE",
"732 220 CURVE SMOOTH",
"732 477 LINE",
"568 196 LINE SMOOTH",
"566 192 OFFCURVE",
"565 189 OFFCURVE",
"565 185 CURVE SMOOTH",
"565 179 OFFCURVE",
"568 173 OFFCURVE",
"572 170 CURVE SMOOTH",
"575 168 OFFCURVE",
"578 167 OFFCURVE",
"582 167 CURVE SMOOTH",
"585 167 OFFCURVE",
"588 168 OFFCURVE",
"592 170 CURVE",
"599 156 OFFCURVE",
"603 142 OFFCURVE",
"603 123 CURVE SMOOTH",
"603 60 OFFCURVE",
"561 17 OFFCURVE",
"498 17 CURVE SMOOTH",
"431 17 OFFCURVE",
"383 65 OFFCURVE",
"383 133 CURVE SMOOTH",
"383 171 OFFCURVE",
"399 208 OFFCURVE",
"419 240 CURVE SMOOTH",
"574 488 LINE SMOOTH",
"579 496 OFFCURVE",
"582 503 OFFCURVE",
"582 509 CURVE SMOOTH",
"582 522 OFFCURVE",
"570 530 OFFCURVE",
"550 530 CURVE SMOOTH",
"544 530 LINE",
"544 700 LINE"
);
},
{
closed = 1;
nodes = (
"364 229 LINE",
"234 462 LINE SMOOTH",
"229 471 OFFCURVE",
"223 475 OFFCURVE",
"214 475 CURVE SMOOTH",
"199 475 OFFCURVE",
"192 464 OFFCURVE",
"192 452 CURVE SMOOTH",
"192 448 OFFCURVE",
"193 444 OFFCURVE",
"194 440 CURVE",
"180 435 OFFCURVE",
"165 433 OFFCURVE",
"151 433 CURVE SMOOTH",
"76 433 OFFCURVE",
"20 492 OFFCURVE",
"20 569 CURVE SMOOTH",
"20 651 OFFCURVE",
"85 718 OFFCURVE",
"180 718 CURVE SMOOTH",
"250 718 OFFCURVE",
"311 682 OFFCURVE",
"348 616 CURVE SMOOTH",
"468 407 LINE"
);
},
{
closed = 1;
nodes = (
"288 0 LINE",
"36 0 LINE",
"36 170 LINE",
"42 170 LINE SMOOTH",
"72 170 OFFCURVE",
"92 190 OFFCURVE",
"92 220 CURVE SMOOTH",
"92 362 LINE",
"232 362 LINE",
"232 220 LINE SMOOTH",
"232 190 OFFCURVE",
"252 170 OFFCURVE",
"282 170 CURVE SMOOTH",
"288 170 LINE"
);
}
);
width = 1018;
}
);
rightKerningGroup = i1_1st;
unicode = 006D;
},
{
glyphname = n;
leftMetricsKey = "=N";
rightMetricsKey = "=N";
layers = (
{
anchors = (
{
name = top;
position = "{368, 750}";
},
{
name = bottom;
position = "{368, -54}";
}
);
guideLines = (
{
angle = 90;
position = "{368, 0}";
},
{
angle = 90;
position = "{368, 0}";
}
);
layerId = "8cfcb29b-26a6-4086-8457-1c158349f2cd";
paths = (
{
closed = 1;
nodes = (
"30 700 LINE",
"270 700 LINE",
"500 240 LINE SMOOTH",
"507 226 OFFCURVE",
"515 220 OFFCURVE",
"526 220 CURVE SMOOTH",
"538 220 OFFCURVE",
"545 227 OFFCURVE",
"545 237 CURVE SMOOTH",
"545 240 OFFCURVE",
"544 243 OFFCURVE",
"543 245 CURVE",
"558 254 OFFCURVE",
"577 260 OFFCURVE",
"598 260 CURVE SMOOTH",
"664 260 OFFCURVE",
"715 201 OFFCURVE",
"715 127 CURVE SMOOTH",
"715 42 OFFCURVE",
"649 -18 OFFCURVE",
"554 -18 CURVE SMOOTH",
"467 -18 OFFCURVE",
"404 30 OFFCURVE",
"354 133 CURVE SMOOTH",
"226 397 LINE",
"226 220 LINE SMOOTH",
"226 190 OFFCURVE",
"246 170 OFFCURVE",
"276 170 CURVE SMOOTH",
"282 170 LINE",
"282 0 LINE",
"30 0 LINE",
"30 170 LINE",
"36 170 LINE SMOOTH",
"66 170 OFFCURVE",
"86 190 OFFCURVE",
"86 220 CURVE SMOOTH",
"86 480 LINE SMOOTH",
"86 510 OFFCURVE",
"66 530 OFFCURVE",
"36 530 CURVE SMOOTH",
"30 530 LINE"
);
},
{
closed = 1;
nodes = (
"452 700 LINE",
"704 700 LINE",
"704 530 LINE",
"698 530 LINE SMOOTH",
"668 530 OFFCURVE",
"648 510 OFFCURVE",
"648 480 CURVE SMOOTH",
"648 351 LINE",
"508 351 LINE",
"508 480 LINE SMOOTH",
"508 510 OFFCURVE",
"488 530 OFFCURVE",
"458 530 CURVE SMOOTH",
"452 530 LINE"
);
}
);
width = 735;
}
);
leftKerningGroup = i_2nd;
rightKerningGroup = n_1st;
unicode = 006E;
},
{
glyphname = o;
leftMetricsKey = "=O";
rightMetricsKey = "=O";
layers = (
{
anchors = (
{
name = top;
position = "{338, 750}";
}
);
guideLines = (
{
angle = 90;
position = "{338, 0}";
},
{
angle = 90;
position = "{338, 0}";
}
);
layerId = "8cfcb29b-26a6-4086-8457-1c158349f2cd";
paths = (
{
closed = 1;
nodes = (
"264 466 LINE",
"274 520 OFFCURVE",
"305 555 OFFCURVE",
"356 555 CURVE SMOOTH",
"398 555 OFFCURVE",
"441 532 OFFCURVE",
"441 484 CURVE SMOOTH",
"441 462 OFFCURVE",
"432 444 OFFCURVE",
"417 444 CURVE SMOOTH",
"411 444 OFFCURVE",
"406 446 OFFCURVE",
"403 449 CURVE",
"387 429 OFFCURVE",
"380 405 OFFCURVE",
"380 380 CURVE SMOOTH",
"380 315 OFFCURVE",
"430 272 OFFCURVE",
"504 272 CURVE SMOOTH",
"596 272 OFFCURVE",
"656 339 OFFCURVE",
"656 441 CURVE SMOOTH",
"656 581 OFFCURVE",
"542 718 OFFCURVE",
"341 718 CURVE SMOOTH",
"165 718 OFFCURVE",
"49 629 OFFCURVE",
"31 466 CURVE"
);
},
{
closed = 1;
nodes = (
"412 234 LINE",
"402 180 OFFCURVE",
"371 145 OFFCURVE",
"320 145 CURVE SMOOTH",
"278 145 OFFCURVE",
"235 168 OFFCURVE",
"235 216 CURVE SMOOTH",
"235 238 OFFCURVE",
"244 256 OFFCURVE",
"259 256 CURVE SMOOTH",
"265 256 OFFCURVE",
"270 254 OFFCURVE",
"273 251 CURVE",
"289 271 OFFCURVE",
"296 295 OFFCURVE",
"296 320 CURVE SMOOTH",
"296 385 OFFCURVE",
"246 428 OFFCURVE",
"172 428 CURVE SMOOTH",
"80 428 OFFCURVE",
"20 361 OFFCURVE",
"20 259 CURVE SMOOTH",
"20 119 OFFCURVE",
"134 -18 OFFCURVE",
"335 -18 CURVE SMOOTH",
"511 -18 OFFCURVE",
"627 71 OFFCURVE",
"645 234 CURVE"
);
}
);
width = 676;
}
);
leftKerningGroup = o_2nd;
rightKerningGroup = o1_1st;
unicode = 006F;
},
{
glyphname = p;
leftMetricsKey = "=P";
rightMetricsKey = "=P";
layers = (
{
layerId = "8cfcb29b-26a6-4086-8457-1c158349f2cd";
paths = (
{
closed = 1;
nodes = (
"36 170 LINE SMOOTH",
"66 170 OFFCURVE",
"86 190 OFFCURVE",
"86 220 CURVE SMOOTH",
"86 480 LINE SMOOTH",
"86 510 OFFCURVE",
"66 530 OFFCURVE",
"36 530 CURVE SMOOTH",
"30 530 LINE",
"30 700 LINE",
"286 700 LINE",
"286 431 LINE SMOOTH",
"286 388 OFFCURVE",
"323 360 OFFCURVE",
"368 360 CURVE SMOOTH",
"430 360 OFFCURVE",
"467 415 OFFCURVE",
"467 474 CURVE SMOOTH",
"467 516 OFFCURVE",
"449 534 OFFCURVE",
"425 534 CURVE SMOOTH",
"408 534 OFFCURVE",
"395 525 OFFCURVE",
"389 503 CURVE",
"345 516 OFFCURVE",
"322 554 OFFCURVE",
"322 595 CURVE SMOOTH",
"322 668 OFFCURVE",
"395 718 OFFCURVE",
"482 718 CURVE SMOOTH",
"593 718 OFFCURVE",
"694 636 OFFCURVE",
"694 487 CURVE SMOOTH",
"694 333 OFFCURVE",
"585 222 OFFCURVE",
"446 222 CURVE SMOOTH",
"379 222 OFFCURVE",
"321 247 OFFCURVE",
"286 300 CURVE",
"286 220 LINE SMOOTH",
"286 190 OFFCURVE",
"306 170 OFFCURVE",
"336 170 CURVE SMOOTH",
"342 170 LINE",
"342 0 LINE",
"30 0 LINE",
"30 170 LINE"
);
}
);
width = 704;
}
);
leftKerningGroup = i_2nd;
unicode = 0070;
},
{
glyphname = q;
leftMetricsKey = "=Q";
rightMetricsKey = "=Q";
layers = (
{
anchors = (
{
name = top;
position = "{338, 750}";
}
);
layerId = "8cfcb29b-26a6-4086-8457-1c158349f2cd";
paths = (
{
closed = 1;
nodes = (
"264 466 LINE",
"274 520 OFFCURVE",
"305 555 OFFCURVE",
"356 555 CURVE SMOOTH",
"398 555 OFFCURVE",
"441 532 OFFCURVE",
"441 484 CURVE SMOOTH",
"441 462 OFFCURVE",
"432 444 OFFCURVE",
"417 444 CURVE SMOOTH",
"411 444 OFFCURVE",
"406 446 OFFCURVE",
"403 449 CURVE",
"387 429 OFFCURVE",
"380 405 OFFCURVE",
"380 380 CURVE SMOOTH",
"380 315 OFFCURVE",
"430 272 OFFCURVE",
"504 272 CURVE SMOOTH",
"596 272 OFFCURVE",
"656 339 OFFCURVE",
"656 441 CURVE SMOOTH",
"656 581 OFFCURVE",
"542 718 OFFCURVE",
"341 718 CURVE SMOOTH",
"165 718 OFFCURVE",
"49 629 OFFCURVE",
"31 466 CURVE"
);
},
{
closed = 1;
nodes = (
"412 234 LINE",
"402 180 OFFCURVE",
"371 145 OFFCURVE",
"320 145 CURVE SMOOTH",
"278 145 OFFCURVE",
"235 168 OFFCURVE",
"235 216 CURVE SMOOTH",
"235 238 OFFCURVE",
"244 256 OFFCURVE",
"259 256 CURVE SMOOTH",
"265 256 OFFCURVE",
"270 254 OFFCURVE",
"273 251 CURVE",
"289 271 OFFCURVE",
"296 295 OFFCURVE",
"296 320 CURVE SMOOTH",
"296 385 OFFCURVE",
"246 428 OFFCURVE",
"172 428 CURVE SMOOTH",
"80 428 OFFCURVE",
"20 361 OFFCURVE",
"20 259 CURVE SMOOTH",
"20 119 OFFCURVE",
"134 -18 OFFCURVE",
"335 -18 CURVE SMOOTH",
"511 -18 OFFCURVE",
"627 71 OFFCURVE",
"645 234 CURVE"
);
},
{
closed = 1;
nodes = (
"295 -54 LINE",
"295 -196 OFFCURVE",
"391 -290 OFFCURVE",
"531 -290 CURVE SMOOTH",
"642 -290 OFFCURVE",
"727 -230 OFFCURVE",
"727 -126 CURVE SMOOTH",
"727 -52 OFFCURVE",
"685 6 OFFCURVE",
"611 6 CURVE SMOOTH",
"551 6 OFFCURVE",
"512 -32 OFFCURVE",
"512 -77 CURVE SMOOTH",
"512 -91 OFFCURVE",
"516 -105 OFFCURVE",
"524 -119 CURVE",
"527 -116 OFFCURVE",
"531 -115 OFFCURVE",
"535 -115 CURVE SMOOTH",
"545 -115 OFFCURVE",
"551 -123 OFFCURVE",
"551 -134 CURVE SMOOTH",
"551 -154 OFFCURVE",
"533 -174 OFFCURVE",
"494 -174 CURVE SMOOTH",
"436 -174 OFFCURVE",
"395 -130 OFFCURVE",
"395 -54 CURVE"
);
}
);
width = 661;
}
);
leftKerningGroup = o_2nd;
unicode = 0071;
},
{
glyphname = r;
leftMetricsKey = "=R";
rightMetricsKey = "=R";
layers = (
{
anchors = (
{
name = top;
position = "{334, 750}";
},
{
name = bottom;
position = "{334, -54}";
}
);
guideLines = (
{
position = "{0, 749}";
}
);
layerId = "8cfcb29b-26a6-4086-8457-1c158349f2cd";
paths = (
{
closed = 1;
nodes = (
"30 392 OFFCURVE",
"100 330 OFFCURVE",
"181 330 CURVE SMOOTH",
"251 330 OFFCURVE",
"293 376 OFFCURVE",
"293 428 CURVE SMOOTH",
"293 448 OFFCURVE",
"285 466 OFFCURVE",
"274 480 CURVE",
"271 478 OFFCURVE",
"268 477 OFFCURVE",
"264 477 CURVE SMOOTH",
"253 477 OFFCURVE",
"242 489 OFFCURVE",
"242 504 CURVE SMOOTH",
"242 533 OFFCURVE",
"279 556 OFFCURVE",
"325 556 CURVE SMOOTH",
"383 556 OFFCURVE",
"426 518 OFFCURVE",
"426 469 CURVE SMOOTH",
"426 419 OFFCURVE",
"383 374 OFFCURVE",
"323 374 CURVE",
"323 311 LINE SMOOTH",
"323 118 OFFCURVE",
"426 -18 OFFCURVE",
"564 -18 CURVE SMOOTH",
"663 -18 OFFCURVE",
"741 53 OFFCURVE",
"741 147 CURVE SMOOTH",
"741 226 OFFCURVE",
"686 291 OFFCURVE",
"608 291 CURVE SMOOTH",
"572 291 OFFCURVE",
"539 277 OFFCURVE",
"509 249 CURVE",
"518 238 OFFCURVE",
"521 230 OFFCURVE",
"521 223 CURVE SMOOTH",
"521 211 OFFCURVE",
"510 203 OFFCURVE",
"493 203 CURVE SMOOTH",
"452 203 OFFCURVE",
"419 250 OFFCURVE",
"419 318 CURVE",
"557 337 OFFCURVE",
"644 402 OFFCURVE",
"644 499 CURVE SMOOTH",
"644 621 OFFCURVE",
"508 718 OFFCURVE",
"334 718 CURVE SMOOTH",
"160 718 OFFCURVE",
"30 617 OFFCURVE",
"30 487 CURVE SMOOTH"
);
},
{
closed = 1;
nodes = (
"91 220 LINE SMOOTH",
"91 190 OFFCURVE",
"71 170 OFFCURVE",
"41 170 CURVE SMOOTH",
"35 170 LINE",
"35 0 LINE",
"281 0 LINE",
"281 301 LINE",
"91 301 LINE"
);
}
);
width = 751;
}
);
leftKerningGroup = r_2nd;
rightKerningGroup = r1_1st;
unicode = 0072;
},
{
glyphname = s;
leftMetricsKey = "=S";
rightMetricsKey = "=S";
layers = (
{
anchors = (
{
name = top;
position = "{321, 750}";
},
{
name = bottom;
position = "{326, -54}";
}
);
guideLines = (
{
angle = 107.85;
position = "{355, 260}";
},
{
angle = 90;
position = "{321, 0}";
},
{
angle = 107.85;
position = "{355, 260}";
},
{
angle = 90;
position = "{321, 0}";
}
);
layerId = "8cfcb29b-26a6-4086-8457-1c158349f2cd";
paths = (
{
closed = 1;
nodes = (
"190 0 LINE",
"190 137 LINE",
"227 16 OFFCURVE",
"324 -18 OFFCURVE",
"400 -18 CURVE SMOOTH",
"531 -18 OFFCURVE",
"622 85 OFFCURVE",
"622 213 CURVE SMOOTH",
"622 322 OFFCURVE",
"557 398 OFFCURVE",
"454 398 CURVE SMOOTH",
"361 398 OFFCURVE",
"315 341 OFFCURVE",
"315 287 CURVE SMOOTH",
"315 279 OFFCURVE",
"316 269 OFFCURVE",
"319 260 CURVE",
"325 263 OFFCURVE",
"328 263 OFFCURVE",
"330 263 CURVE",
"348 263 OFFCURVE",
"357 247 OFFCURVE",
"357 226 CURVE SMOOTH",
"357 190 OFFCURVE",
"331 167 OFFCURVE",
"291 167 CURVE SMOOTH",
"219 167 OFFCURVE",
"190 240 OFFCURVE",
"190 302 CURVE",
"190 303 LINE",
"30 303 LINE",
"30 0 LINE"
);
},
{
closed = 1;
nodes = (
"30 426 OFFCURVE",
"99 356 OFFCURVE",
"189 356 CURVE SMOOTH",
"261 356 OFFCURVE",
"299 401 OFFCURVE",
"299 451 CURVE SMOOTH",
"299 458 OFFCURVE",
"298 465 OFFCURVE",
"297 472 CURVE",
"294 470 OFFCURVE",
"289 469 OFFCURVE",
"285 469 CURVE SMOOTH",
"270 469 OFFCURVE",
"257 481 OFFCURVE",
"257 503 CURVE SMOOTH",
"257 537 OFFCURVE",
"287 556 OFFCURVE",
"322 556 CURVE SMOOTH",
"398 556 OFFCURVE",
"411 467 OFFCURVE",
"411 439 CURVE",
"571 439 LINE",
"571 700 LINE",
"411 700 LINE",
"411 583 LINE",
"379 686 OFFCURVE",
"297 718 OFFCURVE",
"225 718 CURVE SMOOTH",
"111 718 OFFCURVE",
"30 636 OFFCURVE",
"30 526 CURVE SMOOTH"
);
}
);
width = 642;
}
);
leftKerningGroup = s_2nd;
rightKerningGroup = s1_1st;
unicode = 0073;
},
{
glyphname = u;
leftMetricsKey = "=U";
rightMetricsKey = "=U";
layers = (
{
anchors = (
{
name = top;
position = "{364, 750}";
},
{
name = bottom;
position = "{558, -54}";
}
);
guideLines = (
{
angle = 90;
position = "{364, 0}";
},
{
angle = 90;
position = "{364, 0}";
}
);
layerId = "8cfcb29b-26a6-4086-8457-1c158349f2cd";
paths = (
{
closed = 1;
nodes = (
"22 700 LINE",
"22 530 LINE",
"28 530 LINE SMOOTH",
"58 530 OFFCURVE",
"78 510 OFFCURVE",
"78 480 CURVE SMOOTH",
"78 259 LINE SMOOTH",
"78 84 OFFCURVE",
"189 -18 OFFCURVE",
"362 -18 CURVE SMOOTH",
"537 -18 OFFCURVE",
"646 87 OFFCURVE",
"646 237 CURVE SMOOTH",
"646 333 OFFCURVE",
"602 392 OFFCURVE",
"532 392 CURVE SMOOTH",
"481 392 OFFCURVE",
"445 360 OFFCURVE",
"445 317 CURVE SMOOTH",
"445 301 OFFCURVE",
"450 286 OFFCURVE",
"461 268 CURVE",
"465 271 OFFCURVE",
"469 273 OFFCURVE",
"474 273 CURVE SMOOTH",
"485 273 OFFCURVE",
"489 262 OFFCURVE",
"489 244 CURVE SMOOTH",
"489 186 OFFCURVE",
"447 145 OFFCURVE",
"385 145 CURVE SMOOTH",
"318 145 OFFCURVE",
"278 194 OFFCURVE",
"278 279 CURVE SMOOTH",
"278 480 LINE SMOOTH",
"278 510 OFFCURVE",
"298 530 OFFCURVE",
"328 530 CURVE SMOOTH",
"334 530 LINE",
"334 700 LINE"
);
},
{
closed = 1;
nodes = (
"435 530 LINE",
"441 530 LINE SMOOTH",
"471 530 OFFCURVE",
"491 510 OFFCURVE",
"491 480 CURVE SMOOTH",
"491 431 LINE",
"631 431 LINE",
"631 480 LINE SMOOTH",
"631 510 OFFCURVE",
"651 530 OFFCURVE",
"681 530 CURVE SMOOTH",
"687 530 LINE",
"687 700 LINE",
"435 700 LINE"
);
}
);
width = 709;
}
);
leftKerningGroup = u_2nd;
rightKerningGroup = u1_1st;
unicode = 0075;
},
{
glyphname = v;
leftMetricsKey = "=V";
rightMetricsKey = "=V";
layers = (
{
layerId = "8cfcb29b-26a6-4086-8457-1c158349f2cd";
paths = (
{
closed = 1;
nodes = (
"604 0 LINE",
"604 170 LINE",
"598 170 LINE SMOOTH",
"568 170 OFFCURVE",
"553 189 OFFCURVE",
"561 218 CURVE SMOOTH",
"588 322 LINE",
"408 322 LINE",
"378 209 LINE",
"310 481 LINE SMOOTH",
"303 510 OFFCURVE",
"318 530 OFFCURVE",
"348 530 CURVE SMOOTH",
"354 530 LINE",
"354 700 LINE",
"10 700 LINE",
"10 530 LINE",
"36 530 LINE SMOOTH",
"66 530 OFFCURVE",
"91 511 OFFCURVE",
"98 482 CURVE SMOOTH",
"165 218 LINE SMOOTH",
"172 189 OFFCURVE",
"157 170 OFFCURVE",
"127 170 CURVE SMOOTH",
"121 170 LINE",
"121 0 LINE"
);
},
{
closed = 1;
nodes = (
"471 718 OFFCURVE",
"397 678 OFFCURVE",
"397 601 CURVE SMOOTH",
"397 544 OFFCURVE",
"437 510 OFFCURVE",
"492 510 CURVE",
"492 526 OFFCURVE",
"501 536 OFFCURVE",
"515 536 CURVE SMOOTH",
"529 536 OFFCURVE",
"538 526 OFFCURVE",
"538 510 CURVE SMOOTH",
"538 478 OFFCURVE",
"502 448 OFFCURVE",
"441 448 CURVE",
"419 364 LINE",
"630 364 OFFCURVE",
"726 448 OFFCURVE",
"726 563 CURVE SMOOTH",
"726 667 OFFCURVE",
"647 718 OFFCURVE",
"554 718 CURVE SMOOTH"
);
}
);
width = 736;
}
);
unicode = 0076;
},
{
glyphname = w;
leftMetricsKey = "=W";
rightMetricsKey = "=W";
layers = (
{
anchors = (
{
name = top;
position = "{532, 750}";
}
);
guideLines = (
{
angle = 90;
position = "{532, 0}";
},
{
angle = 90;
position = "{532, 0}";
}
);
layerId = "8cfcb29b-26a6-4086-8457-1c158349f2cd";
paths = (
{
closed = 1;
nodes = (
"22 700 LINE",
"22 530 LINE",
"28 530 LINE SMOOTH",
"58 530 OFFCURVE",
"81 510 OFFCURVE",
"84 480 CURVE SMOOTH",
"112 220 LINE SMOOTH",
"115 190 OFFCURVE",
"98 170 OFFCURVE",
"68 170 CURVE SMOOTH",
"62 170 LINE",
"62 0 LINE",
"527 0 LINE",
"527 170 LINE",
"522 170 LINE SMOOTH",
"502 170 OFFCURVE",
"490 178 OFFCURVE",
"490 191 CURVE SMOOTH",
"490 197 OFFCURVE",
"493 205 OFFCURVE",
"498 213 CURVE SMOOTH",
"641 443 LINE",
"658 472 OFFCURVE",
"669 506 OFFCURVE",
"669 540 CURVE SMOOTH",
"669 613 OFFCURVE",
"618 664 OFFCURVE",
"549 664 CURVE SMOOTH",
"481 664 OFFCURVE",
"431 615 OFFCURVE",
"431 559 CURVE SMOOTH",
"431 537 OFFCURVE",
"437 519 OFFCURVE",
"449 501 CURVE",
"454 505 OFFCURVE",
"458 507 OFFCURVE",
"463 507 CURVE SMOOTH",
"471 507 OFFCURVE",
"477 501 OFFCURVE",
"477 490 CURVE SMOOTH",
"477 484 OFFCURVE",
"475 478 OFFCURVE",
"472 472 CURVE SMOOTH",
"320 207 LINE",
"290 480 LINE SMOOTH",
"287 510 OFFCURVE",
"304 530 OFFCURVE",
"334 530 CURVE SMOOTH",
"340 530 LINE",
"340 700 LINE"
);
},
{
closed = 1;
nodes = (
"589 266 LINE",
"643 133 LINE SMOOTH",
"686 26 OFFCURVE",
"750 -18 OFFCURVE",
"839 -18 CURVE SMOOTH",
"937 -18 OFFCURVE",
"1004 42 OFFCURVE",
"1004 127 CURVE SMOOTH",
"1004 201 OFFCURVE",
"953 260 OFFCURVE",
"887 260 CURVE SMOOTH",
"866 260 OFFCURVE",
"847 254 OFFCURVE",
"832 245 CURVE",
"833 243 OFFCURVE",
"834 240 OFFCURVE",
"834 237 CURVE SMOOTH",
"834 227 OFFCURVE",
"827 217 OFFCURVE",
"815 217 CURVE SMOOTH",
"803 217 OFFCURVE",
"795 226 OFFCURVE",
"789 240 CURVE SMOOTH",
"699 450 LINE"
);
},
{
closed = 1;
nodes = (
"770 530 LINE",
"776 530 LINE SMOOTH",
"806 530 OFFCURVE",
"824 510 OFFCURVE",
"820 480 CURVE SMOOTH",
"801 323 LINE",
"961 323 LINE",
"980 480 LINE SMOOTH",
"984 510 OFFCURVE",
"1006 530 OFFCURVE",
"1036 530 CURVE SMOOTH",
"1042 530 LINE",
"1042 700 LINE",
"770 700 LINE"
);
}
);
width = 1064;
}
);
leftKerningGroup = w_2nd;
rightKerningGroup = w1_1st;
unicode = 0077;
},
{
glyphname = x;
leftMetricsKey = "=X";
rightMetricsKey = "=X";
layers = (
{
guideLines = (
{
angle = 90;
position = "{352, 0}";
},
{
angle = 90;
position = "{352, 0}";
}
);
layerId = "8cfcb29b-26a6-4086-8457-1c158349f2cd";
paths = (
{
closed = 1;
nodes = (
"238 162 OFFCURVE",
"249 149 OFFCURVE",
"262 149 CURVE SMOOTH",
"267 149 OFFCURVE",
"273 151 OFFCURVE",
"278 156 CURVE",
"288 140 OFFCURVE",
"294 120 OFFCURVE",
"294 100 CURVE SMOOTH",
"294 47 OFFCURVE",
"253 -18 OFFCURVE",
"161 -18 CURVE SMOOTH",
"72 -18 OFFCURVE",
"10 42 OFFCURVE",
"10 120 CURVE SMOOTH",
"10 190 OFFCURVE",
"59 252 OFFCURVE",
"197 333 CURVE",
"264 217 LINE",
"246 203 OFFCURVE",
"238 190 OFFCURVE",
"238 177 CURVE SMOOTH"
);
},
{
closed = 1;
nodes = (
"474 550 OFFCURVE",
"463 562 OFFCURVE",
"451 562 CURVE SMOOTH",
"446 562 OFFCURVE",
"441 560 OFFCURVE",
"436 556 CURVE",
"427 570 OFFCURVE",
"423 586 OFFCURVE",
"423 603 CURVE SMOOTH",
"423 657 OFFCURVE",
"466 718 OFFCURVE",
"549 718 CURVE SMOOTH",
"629 718 OFFCURVE",
"687 662 OFFCURVE",
"687 589 CURVE SMOOTH",
"687 524 OFFCURVE",
"641 466 OFFCURVE",
"512 390 CURVE",
"449 499 LINE",
"466 512 OFFCURVE",
"474 524 OFFCURVE",
"474 536 CURVE SMOOTH"
);
},
{
closed = 1;
nodes = (
"155 487 LINE SMOOTH",
"140 513 OFFCURVE",
"110 530 OFFCURVE",
"80 530 CURVE SMOOTH",
"45 530 LINE",
"45 700 LINE",
"287 700 LINE",
"567 213 LINE SMOOTH",
"582 187 OFFCURVE",
"612 170 OFFCURVE",
"642 170 CURVE SMOOTH",
"669 170 LINE",
"669 0 LINE",
"435 0 LINE"
);
}
);
width = 697;
}
);
unicode = 0078;
},
{
glyphname = y;
leftMetricsKey = "=Y";
rightMetricsKey = "=Y";
layers = (
{
anchors = (
{
name = top;
position = "{392, 750}";
}
);
guideLines = (
{
angle = 90;
position = "{392, 0}";
},
{
angle = 90;
position = "{392, 0}";
}
);
layerId = "8cfcb29b-26a6-4086-8457-1c158349f2cd";
paths = (
{
closed = 1;
nodes = (
"239 350 OFFCURVE",
"275 285 OFFCURVE",
"275 232 CURVE SMOOTH",
"275 223 OFFCURVE",
"274 216 OFFCURVE",
"270 208 CURVE",
"268 209 OFFCURVE",
"265 210 OFFCURVE",
"262 210 CURVE SMOOTH",
"249 210 OFFCURVE",
"238 196 OFFCURVE",
"238 179 CURVE SMOOTH",
"238 158 OFFCURVE",
"255 145 OFFCURVE",
"273 145 CURVE SMOOTH",
"293 145 OFFCURVE",
"311 160 OFFCURVE",
"326 187 CURVE SMOOTH",
"481 474 LINE SMOOTH",
"502 513 OFFCURVE",
"509 527 OFFCURVE",
"509 538 CURVE SMOOTH",
"509 548 OFFCURVE",
"502 554 OFFCURVE",
"497 554 CURVE SMOOTH",
"490 554 OFFCURVE",
"486 551 OFFCURVE",
"481 546 CURVE",
"468 559 OFFCURVE",
"455 580 OFFCURVE",
"455 612 CURVE SMOOTH",
"455 674 OFFCURVE",
"506 718 OFFCURVE",
"576 718 CURVE SMOOTH",
"649 718 OFFCURVE",
"704 670 OFFCURVE",
"704 593 CURVE SMOOTH",
"704 557 OFFCURVE",
"692 515 OFFCURVE",
"663 462 CURVE SMOOTH",
"481 133 LINE SMOOTH",
"424 29 OFFCURVE",
"353 -18 OFFCURVE",
"253 -18 CURVE SMOOTH",
"84 -18 OFFCURVE",
"10 73 OFFCURVE",
"10 182 CURVE SMOOTH",
"10 285 OFFCURVE",
"77 350 OFFCURVE",
"158 350 CURVE SMOOTH"
);
},
{
closed = 1;
nodes = (
"81 530 LINE",
"81 700 LINE",
"413 700 LINE",
"413 530 LINE",
"397 530 LINE SMOOTH",
"378 530 OFFCURVE",
"368 524 OFFCURVE",
"368 513 CURVE SMOOTH",
"368 507 OFFCURVE",
"371 499 OFFCURVE",
"378 491 CURVE SMOOTH",
"410 451 LINE",
"317 282 LINE",
"145 506 LINE SMOOTH",
"134 520 OFFCURVE",
"117 530 OFFCURVE",
"97 530 CURVE SMOOTH"
);
}
);
width = 714;
}
);
leftKerningGroup = y_2nd;
rightKerningGroup = y1_1st;
unicode = 0079;
},
{
glyphname = t;
leftMetricsKey = "=T";
rightMetricsKey = "=T";
layers = (
{
anchors = (
{
name = top;
position = "{300, 750}";
}
);
guideLines = (
{
angle = 90;
position = "{300, 0}";
},
{
angle = 90;
position = "{300, 0}";
}
);
layerId = "8cfcb29b-26a6-4086-8457-1c158349f2cd";
paths = (
{
closed = 1;
nodes = (
"10 700 LINE",
"370 700 LINE SMOOTH",
"385 700 OFFCURVE",
"391 704 OFFCURVE",
"391 714 CURVE SMOOTH",
"391 721 OFFCURVE",
"386 727 OFFCURVE",
"381 732 CURVE",
"414 765 OFFCURVE",
"445 781 OFFCURVE",
"480 781 CURVE SMOOTH",
"546 781 OFFCURVE",
"590 722 OFFCURVE",
"590 657 CURVE SMOOTH",
"590 583 OFFCURVE",
"534 530 OFFCURVE",
"456 530 CURVE SMOOTH",
"180 530 LINE SMOOTH",
"150 530 OFFCURVE",
"130 510 OFFCURVE",
"130 480 CURVE SMOOTH",
"130 439 LINE",
"10 439 LINE"
);
},
{
closed = 1;
nodes = (
"142 0 LINE",
"142 170 LINE",
"148 170 LINE SMOOTH",
"178 170 OFFCURVE",
"198 190 OFFCURVE",
"198 220 CURVE SMOOTH",
"198 470 LINE",
"398 470 LINE",
"398 220 LINE SMOOTH",
"398 190 OFFCURVE",
"418 170 OFFCURVE",
"448 170 CURVE SMOOTH",
"454 170 LINE",
"454 0 LINE"
);
}
);
width = 600;
}
);
leftKerningGroup = t_2nd;
rightKerningGroup = t1_1st;
unicode = 0074;
},
{
glyphname = oslash;
leftMetricsKey = "=Oslash";
rightMetricsKey = "=Oslash";
layers = (
{
layerId = "8cfcb29b-26a6-4086-8457-1c158349f2cd";
paths = (
{
closed = 1;
nodes = (
"264 466 LINE",
"274 520 OFFCURVE",
"305 555 OFFCURVE",
"356 555 CURVE SMOOTH",
"398 555 OFFCURVE",
"441 532 OFFCURVE",
"441 484 CURVE SMOOTH",
"441 462 OFFCURVE",
"432 444 OFFCURVE",
"417 444 CURVE SMOOTH",
"411 444 OFFCURVE",
"406 446 OFFCURVE",
"403 449 CURVE",
"387 429 OFFCURVE",
"380 405 OFFCURVE",
"380 380 CURVE SMOOTH",
"380 315 OFFCURVE",
"430 272 OFFCURVE",
"504 272 CURVE SMOOTH",
"596 272 OFFCURVE",
"656 339 OFFCURVE",
"656 441 CURVE SMOOTH",
"656 505 OFFCURVE",
"632 568 OFFCURVE",
"588 618 CURVE",
"634 702 LINE",
"481 776 LINE",
"442 705 LINE",
"411 713 OFFCURVE",
"378 718 OFFCURVE",
"341 718 CURVE SMOOTH",
"165 718 OFFCURVE",
"49 629 OFFCURVE",
"31 466 CURVE"
);
},
{
closed = 1;
nodes = (
"20 193 OFFCURVE",
"46 127 OFFCURVE",
"94 76 CURVE",
"50 -4 LINE",
"201 -80 LINE",
"241 -7 LINE",
"270 -14 OFFCURVE",
"301 -18 OFFCURVE",
"335 -18 CURVE SMOOTH",
"511 -18 OFFCURVE",
"627 71 OFFCURVE",
"645 234 CURVE",
"412 234 LINE",
"402 180 OFFCURVE",
"371 145 OFFCURVE",
"320 145 CURVE SMOOTH",
"278 145 OFFCURVE",
"235 168 OFFCURVE",
"235 216 CURVE SMOOTH",
"235 238 OFFCURVE",
"244 256 OFFCURVE",
"259 256 CURVE SMOOTH",
"265 256 OFFCURVE",
"270 254 OFFCURVE",
"273 251 CURVE",
"289 271 OFFCURVE",
"296 295 OFFCURVE",
"296 320 CURVE SMOOTH",
"296 385 OFFCURVE",
"246 428 OFFCURVE",
"172 428 CURVE SMOOTH",
"80 428 OFFCURVE",
"20 361 OFFCURVE",
"20 259 CURVE SMOOTH"
);
}
);
width = 676;
}
);
unicode = 00F8;
},
{
glyphname = ij;
leftMetricsKey = "=IJ";
rightMetricsKey = "=IJ";
layers = (
{
layerId = "8cfcb29b-26a6-4086-8457-1c158349f2cd";
paths = (
{
closed = 1;
nodes = (
"336 170 LINE SMOOTH",
"306 170 OFFCURVE",
"286 190 OFFCURVE",
"286 220 CURVE SMOOTH",
"286 480 LINE SMOOTH",
"286 510 OFFCURVE",
"306 530 OFFCURVE",
"336 530 CURVE SMOOTH",
"342 530 LINE",
"342 700 LINE",
"30 700 LINE",
"30 530 LINE",
"36 530 LINE SMOOTH",
"66 530 OFFCURVE",
"86 510 OFFCURVE",
"86 480 CURVE SMOOTH",
"86 220 LINE SMOOTH",
"86 190 OFFCURVE",
"66 170 OFFCURVE",
"36 170 CURVE SMOOTH",
"30 170 LINE",
"30 0 LINE",
"342 0 LINE",
"342 170 LINE"
);
},
{
closed = 1;
nodes = (
"387 77 OFFCURVE",
"490 -18 OFFCURVE",
"662 -18 CURVE SMOOTH",
"826 -18 OFFCURVE",
"924 67 OFFCURVE",
"924 210 CURVE SMOOTH",
"924 329 LINE",
"724 329 LINE",
"724 244 LINE SMOOTH",
"724 178 OFFCURVE",
"703 145 OFFCURVE",
"662 145 CURVE SMOOTH",
"627 145 OFFCURVE",
"600 168 OFFCURVE",
"600 195 CURVE SMOOTH",
"600 212 OFFCURVE",
"611 226 OFFCURVE",
"623 226 CURVE SMOOTH",
"626 226 OFFCURVE",
"629 225 OFFCURVE",
"631 224 CURVE",
"636 238 OFFCURVE",
"639 251 OFFCURVE",
"639 265 CURVE SMOOTH",
"639 322 OFFCURVE",
"593 374 OFFCURVE",
"526 374 CURVE SMOOTH",
"450 374 OFFCURVE",
"387 307 OFFCURVE",
"387 206 CURVE SMOOTH"
);
},
{
closed = 1;
nodes = (
"568 700 LINE",
"568 530 LINE",
"674 530 LINE SMOOTH",
"704 530 OFFCURVE",
"724 510 OFFCURVE",
"724 480 CURVE SMOOTH",
"724 389 LINE",
"924 389 LINE",
"924 480 LINE SMOOTH",
"924 510 OFFCURVE",
"944 530 OFFCURVE",
"974 530 CURVE SMOOTH",
"980 530 LINE",
"980 700 LINE"
);
}
);
width = 1000;
}
);
leftKerningGroup = i_2nd;
unicode = 0133;
},
{
glyphname = ldot;
leftMetricsKey = "=Ldot";
rightMetricsKey = "=Ldot";
layers = (
{
layerId = "8cfcb29b-26a6-4086-8457-1c158349f2cd";
paths = (
{
closed = 1;
nodes = (
"30 160 OFFCURVE",
"53 203 OFFCURVE",
"94 227 CURVE",
"98 214 OFFCURVE",
"106 207 OFFCURVE",
"116 207 CURVE SMOOTH",
"129 207 OFFCURVE",
"137 217 OFFCURVE",
"137 236 CURVE SMOOTH",
"137 480 LINE SMOOTH",
"137 510 OFFCURVE",
"117 530 OFFCURVE",
"87 530 CURVE SMOOTH",
"81 530 LINE",
"81 700 LINE",
"393 700 LINE",
"393 530 LINE",
"387 530 LINE SMOOTH",
"357 530 OFFCURVE",
"337 510 OFFCURVE",
"337 480 CURVE SMOOTH",
"337 172 LINE SMOOTH",
"337 47 OFFCURVE",
"280 -18 OFFCURVE",
"180 -18 CURVE SMOOTH",
"89 -18 OFFCURVE",
"30 36 OFFCURVE",
"30 112 CURVE SMOOTH"
);
},
{
closed = 1;
nodes = (
"382 170 LINE",
"638 170 LINE",
"638 0 LINE",
"382 0 LINE"
);
},
{
closed = 1;
nodes = (
"382 422 OFFCURVE",
"434 470 OFFCURVE",
"512 470 CURVE SMOOTH",
"589 470 OFFCURVE",
"641 422 OFFCURVE",
"641 351 CURVE SMOOTH",
"641 279 OFFCURVE",
"589 231 OFFCURVE",
"512 231 CURVE SMOOTH",
"434 231 OFFCURVE",
"382 279 OFFCURVE",
"382 351 CURVE SMOOTH"
);
}
);
width = 656;
}
);
leftKerningGroup = l_2nd;
unicode = 0140;
},
{
glyphname = wdieresis;
leftMetricsKey = "=Wdieresis";
rightMetricsKey = "=Wdieresis";
layers = (
{
components = (
{
name = dieresis;
transform = "{1, 0, 0, 1, 235, 0}";
alignment = -1;
}
);
layerId = "8cfcb29b-26a6-4086-8457-1c158349f2cd";
paths = (
{
closed = 1;
nodes = (
"22 700 LINE",
"22 530 LINE",
"28 530 LINE SMOOTH",
"58 530 OFFCURVE",
"81 510 OFFCURVE",
"84 480 CURVE SMOOTH",
"112 220 LINE SMOOTH",
"115 190 OFFCURVE",
"98 170 OFFCURVE",
"68 170 CURVE SMOOTH",
"62 170 LINE",
"62 0 LINE",
"527 0 LINE",
"527 170 LINE",
"522 170 LINE SMOOTH",
"502 170 OFFCURVE",
"490 178 OFFCURVE",
"490 191 CURVE SMOOTH",
"490 197 OFFCURVE",
"493 205 OFFCURVE",
"498 213 CURVE SMOOTH",
"641 443 LINE SMOOTH",
"658 472 OFFCURVE",
"669 506 OFFCURVE",
"669 540 CURVE SMOOTH",
"669 613 OFFCURVE",
"618 664 OFFCURVE",
"549 664 CURVE SMOOTH",
"481 664 OFFCURVE",
"431 615 OFFCURVE",
"431 559 CURVE SMOOTH",
"431 537 OFFCURVE",
"437 519 OFFCURVE",
"449 501 CURVE",
"454 505 OFFCURVE",
"458 507 OFFCURVE",
"463 507 CURVE SMOOTH",
"471 507 OFFCURVE",
"477 501 OFFCURVE",
"477 490 CURVE SMOOTH",
"477 484 OFFCURVE",
"475 478 OFFCURVE",
"472 472 CURVE SMOOTH",
"320 207 LINE",
"290 480 LINE SMOOTH",
"287 510 OFFCURVE",
"304 530 OFFCURVE",
"334 530 CURVE SMOOTH",
"340 530 LINE",
"340 700 LINE"
);
},
{
closed = 1;
nodes = (
"589 266 LINE",
"643 133 LINE SMOOTH",
"686 26 OFFCURVE",
"750 -18 OFFCURVE",
"839 -18 CURVE SMOOTH",
"937 -18 OFFCURVE",
"1004 42 OFFCURVE",
"1004 127 CURVE SMOOTH",
"1004 201 OFFCURVE",
"953 260 OFFCURVE",
"887 260 CURVE SMOOTH",
"866 260 OFFCURVE",
"847 254 OFFCURVE",
"832 245 CURVE",
"833 243 OFFCURVE",
"834 240 OFFCURVE",
"834 237 CURVE SMOOTH",
"834 227 OFFCURVE",
"827 217 OFFCURVE",
"815 217 CURVE SMOOTH",
"803 217 OFFCURVE",
"795 226 OFFCURVE",
"789 240 CURVE SMOOTH",
"699 450 LINE"
);
},
{
closed = 1;
nodes = (
"770 530 LINE",
"776 530 LINE SMOOTH",
"806 530 OFFCURVE",
"824 510 OFFCURVE",
"820 480 CURVE SMOOTH",
"801 323 LINE",
"961 323 LINE",
"980 480 LINE SMOOTH",
"984 510 OFFCURVE",
"1006 530 OFFCURVE",
"1036 530 CURVE SMOOTH",
"1042 530 LINE",
"1042 700 LINE",
"770 700 LINE"
);
}
);
width = 1064;
}
);
leftKerningGroup = w_2nd;
rightKerningGroup = w1_1st;
unicode = 1E85;
},
{
glyphname = Tbar;
leftMetricsKey = "=T";
rightMetricsKey = "=T";
layers = (
{
anchors = (
{
name = top;
position = "{300, 750}";
}
);
guideLines = (
{
angle = 90;
position = "{298, 0}";
},
{
angle = 90;
position = "{300, 0}";
}
);
layerId = "8cfcb29b-26a6-4086-8457-1c158349f2cd";
paths = (
{
closed = 1;
nodes = (
"198 362 LINE",
"198 470 LINE",
"398 470 LINE",
"398 362 LINE",
"498 362 LINE",
"498 277 LINE",
"398 277 LINE",
"398 220 LINE SMOOTH",
"398 190 OFFCURVE",
"418 170 OFFCURVE",
"448 170 CURVE SMOOTH",
"454 170 LINE",
"454 0 LINE",
"142 0 LINE",
"142 170 LINE",
"148 170 LINE SMOOTH",
"178 170 OFFCURVE",
"198 190 OFFCURVE",
"198 220 CURVE SMOOTH",
"198 277 LINE",
"98 277 LINE",
"98 362 LINE"
);
},
{
closed = 1;
nodes = (
"10 439 LINE",
"10 700 LINE",
"370 700 LINE SMOOTH",
"385 700 OFFCURVE",
"391 704 OFFCURVE",
"391 714 CURVE SMOOTH",
"391 721 OFFCURVE",
"386 727 OFFCURVE",
"381 732 CURVE",
"414 765 OFFCURVE",
"445 781 OFFCURVE",
"480 781 CURVE SMOOTH",
"546 781 OFFCURVE",
"590 722 OFFCURVE",
"590 657 CURVE SMOOTH",
"590 583 OFFCURVE",
"534 530 OFFCURVE",
"456 530 CURVE SMOOTH",
"180 530 LINE SMOOTH",
"150 530 OFFCURVE",
"130 510 OFFCURVE",
"130 480 CURVE SMOOTH",
"130 439 LINE"
);
}
);
width = 600;
}
);
unicode = 0166;
},
{
glyphname = breve;
layers = (
{
anchors = (
{
name = _top;
position = "{306, 750}";
}
);
guideLines = (
{
angle = 90;
position = "{306, 0}";
}
);
layerId = "8cfcb29b-26a6-4086-8457-1c158349f2cd";
paths = (
{
closed = 1;
nodes = (
"25 991 OFFCURVE",
"70 1038 OFFCURVE",
"125 1038 CURVE SMOOTH",
"159 1038 OFFCURVE",
"191 1020 OFFCURVE",
"205 980 CURVE",
"188 974 OFFCURVE",
"183 965 OFFCURVE",
"183 956 CURVE SMOOTH",
"183 936 OFFCURVE",
"226 901 OFFCURVE",
"306 901 CURVE SMOOTH",
"386 901 OFFCURVE",
"429 936 OFFCURVE",
"429 956 CURVE SMOOTH",
"429 965 OFFCURVE",
"424 974 OFFCURVE",
"407 980 CURVE",
"421 1020 OFFCURVE",
"453 1038 OFFCURVE",
"487 1038 CURVE SMOOTH",
"542 1038 OFFCURVE",
"587 991 OFFCURVE",
"587 926 CURVE SMOOTH",
"587 818 OFFCURVE",
"474 750 OFFCURVE",
"306 750 CURVE SMOOTH",
"138 750 OFFCURVE",
"25 818 OFFCURVE",
"25 926 CURVE SMOOTH"
);
}
);
width = 612;
}
);
rightKerningGroup = breve_1st;
unicode = 02D8;
},
{
glyphname = caron;
layers = (
{
anchors = (
{
name = _top;
position = "{299, 750}";
}
);
guideLines = (
{
angle = 90;
position = "{299, 0}";
}
);
layerId = "8cfcb29b-26a6-4086-8457-1c158349f2cd";
paths = (
{
closed = 1;
nodes = (
"545 1030 OFFCURVE",
"509 1081 OFFCURVE",
"447 1081 CURVE SMOOTH",
"398 1081 OFFCURVE",
"360 1050 OFFCURVE",
"360 1012 CURVE SMOOTH",
"360 1001 OFFCURVE",
"363 987 OFFCURVE",
"370 974 CURVE",
"374 977 OFFCURVE",
"377 978 OFFCURVE",
"381 978 CURVE SMOOTH",
"391 978 OFFCURVE",
"399 971 OFFCURVE",
"399 961 CURVE SMOOTH",
"399 939 OFFCURVE",
"363 907 OFFCURVE",
"299 877 CURVE",
"235 907 OFFCURVE",
"199 939 OFFCURVE",
"199 961 CURVE SMOOTH",
"199 971 OFFCURVE",
"207 978 OFFCURVE",
"217 978 CURVE SMOOTH",
"221 978 OFFCURVE",
"224 977 OFFCURVE",
"228 974 CURVE",
"235 987 OFFCURVE",
"238 1001 OFFCURVE",
"238 1012 CURVE SMOOTH",
"238 1050 OFFCURVE",
"200 1081 OFFCURVE",
"151 1081 CURVE SMOOTH",
"89 1081 OFFCURVE",
"53 1030 OFFCURVE",
"53 969 CURVE SMOOTH",
"53 845 OFFCURVE",
"203 792 OFFCURVE",
"299 750 CURVE",
"395 792 OFFCURVE",
"545 845 OFFCURVE",
"545 969 CURVE SMOOTH"
);
}
);
width = 598;
}
);
unicode = 02C7;
},
{
glyphname = circumflex;
layers = (
{
anchors = (
{
name = _top;
position = "{259, 750}";
}
);
guideLines = (
{
angle = 90;
position = "{259, 0}";
}
);
layerId = "8cfcb29b-26a6-4086-8457-1c158349f2cd";
paths = (
{
closed = 1;
nodes = (
"505 801 OFFCURVE",
"469 750 OFFCURVE",
"407 750 CURVE SMOOTH",
"358 750 OFFCURVE",
"320 781 OFFCURVE",
"320 819 CURVE SMOOTH",
"320 830 OFFCURVE",
"323 844 OFFCURVE",
"330 857 CURVE",
"334 854 OFFCURVE",
"337 853 OFFCURVE",
"341 853 CURVE SMOOTH",
"351 853 OFFCURVE",
"359 860 OFFCURVE",
"359 870 CURVE SMOOTH",
"359 892 OFFCURVE",
"323 924 OFFCURVE",
"259 954 CURVE",
"195 924 OFFCURVE",
"159 892 OFFCURVE",
"159 870 CURVE SMOOTH",
"159 860 OFFCURVE",
"167 853 OFFCURVE",
"177 853 CURVE SMOOTH",
"181 853 OFFCURVE",
"184 854 OFFCURVE",
"188 857 CURVE",
"195 844 OFFCURVE",
"198 830 OFFCURVE",
"198 819 CURVE SMOOTH",
"198 781 OFFCURVE",
"160 750 OFFCURVE",
"111 750 CURVE SMOOTH",
"49 750 OFFCURVE",
"13 801 OFFCURVE",
"13 862 CURVE SMOOTH",
"13 986 OFFCURVE",
"163 1039 OFFCURVE",
"259 1081 CURVE",
"355 1039 OFFCURVE",
"505 986 OFFCURVE",
"505 862 CURVE SMOOTH"
);
}
);
width = 518;
}
);
unicode = 02C6;
},
{
glyphname = macron;
layers = (
{
anchors = (
{
name = _top;
position = "{250, 750}";
}
);
layerId = "8cfcb29b-26a6-4086-8457-1c158349f2cd";
paths = (
{
closed = 1;
nodes = (
"21 766 LINE",
"478 766 LINE",
"478 931 LINE",
"21 931 LINE"
);
}
);
width = 500;
}
);
leftKerningGroup = macron_2nd;
rightKerningGroup = macron1_1st;
unicode = 00AF;
},
{
glyphname = cedilla;
layers = (
{
anchors = (
{
name = _bottom;
position = "{171, -54}";
}
);
guideLines = (
{
angle = 90;
position = "{171, 0}";
}
);
layerId = "8cfcb29b-26a6-4086-8457-1c158349f2cd";
paths = (
{
closed = 1;
nodes = (
"239 -356 OFFCURVE",
"317 -305 OFFCURVE",
"317 -224 CURVE SMOOTH",
"317 -184 OFFCURVE",
"297 -116 OFFCURVE",
"171 -96 CURVE",
"194 -54 LINE",
"98 -54 LINE",
"48 -146 LINE",
"81 -146 OFFCURVE",
"179 -147 OFFCURVE",
"179 -195 CURVE SMOOTH",
"179 -215 OFFCURVE",
"162 -224 OFFCURVE",
"146 -224 CURVE SMOOTH",
"124 -224 OFFCURVE",
"103 -208 OFFCURVE",
"103 -188 CURVE",
"69 -188 OFFCURVE",
"25 -210 OFFCURVE",
"25 -263 CURVE SMOOTH",
"25 -334 OFFCURVE",
"105 -356 OFFCURVE",
"158 -356 CURVE SMOOTH"
);
}
);
width = 342;
}
);
unicode = 00B8;
},
{
glyphname = uni0163;
leftMetricsKey = "=uni0162";
rightMetricsKey = "=uni0162";
layers = (
{
components = (
{
name = t;
alignment = -1;
}
);
layerId = "8cfcb29b-26a6-4086-8457-1c158349f2cd";
paths = (
{
closed = 1;
nodes = (
"358 -356 OFFCURVE",
"436 -305 OFFCURVE",
"436 -224 CURVE SMOOTH",
"436 -184 OFFCURVE",
"416 -116 OFFCURVE",
"290 -96 CURVE",
"313 -54 LINE",
"217 -54 LINE",
"167 -146 LINE",
"200 -146 OFFCURVE",
"298 -147 OFFCURVE",
"298 -195 CURVE SMOOTH",
"298 -215 OFFCURVE",
"281 -224 OFFCURVE",
"265 -224 CURVE SMOOTH",
"243 -224 OFFCURVE",
"222 -208 OFFCURVE",
"222 -188 CURVE",
"188 -188 OFFCURVE",
"144 -210 OFFCURVE",
"144 -263 CURVE SMOOTH",
"144 -334 OFFCURVE",
"224 -356 OFFCURVE",
"277 -356 CURVE SMOOTH"
);
}
);
width = 600;
}
);
leftKerningGroup = t_2nd;
rightKerningGroup = t1_1st;
unicode = 0163;
},
{
glyphname = mu;
leftMetricsKey = "=U";
rightMetricsKey = "=U";
layers = (
{
components = (
{
name = U;
alignment = -1;
}
);
layerId = "8cfcb29b-26a6-4086-8457-1c158349f2cd";
paths = (
{
closed = 1;
nodes = (
"324 -165 LINE SMOOTH",
"294 -165 OFFCURVE",
"274 -145 OFFCURVE",
"274 -115 CURVE SMOOTH",
"274 -55 LINE",
"74 -55 LINE",
"74 -336 LINE",
"330 -336 LINE",
"330 -165 LINE"
);
}
);
width = 709;
}
);
unicode = 00B5;
},
{
glyphname = guilsinglleft;
leftMetricsKey = "=V";
rightMetricsKey = "=V";
layers = (
{
layerId = "8cfcb29b-26a6-4086-8457-1c158349f2cd";
paths = (
{
closed = 1;
nodes = (
"53 419 OFFCURVE",
"128 569 OFFCURVE",
"256 569 CURVE SMOOTH",
"319 569 OFFCURVE",
"371 533 OFFCURVE",
"371 472 CURVE SMOOTH",
"371 422 OFFCURVE",
"337 384 OFFCURVE",
"296 384 CURVE SMOOTH",
"284 384 OFFCURVE",
"268 387 OFFCURVE",
"254 394 CURVE",
"257 398 OFFCURVE",
"258 401 OFFCURVE",
"258 405 CURVE SMOOTH",
"258 415 OFFCURVE",
"251 423 OFFCURVE",
"241 423 CURVE SMOOTH",
"219 423 OFFCURVE",
"187 387 OFFCURVE",
"157 323 CURVE",
"187 259 OFFCURVE",
"219 223 OFFCURVE",
"241 223 CURVE SMOOTH",
"251 223 OFFCURVE",
"258 231 OFFCURVE",
"258 241 CURVE SMOOTH",
"258 245 OFFCURVE",
"257 248 OFFCURVE",
"254 252 CURVE",
"268 259 OFFCURVE",
"284 262 OFFCURVE",
"296 262 CURVE SMOOTH",
"337 262 OFFCURVE",
"371 224 OFFCURVE",
"371 174 CURVE SMOOTH",
"371 113 OFFCURVE",
"319 77 OFFCURVE",
"256 77 CURVE SMOOTH",
"128 77 OFFCURVE",
"53 227 OFFCURVE",
"10 323 CURVE"
);
}
);
width = 381;
}
);
leftKerningGroup = guillemotleft_2nd;
rightKerningGroup = guillemotleft1_1st;
unicode = 2039;
},
{
glyphname = guillemotleft;
leftMetricsKey = "=V";
rightMetricsKey = "=V";
layers = (
{
layerId = "8cfcb29b-26a6-4086-8457-1c158349f2cd";
paths = (
{
closed = 1;
nodes = (
"393 419 OFFCURVE",
"468 569 OFFCURVE",
"596 569 CURVE SMOOTH",
"659 569 OFFCURVE",
"711 533 OFFCURVE",
"711 472 CURVE SMOOTH",
"711 422 OFFCURVE",
"677 384 OFFCURVE",
"636 384 CURVE SMOOTH",
"624 384 OFFCURVE",
"608 387 OFFCURVE",
"594 394 CURVE",
"597 398 OFFCURVE",
"598 401 OFFCURVE",
"598 405 CURVE SMOOTH",
"598 415 OFFCURVE",
"591 423 OFFCURVE",
"581 423 CURVE SMOOTH",
"559 423 OFFCURVE",
"527 387 OFFCURVE",
"497 323 CURVE",
"527 259 OFFCURVE",
"559 223 OFFCURVE",
"581 223 CURVE SMOOTH",
"591 223 OFFCURVE",
"598 231 OFFCURVE",
"598 241 CURVE SMOOTH",
"598 245 OFFCURVE",
"597 248 OFFCURVE",
"594 252 CURVE",
"608 259 OFFCURVE",
"624 262 OFFCURVE",
"636 262 CURVE SMOOTH",
"677 262 OFFCURVE",
"711 224 OFFCURVE",
"711 174 CURVE SMOOTH",
"711 113 OFFCURVE",
"659 77 OFFCURVE",
"596 77 CURVE SMOOTH",
"468 77 OFFCURVE",
"393 227 OFFCURVE",
"350 323 CURVE"
);
},
{
closed = 1;
nodes = (
"53 419 OFFCURVE",
"128 569 OFFCURVE",
"256 569 CURVE SMOOTH",
"319 569 OFFCURVE",
"371 533 OFFCURVE",
"371 472 CURVE SMOOTH",
"371 422 OFFCURVE",
"337 384 OFFCURVE",
"296 384 CURVE SMOOTH",
"284 384 OFFCURVE",
"268 387 OFFCURVE",
"254 394 CURVE",
"257 398 OFFCURVE",
"258 401 OFFCURVE",
"258 405 CURVE SMOOTH",
"258 415 OFFCURVE",
"251 423 OFFCURVE",
"241 423 CURVE SMOOTH",
"219 423 OFFCURVE",
"187 387 OFFCURVE",
"157 323 CURVE",
"187 259 OFFCURVE",
"219 223 OFFCURVE",
"241 223 CURVE SMOOTH",
"251 223 OFFCURVE",
"258 231 OFFCURVE",
"258 241 CURVE SMOOTH",
"258 245 OFFCURVE",
"257 248 OFFCURVE",
"254 252 CURVE",
"268 259 OFFCURVE",
"284 262 OFFCURVE",
"296 262 CURVE SMOOTH",
"337 262 OFFCURVE",
"371 224 OFFCURVE",
"371 174 CURVE SMOOTH",
"371 113 OFFCURVE",
"319 77 OFFCURVE",
"256 77 CURVE SMOOTH",
"128 77 OFFCURVE",
"53 227 OFFCURVE",
"10 323 CURVE"
);
}
);
width = 721;
}
);
leftKerningGroup = guillemotleft_2nd;
rightKerningGroup = guillemotleft1_1st;
unicode = 00AB;
},
{
glyphname = yen;
leftMetricsKey = "=Y";
rightMetricsKey = "=Y";
layers = (
{
layerId = "8cfcb29b-26a6-4086-8457-1c158349f2cd";
paths = (
{
closed = 1;
nodes = (
"10 73 OFFCURVE",
"84 -18 OFFCURVE",
"253 -18 CURVE SMOOTH",
"353 -18 OFFCURVE",
"424 29 OFFCURVE",
"481 133 CURVE SMOOTH",
"513 191 LINE",
"699 191 LINE",
"699 276 LINE",
"374 276 LINE",
"326 187 LINE SMOOTH",
"311 160 OFFCURVE",
"293 145 OFFCURVE",
"273 145 CURVE SMOOTH",
"255 145 OFFCURVE",
"238 158 OFFCURVE",
"238 179 CURVE SMOOTH",
"238 196 OFFCURVE",
"249 210 OFFCURVE",
"262 210 CURVE SMOOTH",
"265 210 OFFCURVE",
"268 209 OFFCURVE",
"270 208 CURVE",
"274 216 OFFCURVE",
"275 223 OFFCURVE",
"275 233 CURVE SMOOTH",
"275 285 OFFCURVE",
"239 350 OFFCURVE",
"158 350 CURVE SMOOTH",
"77 350 OFFCURVE",
"10 285 OFFCURVE",
"10 182 CURVE SMOOTH"
);
},
{
closed = 1;
nodes = (
"81 530 LINE",
"97 530 LINE SMOOTH",
"115 530 OFFCURVE",
"134 520 OFFCURVE",
"145 506 CURVE SMOOTH",
"317 282 LINE",
"410 451 LINE",
"378 491 LINE SMOOTH",
"371 499 OFFCURVE",
"368 507 OFFCURVE",
"368 513 CURVE SMOOTH",
"368 524 OFFCURVE",
"378 530 OFFCURVE",
"397 530 CURVE SMOOTH",
"413 530 LINE",
"413 700 LINE",
"81 700 LINE"
);
},
{
closed = 1;
nodes = (
"406 336 LINE",
"699 336 LINE",
"699 421 LINE",
"640 421 LINE",
"663 462 LINE SMOOTH",
"692 515 OFFCURVE",
"704 557 OFFCURVE",
"704 593 CURVE SMOOTH",
"704 670 OFFCURVE",
"649 718 OFFCURVE",
"576 718 CURVE SMOOTH",
"506 718 OFFCURVE",
"455 674 OFFCURVE",
"455 612 CURVE SMOOTH",
"455 580 OFFCURVE",
"468 559 OFFCURVE",
"481 546 CURVE",
"486 551 OFFCURVE",
"490 554 OFFCURVE",
"497 554 CURVE SMOOTH",
"502 554 OFFCURVE",
"509 548 OFFCURVE",
"509 538 CURVE SMOOTH",
"509 527 OFFCURVE",
"502 513 OFFCURVE",
"481 474 CURVE SMOOTH"
);
}
);
width = 714;
}
);
unicode = 00A5;
},
{
glyphname = Thorn;
leftMetricsKey = "=P";
rightMetricsKey = "=P";
layers = (
{
guideLines = (
{
position = "{0, 350}";
}
);
layerId = "8cfcb29b-26a6-4086-8457-1c158349f2cd";
paths = (
{
closed = 1;
nodes = (
"30 700 LINE",
"286 700 LINE",
"286 311 LINE SMOOTH",
"286 268 OFFCURVE",
"323 240 OFFCURVE",
"368 240 CURVE SMOOTH",
"430 240 OFFCURVE",
"467 295 OFFCURVE",
"467 354 CURVE SMOOTH",
"467 396 OFFCURVE",
"449 414 OFFCURVE",
"425 414 CURVE SMOOTH",
"408 414 OFFCURVE",
"395 405 OFFCURVE",
"389 383 CURVE",
"345 396 OFFCURVE",
"322 434 OFFCURVE",
"322 475 CURVE SMOOTH",
"322 548 OFFCURVE",
"395 598 OFFCURVE",
"482 598 CURVE SMOOTH",
"593 598 OFFCURVE",
"694 516 OFFCURVE",
"694 367 CURVE SMOOTH",
"694 213 OFFCURVE",
"585 102 OFFCURVE",
"446 102 CURVE SMOOTH",
"379 102 OFFCURVE",
"321 127 OFFCURVE",
"286 180 CURVE",
"286 0 LINE",
"30 0 LINE",
"30 170 LINE",
"36 170 LINE SMOOTH",
"66 170 OFFCURVE",
"86 190 OFFCURVE",
"86 220 CURVE SMOOTH",
"86 480 LINE SMOOTH",
"86 510 OFFCURVE",
"66 530 OFFCURVE",
"36 530 CURVE SMOOTH",
"30 530 LINE"
);
}
);
width = 704;
}
);
leftKerningGroup = F_2nd;
unicode = 00DE;
},
{
glyphname = franc;
leftMetricsKey = "=F";
rightMetricsKey = "=F";
layers = (
{
layerId = "8cfcb29b-26a6-4086-8457-1c158349f2cd";
paths = (
{
closed = 1;
nodes = (
"342 0 LINE",
"342 170 LINE",
"336 170 LINE SMOOTH",
"306 170 OFFCURVE",
"286 191 OFFCURVE",
"286 221 CURVE SMOOTH",
"286 263 OFFCURVE",
"327 303 OFFCURVE",
"370 303 CURVE SMOOTH",
"399 303 OFFCURVE",
"421 287 OFFCURVE",
"421 266 CURVE SMOOTH",
"421 253 OFFCURVE",
"413 242 OFFCURVE",
"401 239 CURVE",
"419 182 OFFCURVE",
"451 154 OFFCURVE",
"499 154 CURVE SMOOTH",
"569 154 OFFCURVE",
"613 212 OFFCURVE",
"613 278 CURVE SMOOTH",
"613 364 OFFCURVE",
"541 433 OFFCURVE",
"448 433 CURVE SMOOTH",
"374 433 OFFCURVE",
"310 396 OFFCURVE",
"286 324 CURVE",
"286 381 LINE",
"30 381 LINE",
"30 296 LINE",
"86 296 LINE",
"86 220 LINE SMOOTH",
"86 190 OFFCURVE",
"66 170 OFFCURVE",
"36 170 CURVE SMOOTH",
"30 170 LINE",
"30 0 LINE"
);
},
{
closed = 1;
nodes = (
"30 530 LINE",
"36 530 LINE SMOOTH",
"66 530 OFFCURVE",
"86 510 OFFCURVE",
"86 480 CURVE SMOOTH",
"86 441 LINE",
"286 441 LINE",
"286 480 LINE SMOOTH",
"286 510 OFFCURVE",
"306 530 OFFCURVE",
"336 530 CURVE SMOOTH",
"342 530 LINE",
"342 700 LINE",
"30 700 LINE"
);
},
{
closed = 1;
nodes = (
"423 700 LINE",
"423 530 LINE",
"479 530 LINE SMOOTH",
"509 530 OFFCURVE",
"529 510 OFFCURVE",
"529 480 CURVE SMOOTH",
"529 465 LINE",
"649 465 LINE",
"649 700 LINE"
);
}
);
width = 674;
}
);
unicode = 20A3;
},
{
glyphname = cent;
leftMetricsKey = "=C";
rightMetricsKey = "=C";
layers = (
{
layerId = "8cfcb29b-26a6-4086-8457-1c158349f2cd";
paths = (
{
closed = 1;
nodes = (
"253 389 LINE",
"260 498 OFFCURVE",
"297 556 OFFCURVE",
"363 556 CURVE SMOOTH",
"401 556 OFFCURVE",
"449 535 OFFCURVE",
"449 491 CURVE SMOOTH",
"449 475 OFFCURVE",
"442 464 OFFCURVE",
"434 464 CURVE SMOOTH",
"431 464 OFFCURVE",
"427 465 OFFCURVE",
"424 468 CURVE",
"416 459 OFFCURVE",
"411 445 OFFCURVE",
"411 428 CURVE SMOOTH",
"411 381 OFFCURVE",
"448 336 OFFCURVE",
"512 336 CURVE SMOOTH",
"588 336 OFFCURVE",
"635 398 OFFCURVE",
"635 479 CURVE SMOOTH",
"635 599 OFFCURVE",
"543 689 OFFCURVE",
"407 712 CURVE",
"407 857 LINE",
"247 857 LINE",
"247 708 LINE",
"110 676 OFFCURVE",
"31 565 OFFCURVE",
"21 389 CURVE"
);
},
{
closed = 1;
nodes = (
"247 -144 LINE",
"407 -144 LINE",
"407 -13 LINE",
"548 9 OFFCURVE",
"630 105 OFFCURVE",
"642 263 CURVE",
"482 263 LINE",
"473 198 OFFCURVE",
"440 145 OFFCURVE",
"370 145 CURVE SMOOTH",
"291 145 OFFCURVE",
"252 199 OFFCURVE",
"252 329 CURVE",
"20 329 LINE",
"20 129 OFFCURVE",
"96 20 OFFCURVE",
"247 -10 CURVE"
);
}
);
width = 657;
}
);
unicode = 00A2;
},
{
glyphname = lira;
leftMetricsKey = "=L";
rightMetricsKey = "=L";
layers = (
{
layerId = "8cfcb29b-26a6-4086-8457-1c158349f2cd";
paths = (
{
closed = 1;
nodes = (
"30 465 LINE",
"30 380 LINE",
"393 380 LINE",
"393 465 LINE",
"286 465 LINE",
"286 480 LINE SMOOTH",
"286 510 OFFCURVE",
"306 530 OFFCURVE",
"336 530 CURVE SMOOTH",
"342 530 LINE",
"342 700 LINE",
"30 700 LINE",
"30 530 LINE",
"36 530 LINE SMOOTH",
"66 530 OFFCURVE",
"86 510 OFFCURVE",
"86 480 CURVE SMOOTH",
"86 465 LINE"
);
},
{
closed = 1;
nodes = (
"30 0 LINE",
"286 0 LINE",
"286 235 LINE",
"393 235 LINE",
"393 320 LINE",
"30 320 LINE",
"30 235 LINE",
"86 235 LINE",
"86 220 LINE SMOOTH",
"86 190 OFFCURVE",
"66 170 OFFCURVE",
"36 170 CURVE SMOOTH",
"30 170 LINE"
);
},
{
closed = 1;
nodes = (
"331 170 LINE",
"331 0 LINE",
"597 0 LINE",
"597 285 LINE",
"457 285 LINE",
"457 220 LINE SMOOTH",
"457 190 OFFCURVE",
"437 170 OFFCURVE",
"407 170 CURVE SMOOTH"
);
}
);
width = 612;
}
);
unicode = 20A4;
},
{
glyphname = Euro;
leftMetricsKey = "=C";
rightMetricsKey = "=C";
layers = (
{
anchors = (
{
name = top;
position = "{386, 750}";
}
);
layerId = "8cfcb29b-26a6-4086-8457-1c158349f2cd";
paths = (
{
closed = 1;
nodes = (
"85 465 LINE",
"117 628 OFFCURVE",
"223 718 OFFCURVE",
"389 718 CURVE SMOOTH",
"564 718 OFFCURVE",
"689 619 OFFCURVE",
"689 479 CURVE SMOOTH",
"689 398 OFFCURVE",
"642 336 OFFCURVE",
"566 336 CURVE SMOOTH",
"502 336 OFFCURVE",
"465 381 OFFCURVE",
"465 428 CURVE SMOOTH",
"465 445 OFFCURVE",
"470 459 OFFCURVE",
"478 468 CURVE",
"481 465 OFFCURVE",
"485 464 OFFCURVE",
"488 464 CURVE SMOOTH",
"496 464 OFFCURVE",
"503 475 OFFCURVE",
"503 491 CURVE SMOOTH",
"503 528 OFFCURVE",
"463 556 OFFCURVE",
"417 556 CURVE SMOOTH",
"368 556 OFFCURVE",
"336 524 OFFCURVE",
"319 465 CURVE",
"383 465 LINE",
"383 380 LINE",
"20 380 LINE",
"20 465 LINE"
);
},
{
closed = 1;
nodes = (
"20 320 LINE",
"383 320 LINE",
"383 235 LINE",
"317 235 LINE",
"333 172 OFFCURVE",
"368 145 OFFCURVE",
"424 145 CURVE SMOOTH",
"486 145 OFFCURVE",
"526 188 OFFCURVE",
"536 263 CURVE",
"696 263 LINE",
"682 81 OFFCURVE",
"576 -18 OFFCURVE",
"394 -18 CURVE SMOOTH",
"212 -18 OFFCURVE",
"111 63 OFFCURVE",
"83 235 CURVE",
"20 235 LINE"
);
}
);
width = 711;
}
);
unicode = 20AC;
},
{
glyphname = peseta;
leftMetricsKey = "=P";
rightMetricsKey = "=P";
layers = (
{
anchors = (
{
name = top;
position = "{1610, 750}";
}
);
guideLines = (
{
position = "{0, 350}";
},
{
position = "{0, 350}";
}
);
layerId = "8cfcb29b-26a6-4086-8457-1c158349f2cd";
paths = (
{
closed = 1;
nodes = (
"90 370 LINE",
"30 370 LINE",
"30 455 LINE",
"90 455 LINE",
"90 480 LINE SMOOTH",
"90 510 OFFCURVE",
"70 530 OFFCURVE",
"40 530 CURVE SMOOTH",
"34 530 LINE",
"34 700 LINE",
"290 700 LINE",
"290 431 LINE SMOOTH",
"290 385 OFFCURVE",
"330 360 OFFCURVE",
"372 360 CURVE SMOOTH",
"434 360 OFFCURVE",
"471 415 OFFCURVE",
"471 474 CURVE SMOOTH",
"471 516 OFFCURVE",
"453 534 OFFCURVE",
"429 534 CURVE SMOOTH",
"412 534 OFFCURVE",
"399 525 OFFCURVE",
"393 503 CURVE",
"349 516 OFFCURVE",
"326 554 OFFCURVE",
"326 595 CURVE SMOOTH",
"326 668 OFFCURVE",
"399 718 OFFCURVE",
"486 718 CURVE SMOOTH",
"597 718 OFFCURVE",
"698 636 OFFCURVE",
"698 487 CURVE SMOOTH",
"698 476 OFFCURVE",
"697 465 OFFCURVE",
"696 455 CURVE",
"726 455 LINE",
"726 370 LINE",
"674 370 LINE",
"635 280 OFFCURVE",
"550 222 OFFCURVE",
"450 222 CURVE SMOOTH",
"383 222 OFFCURVE",
"325 247 OFFCURVE",
"290 300 CURVE",
"290 220 LINE SMOOTH",
"290 190 OFFCURVE",
"310 170 OFFCURVE",
"340 170 CURVE SMOOTH",
"346 170 LINE",
"346 0 LINE",
"34 0 LINE",
"34 170 LINE",
"40 170 LINE SMOOTH",
"70 170 OFFCURVE",
"90 190 OFFCURVE",
"90 220 CURVE SMOOTH"
);
}
);
width = 736;
}
);
unicode = 20A7;
},
{
glyphname = pi;
leftMetricsKey = "=T";
rightMetricsKey = "=T";
layers = (
{
layerId = "8cfcb29b-26a6-4086-8457-1c158349f2cd";
paths = (
{
closed = 1;
nodes = (
"650 638 LINE SMOOTH",
"665 638 OFFCURVE",
"671 642 OFFCURVE",
"671 652 CURVE SMOOTH",
"671 659 OFFCURVE",
"666 665 OFFCURVE",
"661 670 CURVE",
"694 703 OFFCURVE",
"725 719 OFFCURVE",
"760 719 CURVE SMOOTH",
"826 719 OFFCURVE",
"870 660 OFFCURVE",
"870 595 CURVE SMOOTH",
"870 521 OFFCURVE",
"814 468 OFFCURVE",
"736 468 CURVE SMOOTH",
"180 468 LINE SMOOTH",
"150 468 OFFCURVE",
"130 448 OFFCURVE",
"130 418 CURVE SMOOTH",
"130 377 LINE",
"10 377 LINE",
"10 638 LINE"
);
},
{
closed = 1;
nodes = (
"504 408 LINE",
"704 408 LINE",
"704 236 LINE SMOOTH",
"704 217 OFFCURVE",
"712 207 OFFCURVE",
"725 207 CURVE SMOOTH",
"735 207 OFFCURVE",
"743 214 OFFCURVE",
"747 227 CURVE",
"788 203 OFFCURVE",
"811 160 OFFCURVE",
"811 112 CURVE SMOOTH",
"811 36 OFFCURVE",
"752 -18 OFFCURVE",
"661 -18 CURVE SMOOTH",
"561 -18 OFFCURVE",
"504 47 OFFCURVE",
"504 172 CURVE SMOOTH"
);
},
{
closed = 1;
nodes = (
"132 170 LINE",
"138 170 LINE SMOOTH",
"168 170 OFFCURVE",
"188 190 OFFCURVE",
"188 220 CURVE SMOOTH",
"188 408 LINE",
"388 408 LINE",
"388 220 LINE SMOOTH",
"388 190 OFFCURVE",
"408 170 OFFCURVE",
"438 170 CURVE SMOOTH",
"444 170 LINE",
"444 0 LINE",
"132 0 LINE"
);
}
);
width = 880;
}
);
unicode = 03C0;
},
{
glyphname = sterling;
leftMetricsKey = "=L";
rightMetricsKey = "=L";
layers = (
{
layerId = "8cfcb29b-26a6-4086-8457-1c158349f2cd";
paths = (
{
closed = 1;
nodes = (
"137 441 LINE",
"337 441 LINE",
"337 480 LINE SMOOTH",
"337 544 OFFCURVE",
"361 582 OFFCURVE",
"414 582 CURVE SMOOTH",
"456 582 OFFCURVE",
"482 558 OFFCURVE",
"482 531 CURVE SMOOTH",
"482 517 OFFCURVE",
"475 510 OFFCURVE",
"463 510 CURVE",
"463 447 OFFCURVE",
"496 411 OFFCURVE",
"552 411 CURVE SMOOTH",
"610 411 OFFCURVE",
"643 450 OFFCURVE",
"643 517 CURVE SMOOTH",
"643 635 OFFCURVE",
"526 718 OFFCURVE",
"393 718 CURVE SMOOTH",
"221 718 OFFCURVE",
"137 605 OFFCURVE",
"137 489 CURVE SMOOTH"
);
},
{
closed = 1;
nodes = (
"30 36 OFFCURVE",
"89 -18 OFFCURVE",
"180 -18 CURVE SMOOTH",
"280 -18 OFFCURVE",
"337 47 OFFCURVE",
"337 172 CURVE SMOOTH",
"337 296 LINE",
"444 296 LINE",
"444 381 LINE",
"81 381 LINE",
"81 296 LINE",
"137 296 LINE",
"137 236 LINE SMOOTH",
"137 217 OFFCURVE",
"129 207 OFFCURVE",
"116 207 CURVE SMOOTH",
"106 207 OFFCURVE",
"98 214 OFFCURVE",
"94 227 CURVE",
"53 203 OFFCURVE",
"30 160 OFFCURVE",
"30 112 CURVE SMOOTH"
);
},
{
closed = 1;
nodes = (
"382 0 LINE",
"638 0 LINE",
"638 285 LINE",
"498 285 LINE",
"498 220 LINE SMOOTH",
"498 190 OFFCURVE",
"478 170 OFFCURVE",
"448 170 CURVE SMOOTH",
"382 170 LINE"
);
}
);
width = 658;
}
);
unicode = 00A3;
},
{
glyphname = paragraph;
leftMetricsKey = "=V";
rightMetricsKey = "=I-5";
layers = (
{
layerId = "8cfcb29b-26a6-4086-8457-1c158349f2cd";
paths = (
{
closed = 1;
nodes = (
"10 300 OFFCURVE",
"116 222 OFFCURVE",
"226 222 CURVE SMOOTH",
"314 222 OFFCURVE",
"382 272 OFFCURVE",
"382 344 CURVE SMOOTH",
"382 386 OFFCURVE",
"359 424 OFFCURVE",
"315 437 CURVE",
"309 415 OFFCURVE",
"296 406 OFFCURVE",
"278 406 CURVE SMOOTH",
"252 406 OFFCURVE",
"237 426 OFFCURVE",
"237 457 CURVE SMOOTH",
"237 505 OFFCURVE",
"273 530 OFFCURVE",
"336 530 CURVE SMOOTH",
"378 530 LINE SMOOTH",
"408 530 OFFCURVE",
"428 510 OFFCURVE",
"428 480 CURVE SMOOTH",
"428 -144 LINE",
"628 -144 LINE",
"628 480 LINE SMOOTH",
"628 510 OFFCURVE",
"648 530 OFFCURVE",
"678 530 CURVE SMOOTH",
"684 530 LINE",
"684 700 LINE",
"271 700 LINE SMOOTH",
"124 700 OFFCURVE",
"10 592 OFFCURVE",
"10 443 CURVE SMOOTH"
);
},
{
closed = 1;
nodes = (
"63 -99 OFFCURVE",
"123 -154 OFFCURVE",
"214 -154 CURVE SMOOTH",
"313 -154 OFFCURVE",
"371 -89 OFFCURVE",
"371 38 CURVE SMOOTH",
"371 170 LINE",
"171 170 LINE",
"171 102 LINE SMOOTH",
"171 83 OFFCURVE",
"162 72 OFFCURVE",
"150 72 CURVE SMOOTH",
"139 72 OFFCURVE",
"130 80 OFFCURVE",
"127 92 CURVE",
"85 69 OFFCURVE",
"63 25 OFFCURVE",
"63 -22 CURVE SMOOTH"
);
}
);
width = 709;
}
);
unicode = 00B6;
},
{
glyphname = perthousand;
leftMetricsKey = "=percent";
rightMetricsKey = "=percent";
layers = (
{
anchors = (
{
name = top;
position = "{703, 399}";
}
);
layerId = "8cfcb29b-26a6-4086-8457-1c158349f2cd";
paths = (
{
closed = 1;
nodes = (
"156 0 LINE",
"350 0 LINE",
"739 699 LINE",
"545 699 LINE"
);
},
{
closed = 1;
nodes = (
"1035 245 LINE",
"1040 274 OFFCURVE",
"1053 293 OFFCURVE",
"1075 293 CURVE SMOOTH",
"1092 293 OFFCURVE",
"1110 281 OFFCURVE",
"1110 255 CURVE SMOOTH",
"1110 243 OFFCURVE",
"1105 233 OFFCURVE",
"1097 233 CURVE SMOOTH",
"1094 233 OFFCURVE",
"1091 234 OFFCURVE",
"1089 236 CURVE",
"1081 226 OFFCURVE",
"1077 217 OFFCURVE",
"1077 204 CURVE SMOOTH",
"1077 164 OFFCURVE",
"1112 139 OFFCURVE",
"1149 139 CURVE SMOOTH",
"1192 139 OFFCURVE",
"1227 172 OFFCURVE",
"1227 231 CURVE SMOOTH",
"1227 309 OFFCURVE",
"1169 382 OFFCURVE",
"1066 382 CURVE SMOOTH",
"977 382 OFFCURVE",
"918 333 OFFCURVE",
"909 245 CURVE"
);
},
{
closed = 1;
nodes = (
"289 318 OFFCURVE",
"348 367 OFFCURVE",
"358 455 CURVE",
"231 455 LINE",
"226 426 OFFCURVE",
"214 407 OFFCURVE",
"192 407 CURVE SMOOTH",
"175 407 OFFCURVE",
"157 419 OFFCURVE",
"157 445 CURVE SMOOTH",
"157 457 OFFCURVE",
"162 467 OFFCURVE",
"170 467 CURVE SMOOTH",
"173 467 OFFCURVE",
"176 466 OFFCURVE",
"177 464 CURVE",
"186 474 OFFCURVE",
"190 483 OFFCURVE",
"190 496 CURVE SMOOTH",
"190 536 OFFCURVE",
"155 561 OFFCURVE",
"117 561 CURVE SMOOTH",
"74 561 OFFCURVE",
"40 528 OFFCURVE",
"40 469 CURVE SMOOTH",
"40 391 OFFCURVE",
"98 318 OFFCURVE",
"200 318 CURVE SMOOTH"
);
},
{
closed = 1;
nodes = (
"172 581 LINE",
"177 610 OFFCURVE",
"190 629 OFFCURVE",
"212 629 CURVE SMOOTH",
"229 629 OFFCURVE",
"247 617 OFFCURVE",
"247 591 CURVE SMOOTH",
"247 579 OFFCURVE",
"242 569 OFFCURVE",
"234 569 CURVE SMOOTH",
"231 569 OFFCURVE",
"228 570 OFFCURVE",
"226 572 CURVE",
"218 563 OFFCURVE",
"214 553 OFFCURVE",
"214 540 CURVE SMOOTH",
"214 500 OFFCURVE",
"249 476 OFFCURVE",
"286 476 CURVE SMOOTH",
"329 476 OFFCURVE",
"364 508 OFFCURVE",
"364 567 CURVE SMOOTH",
"364 646 OFFCURVE",
"306 718 OFFCURVE",
"203 718 CURVE SMOOTH",
"114 718 OFFCURVE",
"55 670 OFFCURVE",
"46 581 CURVE"
);
},
{
closed = 1;
nodes = (
"543 54 OFFCURVE",
"601 -18 OFFCURVE",
"703 -18 CURVE SMOOTH",
"792 -18 OFFCURVE",
"851 30 OFFCURVE",
"861 119 CURVE",
"734 119 LINE",
"729 89 OFFCURVE",
"717 70 OFFCURVE",
"695 70 CURVE SMOOTH",
"678 70 OFFCURVE",
"660 83 OFFCURVE",
"660 109 CURVE SMOOTH",
"660 121 OFFCURVE",
"665 131 OFFCURVE",
"673 131 CURVE SMOOTH",
"676 131 OFFCURVE",
"679 130 OFFCURVE",
"680 128 CURVE",
"689 137 OFFCURVE",
"693 147 OFFCURVE",
"693 160 CURVE SMOOTH",
"693 200 OFFCURVE",
"658 224 OFFCURVE",
"620 224 CURVE SMOOTH",
"577 224 OFFCURVE",
"543 192 OFFCURVE",
"543 133 CURVE SMOOTH"
);
},
{
closed = 1;
nodes = (
"675 245 LINE",
"680 274 OFFCURVE",
"693 293 OFFCURVE",
"715 293 CURVE SMOOTH",
"732 293 OFFCURVE",
"750 281 OFFCURVE",
"750 255 CURVE SMOOTH",
"750 247 OFFCURVE",
"748 233 OFFCURVE",
"737 233 CURVE SMOOTH",
"734 233 OFFCURVE",
"731 234 OFFCURVE",
"729 236 CURVE",
"721 226 OFFCURVE",
"717 217 OFFCURVE",
"717 204 CURVE SMOOTH",
"717 164 OFFCURVE",
"752 139 OFFCURVE",
"789 139 CURVE SMOOTH",
"832 139 OFFCURVE",
"867 172 OFFCURVE",
"867 231 CURVE SMOOTH",
"867 236 OFFCURVE",
"867 240 OFFCURVE",
"866 245 CURVE",
"860 318 OFFCURVE",
"803 382 OFFCURVE",
"706 382 CURVE SMOOTH",
"617 382 OFFCURVE",
"558 333 OFFCURVE",
"549 245 CURVE"
);
},
{
closed = 1;
nodes = (
"910 46 OFFCURVE",
"967 -18 OFFCURVE",
"1063 -18 CURVE SMOOTH",
"1152 -18 OFFCURVE",
"1211 30 OFFCURVE",
"1221 119 CURVE",
"1094 119 LINE",
"1089 89 OFFCURVE",
"1077 70 OFFCURVE",
"1055 70 CURVE SMOOTH",
"1038 70 OFFCURVE",
"1020 83 OFFCURVE",
"1020 109 CURVE SMOOTH",
"1020 117 OFFCURVE",
"1022 131 OFFCURVE",
"1033 131 CURVE SMOOTH",
"1036 131 OFFCURVE",
"1039 130 OFFCURVE",
"1040 128 CURVE",
"1049 137 OFFCURVE",
"1053 147 OFFCURVE",
"1053 160 CURVE SMOOTH",
"1053 200 OFFCURVE",
"1018 224 OFFCURVE",
"980 224 CURVE SMOOTH",
"937 224 OFFCURVE",
"903 192 OFFCURVE",
"903 133 CURVE SMOOTH",
"903 128 OFFCURVE",
"903 124 OFFCURVE",
"904 119 CURVE"
);
}
);
width = 1291;
}
);
unicode = 2030;
},
{
glyphname = section;
layers = (
{
anchors = (
{
name = top;
position = "{273, 750}";
}
);
guideLines = (
{
angle = 107.85;
position = "{312, 260}";
},
{
position = "{0, -144}";
}
);
layerId = "8cfcb29b-26a6-4086-8457-1c158349f2cd";
paths = (
{
closed = 1;
nodes = (
"290 88 LINE SMOOTH",
"312 79 OFFCURVE",
"327 66 OFFCURVE",
"327 45 CURVE SMOOTH",
"327 21 OFFCURVE",
"307 4 OFFCURVE",
"275 4 CURVE SMOOTH",
"235 4 OFFCURVE",
"186 32 OFFCURVE",
"186 93 CURVE",
"22 93 LINE",
"22 -144 LINE",
"186 -144 LINE",
"186 -27 LINE",
"220 -130 OFFCURVE",
"308 -162 OFFCURVE",
"368 -162 CURVE SMOOTH",
"451 -162 OFFCURVE",
"522 -99 OFFCURVE",
"522 -7 CURVE SMOOTH",
"522 47 OFFCURVE",
"498 121 OFFCURVE",
"382 174 CURVE SMOOTH",
"183 265 LINE SMOOTH",
"164 274 OFFCURVE",
"155 288 OFFCURVE",
"155 298 CURVE SMOOTH",
"155 305 OFFCURVE",
"159 311 OFFCURVE",
"168 312 CURVE",
"163 378 OFFCURVE",
"109 409 OFFCURVE",
"63 409 CURVE SMOOTH",
"9 409 OFFCURVE",
"-32 365 OFFCURVE",
"-32 312 CURVE SMOOTH",
"-32 259 OFFCURVE",
"-4 218 OFFCURVE",
"80 181 CURVE SMOOTH"
);
},
{
closed = 1;
nodes = (
"19 523 OFFCURVE",
"45 456 OFFCURVE",
"154 404 CURVE SMOOTH",
"343 312 LINE SMOOTH",
"363 302 OFFCURVE",
"371 294 OFFCURVE",
"371 283 CURVE SMOOTH",
"371 273 OFFCURVE",
"365 269 OFFCURVE",
"357 268 CURVE",
"362 207 OFFCURVE",
"412 177 OFFCURVE",
"458 177 CURVE SMOOTH",
"506 177 OFFCURVE",
"544 211 OFFCURVE",
"544 269 CURVE SMOOTH",
"544 317 OFFCURVE",
"517 353 OFFCURVE",
"440 390 CURVE SMOOTH",
"244 485 LINE SMOOTH",
"216 498 OFFCURVE",
"210 512 OFFCURVE",
"210 524 CURVE SMOOTH",
"210 548 OFFCURVE",
"231 563 OFFCURVE",
"262 563 CURVE SMOOTH",
"302 563 OFFCURVE",
"339 537 OFFCURVE",
"339 480 CURVE",
"492 480 LINE",
"492 701 LINE",
"339 701 LINE",
"339 604 LINE",
"308 692 OFFCURVE",
"229 718 OFFCURVE",
"177 718 CURVE SMOOTH",
"97 718 OFFCURVE",
"19 657 OFFCURVE",
"19 572 CURVE SMOOTH"
);
}
);
width = 513;
}
);
unicode = 00A7;
},
{
glyphname = notequal;
leftMetricsKey = "=minus";
rightMetricsKey = "=minus";
layers = (
{
layerId = "8cfcb29b-26a6-4086-8457-1c158349f2cd";
paths = (
{
closed = 1;
nodes = (
"25 321 LINE",
"25 156 LINE",
"113 156 LINE",
"87 45 LINE",
"281 45 LINE",
"307 156 LINE",
"482 156 LINE",
"482 321 LINE"
);
},
{
closed = 1;
nodes = (
"25 371 LINE",
"482 371 LINE",
"482 536 LINE",
"394 536 LINE",
"419 646 LINE",
"225 646 LINE",
"200 536 LINE",
"25 536 LINE"
);
}
);
width = 507;
}
);
unicode = 2260;
},
{
glyphname = greaterequal;
leftMetricsKey = "=greater";
rightMetricsKey = "=greater";
layers = (
{
layerId = "8cfcb29b-26a6-4086-8457-1c158349f2cd";
paths = (
{
closed = 1;
nodes = (
"25 240 OFFCURVE",
"54 202 OFFCURVE",
"101 202 CURVE SMOOTH",
"144 202 OFFCURVE",
"176 235 OFFCURVE",
"176 273 CURVE",
"169 273 OFFCURVE",
"161 277 OFFCURVE",
"161 284 CURVE SMOOTH",
"161 290 OFFCURVE",
"167 295 OFFCURVE",
"172 298 CURVE SMOOTH",
"351 380 LINE SMOOTH",
"387 397 OFFCURVE",
"415 435 OFFCURVE",
"415 475 CURVE SMOOTH",
"415 521 OFFCURVE",
"380 553 OFFCURVE",
"336 553 CURVE SMOOTH",
"296 553 OFFCURVE",
"262 525 OFFCURVE",
"262 483 CURVE",
"270 483 OFFCURVE",
"276 479 OFFCURVE",
"276 472 CURVE SMOOTH",
"276 465 OFFCURVE",
"271 460 OFFCURVE",
"265 457 CURVE SMOOTH",
"90 377 LINE SMOOTH",
"53 360 OFFCURVE",
"25 329 OFFCURVE",
"25 285 CURVE SMOOTH"
);
},
{
closed = 1;
nodes = (
"62 675 OFFCURVE",
"25 641 OFFCURVE",
"25 594 CURVE SMOOTH",
"25 550 OFFCURVE",
"57 516 OFFCURVE",
"99 516 CURVE SMOOTH",
"111 516 OFFCURVE",
"124 519 OFFCURVE",
"135 528 CURVE",
"133 531 OFFCURVE",
"131 534 OFFCURVE",
"131 538 CURVE SMOOTH",
"131 544 OFFCURVE",
"138 548 OFFCURVE",
"144 548 CURVE SMOOTH",
"147 548 OFFCURVE",
"151 547 OFFCURVE",
"155 545 CURVE SMOOTH",
"225 504 LINE",
"278 597 LINE",
"168 661 LINE SMOOTH",
"151 670 OFFCURVE",
"132 675 OFFCURVE",
"112 675 CURVE SMOOTH"
);
},
{
closed = 1;
nodes = (
"35 34 LINE",
"405 34 LINE",
"405 168 LINE",
"35 168 LINE"
);
}
);
width = 440;
}
);
unicode = 2265;
},
{
glyphname = ae;
leftMetricsKey = "=AE";
rightMetricsKey = "=AE";
layers = (
{
layerId = "8cfcb29b-26a6-4086-8457-1c158349f2cd";
paths = (
{
closed = 1;
nodes = (
"137 700 LINE",
"137 530 LINE",
"153 530 LINE SMOOTH",
"183 530 OFFCURVE",
"198 511 OFFCURVE",
"190 482 CURVE SMOOTH",
"163 378 LINE",
"343 378 LINE",
"373 491 LINE",
"441 219 LINE SMOOTH",
"448 190 OFFCURVE",
"433 170 OFFCURVE",
"403 170 CURVE SMOOTH",
"397 170 LINE",
"397 0 LINE",
"741 0 LINE",
"741 170 LINE",
"715 170 LINE SMOOTH",
"685 170 OFFCURVE",
"660 189 OFFCURVE",
"653 218 CURVE SMOOTH",
"586 482 LINE SMOOTH",
"579 511 OFFCURVE",
"594 530 OFFCURVE",
"624 530 CURVE SMOOTH",
"630 530 LINE",
"630 700 LINE"
);
},
{
closed = 1;
nodes = (
"273 -18 OFFCURVE",
"349 24 OFFCURVE",
"349 101 CURVE SMOOTH",
"349 164 OFFCURVE",
"305 200 OFFCURVE",
"244 200 CURVE",
"244 180 OFFCURVE",
"233 174 OFFCURVE",
"223 174 CURVE SMOOTH",
"210 174 OFFCURVE",
"198 183 OFFCURVE",
"198 201 CURVE SMOOTH",
"198 215 OFFCURVE",
"205 252 OFFCURVE",
"369 252 CURVE",
"369 336 LINE",
"138 336 OFFCURVE",
"10 267 OFFCURVE",
"10 143 CURVE SMOOTH",
"10 44 OFFCURVE",
"91 -18 OFFCURVE",
"191 -18 CURVE SMOOTH"
);
},
{
closed = 1;
nodes = (
"776 62 OFFCURVE",
"872 -18 OFFCURVE",
"1064 -18 CURVE SMOOTH",
"1257 -18 OFFCURVE",
"1379 63 OFFCURVE",
"1379 253 CURVE",
"1187 253 LINE",
"1182 184 OFFCURVE",
"1123 164 OFFCURVE",
"1081 164 CURVE SMOOTH",
"1040 164 OFFCURVE",
"1013 183 OFFCURVE",
"1013 209 CURVE SMOOTH",
"1013 260 OFFCURVE",
"1089 306 OFFCURVE",
"1302 306 CURVE",
"1302 390 LINE",
"961 390 OFFCURVE",
"776 302 OFFCURVE",
"776 162 CURVE SMOOTH"
);
},
{
closed = 1;
nodes = (
"776 440 OFFCURVE",
"835 378 OFFCURVE",
"922 378 CURVE SMOOTH",
"987 378 OFFCURVE",
"1043 412 OFFCURVE",
"1043 474 CURVE",
"1031 474 OFFCURVE",
"1019 490 OFFCURVE",
"1019 508 CURVE SMOOTH",
"1019 535 OFFCURVE",
"1046 554 OFFCURVE",
"1082 554 CURVE SMOOTH",
"1145 554 OFFCURVE",
"1187 494 OFFCURVE",
"1187 451 CURVE",
"1347 451 LINE",
"1347 700 LINE",
"1187 700 LINE",
"1187 583 LINE",
"1151 691 OFFCURVE",
"1050 718 OFFCURVE",
"984 718 CURVE SMOOTH",
"866 718 OFFCURVE",
"776 631 OFFCURVE",
"776 524 CURVE SMOOTH"
);
}
);
width = 1399;
}
);
leftKerningGroup = a_2nd;
unicode = 00E6;
},
{
glyphname = oe;
leftMetricsKey = "=OE";
rightMetricsKey = "=OE";
layers = (
{
layerId = "8cfcb29b-26a6-4086-8457-1c158349f2cd";
paths = (
{
closed = 1;
nodes = (
"264 466 LINE",
"274 520 OFFCURVE",
"305 555 OFFCURVE",
"356 555 CURVE SMOOTH",
"398 555 OFFCURVE",
"441 532 OFFCURVE",
"441 484 CURVE SMOOTH",
"441 462 OFFCURVE",
"432 444 OFFCURVE",
"417 444 CURVE SMOOTH",
"411 444 OFFCURVE",
"406 446 OFFCURVE",
"403 449 CURVE",
"387 429 OFFCURVE",
"380 405 OFFCURVE",
"380 380 CURVE SMOOTH",
"380 315 OFFCURVE",
"430 272 OFFCURVE",
"504 272 CURVE SMOOTH",
"596 272 OFFCURVE",
"656 339 OFFCURVE",
"656 441 CURVE SMOOTH",
"656 581 OFFCURVE",
"542 718 OFFCURVE",
"341 718 CURVE SMOOTH",
"165 718 OFFCURVE",
"49 629 OFFCURVE",
"31 466 CURVE"
);
},
{
closed = 1;
nodes = (
"412 234 LINE",
"402 180 OFFCURVE",
"371 145 OFFCURVE",
"320 145 CURVE SMOOTH",
"278 145 OFFCURVE",
"235 168 OFFCURVE",
"235 216 CURVE SMOOTH",
"235 238 OFFCURVE",
"244 256 OFFCURVE",
"259 256 CURVE SMOOTH",
"265 256 OFFCURVE",
"270 254 OFFCURVE",
"273 251 CURVE",
"289 271 OFFCURVE",
"296 295 OFFCURVE",
"296 320 CURVE SMOOTH",
"296 385 OFFCURVE",
"246 428 OFFCURVE",
"172 428 CURVE SMOOTH",
"80 428 OFFCURVE",
"20 361 OFFCURVE",
"20 259 CURVE SMOOTH",
"20 119 OFFCURVE",
"134 -18 OFFCURVE",
"335 -18 CURVE SMOOTH",
"511 -18 OFFCURVE",
"627 71 OFFCURVE",
"645 234 CURVE"
);
},
{
closed = 1;
nodes = (
"701 62 OFFCURVE",
"797 -18 OFFCURVE",
"989 -18 CURVE SMOOTH",
"1182 -18 OFFCURVE",
"1304 63 OFFCURVE",
"1304 253 CURVE",
"1112 253 LINE",
"1107 184 OFFCURVE",
"1048 164 OFFCURVE",
"1006 164 CURVE SMOOTH",
"965 164 OFFCURVE",
"938 183 OFFCURVE",
"938 209 CURVE SMOOTH",
"938 260 OFFCURVE",
"1014 306 OFFCURVE",
"1227 306 CURVE",
"1227 390 LINE",
"886 390 OFFCURVE",
"701 302 OFFCURVE",
"701 162 CURVE SMOOTH"
);
},
{
closed = 1;
nodes = (
"701 440 OFFCURVE",
"760 378 OFFCURVE",
"847 378 CURVE SMOOTH",
"912 378 OFFCURVE",
"968 412 OFFCURVE",
"968 474 CURVE",
"956 474 OFFCURVE",
"944 490 OFFCURVE",
"944 508 CURVE SMOOTH",
"944 535 OFFCURVE",
"971 554 OFFCURVE",
"1007 554 CURVE SMOOTH",
"1070 554 OFFCURVE",
"1112 494 OFFCURVE",
"1112 451 CURVE",
"1272 451 LINE",
"1272 700 LINE",
"1112 700 LINE",
"1112 583 LINE",
"1076 691 OFFCURVE",
"975 718 OFFCURVE",
"909 718 CURVE SMOOTH",
"791 718 OFFCURVE",
"701 631 OFFCURVE",
"701 524 CURVE SMOOTH"
);
}
);
width = 1324;
}
);
leftKerningGroup = o_2nd;
unicode = 0153;
},
{
glyphname = T_T;
leftMetricsKey = "=T";
rightMetricsKey = "=T";
layers = (
{
layerId = "8cfcb29b-26a6-4086-8457-1c158349f2cd";
paths = (
{
closed = 1;
nodes = (
"148 170 LINE SMOOTH",
"178 170 OFFCURVE",
"198 190 OFFCURVE",
"198 220 CURVE SMOOTH",
"198 470 LINE",
"398 470 LINE",
"398 220 LINE SMOOTH",
"398 190 OFFCURVE",
"418 170 OFFCURVE",
"448 170 CURVE SMOOTH",
"454 170 LINE",
"454 0 LINE",
"142 0 LINE",
"142 170 LINE"
);
},
{
closed = 1;
nodes = (
"542 170 LINE",
"548 170 LINE SMOOTH",
"578 170 OFFCURVE",
"598 190 OFFCURVE",
"598 220 CURVE SMOOTH",
"598 470 LINE",
"798 470 LINE",
"798 220 LINE SMOOTH",
"798 190 OFFCURVE",
"818 170 OFFCURVE",
"848 170 CURVE SMOOTH",
"854 170 LINE",
"854 0 LINE",
"542 0 LINE"
);
},
{
closed = 1;
nodes = (
"770 700 LINE SMOOTH",
"785 700 OFFCURVE",
"791 704 OFFCURVE",
"791 714 CURVE SMOOTH",
"791 721 OFFCURVE",
"786 727 OFFCURVE",
"781 732 CURVE",
"814 765 OFFCURVE",
"845 781 OFFCURVE",
"880 781 CURVE SMOOTH",
"946 781 OFFCURVE",
"990 722 OFFCURVE",
"990 657 CURVE SMOOTH",
"990 583 OFFCURVE",
"934 530 OFFCURVE",
"856 530 CURVE SMOOTH",
"515 530 LINE",
"515 700 LINE"
);
},
{
closed = 1;
nodes = (
"10 439 LINE",
"10 700 LINE",
"478 700 LINE",
"478 530 LINE",
"180 530 LINE SMOOTH",
"150 530 OFFCURVE",
"130 510 OFFCURVE",
"130 480 CURVE SMOOTH",
"130 439 LINE"
);
}
);
width = 1000;
}
);
leftKerningGroup = T_2nd;
rightKerningGroup = T1_1st;
},
{
glyphname = arrowup;
layers = (
{
guideLines = (
{
angle = 90;
position = "{306, 0}";
}
);
layerId = "8cfcb29b-26a6-4086-8457-1c158349f2cd";
paths = (
{
closed = 1;
nodes = (
"220 359 OFFCURVE",
"273 424 OFFCURVE",
"306 504 CURVE",
"339 424 OFFCURVE",
"392 359 OFFCURVE",
"471 359 CURVE SMOOTH",
"538 359 OFFCURVE",
"587 406 OFFCURVE",
"587 462 CURVE SMOOTH",
"587 510 OFFCURVE",
"551 549 OFFCURVE",
"506 549 CURVE SMOOTH",
"484 549 OFFCURVE",
"471 540 OFFCURVE",
"465 534 CURVE",
"469 530 OFFCURVE",
"471 525 OFFCURVE",
"471 520 CURVE SMOOTH",
"471 508 OFFCURVE",
"462 497 OFFCURVE",
"447 497 CURVE SMOOTH",
"399 497 OFFCURVE",
"350 616 OFFCURVE",
"350 718 CURVE",
"262 718 LINE",
"262 616 OFFCURVE",
"213 497 OFFCURVE",
"165 497 CURVE SMOOTH",
"150 497 OFFCURVE",
"141 508 OFFCURVE",
"141 520 CURVE SMOOTH",
"141 525 OFFCURVE",
"143 530 OFFCURVE",
"147 534 CURVE",
"141 540 OFFCURVE",
"128 549 OFFCURVE",
"106 549 CURVE SMOOTH",
"61 549 OFFCURVE",
"25 510 OFFCURVE",
"25 462 CURVE SMOOTH",
"25 406 OFFCURVE",
"74 359 OFFCURVE",
"141 359 CURVE SMOOTH"
);
},
{
closed = 1;
nodes = (
"180 0 LINE",
"432 0 LINE",
"432 170 LINE",
"426 170 LINE SMOOTH",
"396 170 OFFCURVE",
"376 190 OFFCURVE",
"376 220 CURVE SMOOTH",
"376 350 LINE",
"236 350 LINE",
"236 220 LINE SMOOTH",
"236 190 OFFCURVE",
"216 170 OFFCURVE",
"186 170 CURVE SMOOTH",
"180 170 LINE"
);
}
);
width = 612;
}
);
unicode = 2191;
},
{
glyphname = uni2196;
layers = (
{
layerId = "8cfcb29b-26a6-4086-8457-1c158349f2cd";
paths = (
{
closed = 1;
nodes = (
"247 383 OFFCURVE",
"237 423 OFFCURVE",
"221 462 CURVE",
"260 446 OFFCURVE",
"299 435 OFFCURVE",
"333 435 CURVE SMOOTH",
"407 435 OFFCURVE",
"477 485 OFFCURVE",
"477 558 CURVE SMOOTH",
"477 611 OFFCURVE",
"439 657 OFFCURVE",
"387 657 CURVE SMOOTH",
"347 657 OFFCURVE",
"312 629 OFFCURVE",
"312 595 CURVE",
"324 595 OFFCURVE",
"333 586 OFFCURVE",
"333 574 CURVE SMOOTH",
"333 553 OFFCURVE",
"310 546 OFFCURVE",
"290 546 CURVE SMOOTH",
"241 546 OFFCURVE",
"157 588 OFFCURVE",
"101 644 CURVE",
"38 582 LINE",
"95 526 OFFCURVE",
"137 442 OFFCURVE",
"137 395 CURVE SMOOTH",
"137 374 OFFCURVE",
"129 349 OFFCURVE",
"110 349 CURVE SMOOTH",
"98 349 OFFCURVE",
"87 359 OFFCURVE",
"87 370 CURVE",
"54 370 OFFCURVE",
"25 334 OFFCURVE",
"25 294 CURVE SMOOTH",
"25 244 OFFCURVE",
"71 205 OFFCURVE",
"126 205 CURVE SMOOTH",
"198 205 OFFCURVE",
"247 274 OFFCURVE",
"247 349 CURVE SMOOTH"
);
},
{
closed = 1;
nodes = (
"488 16 LINE",
"666 194 LINE",
"546 314 LINE",
"542 310 LINE SMOOTH",
"532 300 OFFCURVE",
"519 294 OFFCURVE",
"507 294 CURVE SMOOTH",
"494 294 OFFCURVE",
"482 300 OFFCURVE",
"471 310 CURVE SMOOTH",
"379 402 LINE",
"280 303 LINE",
"372 211 LINE SMOOTH",
"383 201 OFFCURVE",
"388 188 OFFCURVE",
"388 176 CURVE SMOOTH",
"388 164 OFFCURVE",
"383 152 OFFCURVE",
"372 141 CURVE SMOOTH",
"368 136 LINE"
);
}
);
width = 691;
}
);
unicode = 2196;
},
{
glyphname = uni0308;
layers = (
{
anchors = (
{
name = _top;
position = "{294, 750}";
}
);
layerId = "8cfcb29b-26a6-4086-8457-1c158349f2cd";
paths = (
{
closed = 1;
nodes = (
"18 798 OFFCURVE",
"70 750 OFFCURVE",
"148 750 CURVE SMOOTH",
"225 750 OFFCURVE",
"277 798 OFFCURVE",
"277 870 CURVE SMOOTH",
"277 941 OFFCURVE",
"225 989 OFFCURVE",
"148 989 CURVE SMOOTH",
"70 989 OFFCURVE",
"18 941 OFFCURVE",
"18 870 CURVE SMOOTH"
);
},
{
closed = 1;
nodes = (
"314 798 OFFCURVE",
"366 750 OFFCURVE",
"444 750 CURVE SMOOTH",
"521 750 OFFCURVE",
"573 798 OFFCURVE",
"573 870 CURVE SMOOTH",
"573 941 OFFCURVE",
"521 989 OFFCURVE",
"444 989 CURVE SMOOTH",
"366 989 OFFCURVE",
"314 941 OFFCURVE",
"314 870 CURVE SMOOTH"
);
}
);
width = 591;
}
);
unicode = 0308;
},
{
glyphname = uni0300;
layers = (
{
anchors = (
{
name = _top;
position = "{213, 750}";
}
);
guideLines = (
{
angle = 90;
position = "{213, 0}";
}
);
layerId = "8cfcb29b-26a6-4086-8457-1c158349f2cd";
paths = (
{
closed = 1;
nodes = (
"368 750 LINE",
"162 750 OFFCURVE",
"49 821 OFFCURVE",
"49 946 CURVE SMOOTH",
"49 1031 OFFCURVE",
"102 1085 OFFCURVE",
"176 1085 CURVE SMOOTH",
"242 1085 OFFCURVE",
"295 1041 OFFCURVE",
"295 988 CURVE SMOOTH",
"295 969 OFFCURVE",
"287 951 OFFCURVE",
"273 938 CURVE",
"268 943 OFFCURVE",
"263 945 OFFCURVE",
"257 945 CURVE SMOOTH",
"240 945 OFFCURVE",
"227 928 OFFCURVE",
"227 905 CURVE SMOOTH",
"227 858 OFFCURVE",
"284 825 OFFCURVE",
"368 825 CURVE"
);
}
);
width = 417;
}
);
unicode = 0300;
},
{
glyphname = uni0301;
layers = (
{
anchors = (
{
name = _top;
position = "{206, 750}";
}
);
guideLines = (
{
angle = 58.22;
position = "{1954, 265}";
},
{
angle = 58.22;
position = "{1954, 265}";
},
{
angle = 58.22;
position = "{1952, 265}";
},
{
angle = 58.22;
position = "{1952, 265}";
},
{
angle = 90;
position = "{206, 0}";
}
);
layerId = "8cfcb29b-26a6-4086-8457-1c158349f2cd";
paths = (
{
closed = 1;
nodes = (
"50 750 LINE",
"256 750 OFFCURVE",
"367 820 OFFCURVE",
"367 945 CURVE SMOOTH",
"367 1030 OFFCURVE",
"316 1085 OFFCURVE",
"242 1085 CURVE SMOOTH",
"176 1085 OFFCURVE",
"123 1041 OFFCURVE",
"123 988 CURVE SMOOTH",
"123 969 OFFCURVE",
"131 951 OFFCURVE",
"145 938 CURVE",
"150 943 OFFCURVE",
"155 945 OFFCURVE",
"161 945 CURVE SMOOTH",
"178 945 OFFCURVE",
"191 928 OFFCURVE",
"191 905 CURVE SMOOTH",
"191 858 OFFCURVE",
"134 825 OFFCURVE",
"50 825 CURVE"
);
}
);
width = 417;
}
);
unicode = 0301;
},
{
glyphname = uni030B;
layers = (
{
anchors = (
{
name = _top;
position = "{278, 750}";
}
);
guideLines = (
{
angle = 58.22;
position = "{1863, 265}";
},
{
angle = 58.22;
position = "{2280, 265}";
},
{
angle = 58.22;
position = "{1863, 265}";
},
{
angle = 58.22;
position = "{2140, 265}";
},
{
angle = 58.22;
position = "{1863, 265}";
},
{
angle = 58.22;
position = "{2280, 265}";
},
{
angle = 58.22;
position = "{1863, 265}";
},
{
angle = 58.22;
position = "{2140, 265}";
},
{
angle = 58.22;
position = "{1863, 265}";
},
{
angle = 58.22;
position = "{2280, 265}";
},
{
angle = 58.22;
position = "{1863, 265}";
},
{
angle = 58.22;
position = "{2140, 265}";
}
);
layerId = "8cfcb29b-26a6-4086-8457-1c158349f2cd";
paths = (
{
closed = 1;
nodes = (
"287 750 LINE",
"453 750 OFFCURVE",
"565 820 OFFCURVE",
"565 946 CURVE SMOOTH",
"565 1030 OFFCURVE",
"513 1085 OFFCURVE",
"439 1085 CURVE SMOOTH",
"373 1085 OFFCURVE",
"320 1041 OFFCURVE",
"320 988 CURVE SMOOTH",
"320 969 OFFCURVE",
"328 951 OFFCURVE",
"342 938 CURVE",
"347 943 OFFCURVE",
"352 945 OFFCURVE",
"358 945 CURVE SMOOTH",
"375 945 OFFCURVE",
"388 929 OFFCURVE",
"388 906 CURVE SMOOTH",
"388 859 OFFCURVE",
"331 825 OFFCURVE",
"287 825 CURVE"
);
},
{
closed = 1;
nodes = (
"10 750 LINE",
"176 750 OFFCURVE",
"288 820 OFFCURVE",
"288 946 CURVE SMOOTH",
"288 1030 OFFCURVE",
"236 1085 OFFCURVE",
"162 1085 CURVE SMOOTH",
"96 1085 OFFCURVE",
"43 1041 OFFCURVE",
"43 988 CURVE SMOOTH",
"43 969 OFFCURVE",
"51 951 OFFCURVE",
"65 938 CURVE",
"70 943 OFFCURVE",
"75 945 OFFCURVE",
"81 945 CURVE SMOOTH",
"98 945 OFFCURVE",
"111 929 OFFCURVE",
"111 906 CURVE SMOOTH",
"111 859 OFFCURVE",
"54 825 OFFCURVE",
"10 825 CURVE"
);
}
);
width = 575;
}
);
unicode = 030B;
},
{
glyphname = uni0304;
layers = (
{
anchors = (
{
name = _top;
position = "{251, 750}";
}
);
layerId = "8cfcb29b-26a6-4086-8457-1c158349f2cd";
paths = (
{
closed = 1;
nodes = (
"22 766 LINE",
"479 766 LINE",
"479 931 LINE",
"22 931 LINE"
);
}
);
width = 500;
}
);
unicode = 0304;
},
{
glyphname = uni014A;
layers = (
{
anchors = (
{
name = top;
position = "{368, 353}";
},
{
name = bottom;
position = "{368, -54}";
}
);
guideLines = (
{
angle = 90;
position = "{368, 0}";
},
{
angle = 90;
position = "{648, 0}";
},
{
angle = 90;
position = "{368, 0}";
}
);
layerId = "8cfcb29b-26a6-4086-8457-1c158349f2cd";
paths = (
{
closed = 1;
nodes = (
"273 -290 OFFCURVE",
"345 -356 OFFCURVE",
"465 -356 CURVE SMOOTH",
"580 -356 OFFCURVE",
"648 -297 OFFCURVE",
"648 -197 CURVE SMOOTH",
"648 -74 LINE",
"508 -74 LINE",
"508 -174 LINE SMOOTH",
"508 -220 OFFCURVE",
"494 -243 OFFCURVE",
"465 -243 CURVE SMOOTH",
"441 -243 OFFCURVE",
"422 -227 OFFCURVE",
"422 -208 CURVE SMOOTH",
"422 -196 OFFCURVE",
"429 -186 OFFCURVE",
"437 -186 CURVE SMOOTH",
"439 -186 OFFCURVE",
"442 -187 OFFCURVE",
"444 -188 CURVE",
"448 -178 OFFCURVE",
"451 -169 OFFCURVE",
"451 -159 CURVE SMOOTH",
"451 -119 OFFCURVE",
"419 -83 OFFCURVE",
"371 -83 CURVE SMOOTH",
"318 -83 OFFCURVE",
"273 -130 OFFCURVE",
"273 -200 CURVE SMOOTH"
);
},
{
closed = 1;
nodes = (
"30 530 LINE",
"36 530 LINE SMOOTH",
"66 530 OFFCURVE",
"86 510 OFFCURVE",
"86 480 CURVE SMOOTH",
"86 220 LINE SMOOTH",
"86 190 OFFCURVE",
"66 170 OFFCURVE",
"36 170 CURVE SMOOTH",
"30 170 LINE",
"30 0 LINE",
"282 0 LINE",
"282 170 LINE",
"276 170 LINE SMOOTH",
"246 170 OFFCURVE",
"226 190 OFFCURVE",
"226 220 CURVE SMOOTH",
"226 397 LINE",
"354 133 LINE SMOOTH",
"404 30 OFFCURVE",
"467 -18 OFFCURVE",
"554 -18 CURVE SMOOTH",
"649 -18 OFFCURVE",
"715 42 OFFCURVE",
"715 127 CURVE SMOOTH",
"715 201 OFFCURVE",
"664 260 OFFCURVE",
"598 260 CURVE SMOOTH",
"577 260 OFFCURVE",
"558 254 OFFCURVE",
"543 245 CURVE",
"544 243 OFFCURVE",
"545 240 OFFCURVE",
"545 237 CURVE SMOOTH",
"545 227 OFFCURVE",
"538 220 OFFCURVE",
"526 220 CURVE SMOOTH",
"515 220 OFFCURVE",
"507 226 OFFCURVE",
"500 240 CURVE SMOOTH",
"270 700 LINE",
"30 700 LINE"
);
},
{
closed = 1;
nodes = (
"452 530 LINE",
"458 530 LINE SMOOTH",
"488 530 OFFCURVE",
"508 510 OFFCURVE",
"508 480 CURVE SMOOTH",
"508 351 LINE",
"648 351 LINE",
"648 480 LINE SMOOTH",
"648 510 OFFCURVE",
"668 530 OFFCURVE",
"698 530 CURVE SMOOTH",
"704 530 LINE",
"704 700 LINE",
"452 700 LINE"
);
}
);
width = 735;
}
);
unicode = 014A;
},
